<mxfile host="app.diagrams.net" modified="2022-03-25T02:08:24.868Z" agent="5.0 (Windows NT 10.0; Win64; x64) AppleWebKit/537.36 (KHTML, like Gecko) Chrome/99.0.4844.82 Safari/537.36" etag="9om04qikoqD_OkFqtzA6" version="17.1.3" type="github">
  <diagram id="36oCFhJBmBsYdWunALaw" name="第 1 页">
    <mxGraphModel dx="3076" dy="1931" grid="1" gridSize="10" guides="1" tooltips="1" connect="1" arrows="1" fold="1" page="1" pageScale="1" pageWidth="827" pageHeight="1169" math="0" shadow="0">
      <root>
        <mxCell id="0" />
        <mxCell id="1" parent="0" />
        <mxCell id="sYSXW_4PjbRX8zPGR2Nb-1" value="" style="shape=image;verticalLabelPosition=bottom;labelBackgroundColor=default;verticalAlign=top;aspect=fixed;imageAspect=0;image=data:image/png,iVBORw0KGgoAAAANSUhEUgAAB4AAAAQYCAYAAADvf8R1AAAACXBIWXMAAAsTAAALEwEAmpwYAAAKTWlDQ1BQaG90b3Nob3AgSUNDIHByb2ZpbGUAAHjanVN3WJP3Fj7f92UPVkLY8LGXbIEAIiOsCMgQWaIQkgBhhBASQMWFiApWFBURnEhVxILVCkidiOKgKLhnQYqIWotVXDjuH9yntX167+3t+9f7vOec5/zOec8PgBESJpHmomoAOVKFPDrYH49PSMTJvYACFUjgBCAQ5svCZwXFAADwA3l4fnSwP/wBr28AAgBw1S4kEsfh/4O6UCZXACCRAOAiEucLAZBSAMguVMgUAMgYALBTs2QKAJQAAGx5fEIiAKoNAOz0ST4FANipk9wXANiiHKkIAI0BAJkoRyQCQLsAYFWBUiwCwMIAoKxAIi4EwK4BgFm2MkcCgL0FAHaOWJAPQGAAgJlCLMwAIDgCAEMeE80DIEwDoDDSv+CpX3CFuEgBAMDLlc2XS9IzFLiV0Bp38vDg4iHiwmyxQmEXKRBmCeQinJebIxNI5wNMzgwAABr50cH+OD+Q5+bk4eZm52zv9MWi/mvwbyI+IfHf/ryMAgQAEE7P79pf5eXWA3DHAbB1v2upWwDaVgBo3/ldM9sJoFoK0Hr5i3k4/EAenqFQyDwdHAoLC+0lYqG9MOOLPv8z4W/gi372/EAe/tt68ABxmkCZrcCjg/1xYW52rlKO58sEQjFu9+cj/seFf/2OKdHiNLFcLBWK8ViJuFAiTcd5uVKRRCHJleIS6X8y8R+W/QmTdw0ArIZPwE62B7XLbMB+7gECiw5Y0nYAQH7zLYwaC5EAEGc0Mnn3AACTv/mPQCsBAM2XpOMAALzoGFyolBdMxggAAESggSqwQQcMwRSswA6cwR28wBcCYQZEQAwkwDwQQgbkgBwKoRiWQRlUwDrYBLWwAxqgEZrhELTBMTgN5+ASXIHrcBcGYBiewhi8hgkEQcgIE2EhOogRYo7YIs4IF5mOBCJhSDSSgKQg6YgUUSLFyHKkAqlCapFdSCPyLXIUOY1cQPqQ28ggMor8irxHMZSBslED1AJ1QLmoHxqKxqBz0XQ0D12AlqJr0Rq0Hj2AtqKn0UvodXQAfYqOY4DRMQ5mjNlhXIyHRWCJWBomxxZj5Vg1Vo81Yx1YN3YVG8CeYe8IJAKLgBPsCF6EEMJsgpCQR1hMWEOoJewjtBK6CFcJg4Qxwicik6hPtCV6EvnEeGI6sZBYRqwm7iEeIZ4lXicOE1+TSCQOyZLkTgohJZAySQtJa0jbSC2kU6Q+0hBpnEwm65Btyd7kCLKArCCXkbeQD5BPkvvJw+S3FDrFiOJMCaIkUqSUEko1ZT/lBKWfMkKZoKpRzame1AiqiDqfWkltoHZQL1OHqRM0dZolzZsWQ8ukLaPV0JppZ2n3aC/pdLoJ3YMeRZfQl9Jr6Afp5+mD9HcMDYYNg8dIYigZaxl7GacYtxkvmUymBdOXmchUMNcyG5lnmA+Yb1VYKvYqfBWRyhKVOpVWlX6V56pUVXNVP9V5qgtUq1UPq15WfaZGVbNQ46kJ1Bar1akdVbupNq7OUndSj1DPUV+jvl/9gvpjDbKGhUaghkijVGO3xhmNIRbGMmXxWELWclYD6yxrmE1iW7L57Ex2Bfsbdi97TFNDc6pmrGaRZp3mcc0BDsax4PA52ZxKziHODc57LQMtPy2x1mqtZq1+rTfaetq+2mLtcu0W7eva73VwnUCdLJ31Om0693UJuja6UbqFutt1z+o+02PreekJ9cr1Dund0Uf1bfSj9Rfq79bv0R83MDQINpAZbDE4Y/DMkGPoa5hpuNHwhOGoEctoupHEaKPRSaMnuCbuh2fjNXgXPmasbxxirDTeZdxrPGFiaTLbpMSkxeS+Kc2Ua5pmutG003TMzMgs3KzYrMnsjjnVnGueYb7ZvNv8jYWlRZzFSos2i8eW2pZ8ywWWTZb3rJhWPlZ5VvVW16xJ1lzrLOtt1ldsUBtXmwybOpvLtqitm63Edptt3xTiFI8p0in1U27aMez87ArsmuwG7Tn2YfYl9m32zx3MHBId1jt0O3xydHXMdmxwvOuk4TTDqcSpw+lXZxtnoXOd8zUXpkuQyxKXdpcXU22niqdun3rLleUa7rrStdP1o5u7m9yt2W3U3cw9xX2r+00umxvJXcM970H08PdY4nHM452nm6fC85DnL152Xlle+70eT7OcJp7WMG3I28Rb4L3Le2A6Pj1l+s7pAz7GPgKfep+Hvqa+It89viN+1n6Zfgf8nvs7+sv9j/i/4XnyFvFOBWABwQHlAb2BGoGzA2sDHwSZBKUHNQWNBbsGLww+FUIMCQ1ZH3KTb8AX8hv5YzPcZyya0RXKCJ0VWhv6MMwmTB7WEY6GzwjfEH5vpvlM6cy2CIjgR2yIuB9pGZkX+X0UKSoyqi7qUbRTdHF09yzWrORZ+2e9jvGPqYy5O9tqtnJ2Z6xqbFJsY+ybuIC4qriBeIf4RfGXEnQTJAntieTE2MQ9ieNzAudsmjOc5JpUlnRjruXcorkX5unOy553PFk1WZB8OIWYEpeyP+WDIEJQLxhP5aduTR0T8oSbhU9FvqKNolGxt7hKPJLmnVaV9jjdO31D+miGT0Z1xjMJT1IreZEZkrkj801WRNberM/ZcdktOZSclJyjUg1plrQr1zC3KLdPZisrkw3keeZtyhuTh8r35CP5c/PbFWyFTNGjtFKuUA4WTC+oK3hbGFt4uEi9SFrUM99m/ur5IwuCFny9kLBQuLCz2Lh4WfHgIr9FuxYji1MXdy4xXVK6ZHhp8NJ9y2jLspb9UOJYUlXyannc8o5Sg9KlpUMrglc0lamUycturvRauWMVYZVkVe9ql9VbVn8qF5VfrHCsqK74sEa45uJXTl/VfPV5bdra3kq3yu3rSOuk626s91m/r0q9akHV0IbwDa0b8Y3lG19tSt50oXpq9Y7NtM3KzQM1YTXtW8y2rNvyoTaj9nqdf13LVv2tq7e+2Sba1r/dd3vzDoMdFTve75TsvLUreFdrvUV99W7S7oLdjxpiG7q/5n7duEd3T8Wej3ulewf2Re/ranRvbNyvv7+yCW1SNo0eSDpw5ZuAb9qb7Zp3tXBaKg7CQeXBJ9+mfHvjUOihzsPcw83fmX+39QjrSHkr0jq/dawto22gPaG97+iMo50dXh1Hvrf/fu8x42N1xzWPV56gnSg98fnkgpPjp2Snnp1OPz3Umdx590z8mWtdUV29Z0PPnj8XdO5Mt1/3yfPe549d8Lxw9CL3Ytslt0utPa49R35w/eFIr1tv62X3y+1XPK509E3rO9Hv03/6asDVc9f41y5dn3m978bsG7duJt0cuCW69fh29u0XdwruTNxdeo94r/y+2v3qB/oP6n+0/rFlwG3g+GDAYM/DWQ/vDgmHnv6U/9OH4dJHzEfVI0YjjY+dHx8bDRq98mTOk+GnsqcTz8p+Vv9563Or59/94vtLz1j82PAL+YvPv655qfNy76uprzrHI8cfvM55PfGm/K3O233vuO+638e9H5ko/ED+UPPR+mPHp9BP9z7nfP78L/eE8/sl0p8zAAAAIGNIUk0AAHolAACAgwAA+f8AAIDpAAB1MAAA6mAAADqYAAAXb5JfxUYAAbZqSURBVHja7N15nBXVnf//V1XdpfcGmgZsoFEWIztEFsExAUGFxC2T5EuMAgqTTDQznXFpNYsm0UmiQTQhk5hNI+ASfhkncUlARdGoKIuyg1HA2CwCTQO9912q6vfHXfre27c3aJZu38/HQ+m+VbeWc6tuQb3rc46x+6P9Lu1gYODgYgAuLgYGInJ6xM5BFzAMA1xX565IFzt3M/w+srMz8Xk9eL0eLNNUA4qcJrbjEAqFCYbC1NTWEwgE1SgiIiIiIiIiInLGMdoTACs0EjnDuZDuFNW5K9I5z93u3XLplpej9hE5Qx2rrOFoZbUaQkREREREREREzijtKiNSgCRyhouU9+rcFekC525Rn54Kf0XOcN3ycyjq3VMNISIiIiIiIiIiZ5Q2BsCuWkqkszAiFb86d0U677nbPT8Hv8+rNhHpBPx+L93yO/ZhDVd/KxcRERERERERkRPQagBsJPxfRDoHAyMyrqjOXZFOd+76/T665eeqMUQ6ke75ufg68KEN4ziniYiIiIiIiIiIQBsCYMdVnYFIZ+Q4jhpBpBPKzc5UI4h0xnM3J0uNICIiIiIiIiIiZwRTTSAiInLm8Ho9agSRTsjnOc5ztyOetdTzmiIiIiIiIiIikqD1ANhQR3MindH2bdvUCCKdkMdjqRFEOqHjfnijI/6qrb+ui4iIiIiIiIhIgjaOASwinc17/3hPjSDSCXksBcAinZFltbNjnZNRtatKYBERERERERERATq8n0nXdTAMEw7sAdOEXn0bX2ucK/qnAeUfg+tCr6I084mIiEhrXjoIt78Pm6vBNQELXNMFi8ijXhYYXgNMMCz4dD480Bs+m622EzltjE6yTBERERERERGRM9DAAUUtTt/90f4zansvunACv/ntowwbPiLt9O3btvLvX5/H62+u7ZD1dXgAbDiRG87ma38D18b5yk0QfS0S/EbuTLm2g2FZmK/8BRrqcebekjCfiJxOYdvhn8dcdlU4uK6NgQG4hB347EAfOX49qCFypnjxIPy/d6DSbOzWI6kI0DDAcHEdiD1jtT4MX9wHf+kH/5KlNhQREREREREREZHOp7mQt7Vw+HT4zW8f5d+/Pi9tCBwLf3/z20c7bH0dHgBjWWDbmBveAMuL8/8cME1cFwwjEiK5roER7eLS2LwWcCI/q9tLkdPKcVxM02DdnhD/OOxQEzRoCIYByPCahB0XlyCXD80gbDt4LAXBIqfbbZuh0gGvDbYV6VQjIlYKGHn4yjQi5ziWgTcAFVnw7XJ4fYDaUDqHo088RtVzfybwjx0A+D81lO7XziXvin/t0vv945/8CMMw+Pad39FBICIiIiIiInIGGv/pkax7d8sJzyNtkxjupgt6z7TK35hhw0ekDYETw9/mqoOPx8lJbw6UYZQfgI8/gj27MAwDA5fYTWgjVpv0cRnmoX14DuyDj95v+/K3L2bhykORn8tfYuHc2cxJ/W/JtmbefIjX7p3NU9s7frePrfxhC+sVObO5LpimwbYDId76KIjfgqDtYrsQdiDkGnyql4ct+0Ns2h/EY5kJQVMblL/Mgsd2xH7h9XvSnLdzZzNn7h/YGX/TDh5P/L38ZRbc8zLHYn82t64df2BOfF0py2h2m1LWcRxtuPOx2cxJem+adadbp8gJ2FoJRgjCNjhBB8N1Ir/Ysf8ivzthF8M0wIWwC2YQNgXUfu38Cw5/u+k/+dsBtcSp5FRX8dFXrqJ+/Rp63fYdzt3wPudueJ9et32Hymee5qOvXIVTXdVl9/+9995jxw5dN0RERERERETOVP/zq99yzawvNjv9q1/5Er/45W/UUB1o90f70/53pksMgbdv23rSwl84GRXAgLnhTbItF8c1qNnxLs6AIWCHI9XBuLi2jWF5MNe9ShYOhgmhretxBpx7fCucdidL5gxv/L38JRYub27mXnz2i9OZ8/RLzBx2Cd10npwi23hq7v9S9MD3+Wxh592Lj/58G6/3/S7XTeh+UpZ/y603c9555/H1r/170uu//d1veO+993hw4UMnbd8MAz6ucnjjwxCBMHTPNOnX3cC2I0Gv12MQDLuEHIPVH4UozPZQlG/ium60ur8VhdP4WvEPeHzHD7huaCEX3b2Ui1p7z463+Xju5QyO/rrzr49x1peX0q0QSr/8Bxa8Uk7pxbEDqpzX73mes+6+IT5/bBkvTr2A69raEIXT+ELxbH73yqiEZceWfwu/29X8Wy+9cylLrm/8/dgry/h47jeTt6dwFBeU3cKCVx5MWb50Zqf73HVsl37ZDvcONxiSDSEXsj0mLi4BFxpc+P0hh//vmIHhNcF2cEwTuz2PgW38GRfd/Hz0l8v59ar/InLl3cSiqbfyJwCG8u2nfsHn+kTmqnj2P7n6oYTgaui3+MuvrqAA4MBz3HrNz4mNaPHlh1ZSMiY2Y+IyYcLNj7PwyuhCOcDfbrqOn8QWe8VCXr9ldMKGJr83vtyU9SVva2vLbIfU9STuc7QNk/cn4Ur54HS+8Vxi2wrAnn+7ju7XXk/muAmUP/BjPv7+nQBkfGoofe65n6pn/489X5vNgD8+0+5lf/maaxk7ZjTfueP2pNd/fP9P2bBxE3966gl9ACIiIiIiIiLSookXTOLzn7+Cu+/6Dvfc++OkaXff9R0+97nLuWDSZDWUAMkhMHBSwl84SQGwu2EdQTtSZeSueR1mzAKPNz7d8ETvOG/bSMg2Ir1Urn87Ml8r3UB/sGQ2974MsJI5S6dz1wNF8PJ9zHk5ZcZpd6bM31TJ3CVN3pMUJEuHObbyf1k+7UssORPzru2LmfN0EYvuauWBgIrXWLn6Qi5d0P2kbcrYT3+al158ESAeJP32d7/hjTfe4JJLLz3pTfHeoTAf1zhkewx6ZMKEAb6k6Zv3B/FacKTOYcehIEX5GbjREYLbotvF32TAPX9gZ2pIm1Y5r68p5mvXw+v3/AC+fBFvr4Itq2bzYnyeV5izGJj6HZZc3zP9Mv70Cux6hTmrEl6eehNfK/tVPMyds+piLp36Ci8mzsMtkWUTCXZTQ+udj83mnrLrWXT3tGaOmx08v3gAX1hcGKlIvu+V5Mm7Gpc/cq7C4M7udJ+7OA4PjjT4cj+TWG8bH9a5WAYUZxqAwWe7uWzZZIPlcv8Ak+8cdNjd1gR448+46LeD+MuqlZEgM+4Af7vpVj66+XFev7JPZL5rfsaAaIB5YOeOZsLOTSy65ucMeGglC8dEl3/zz5gWfd+2B3/P4KdW8nqf6LxTr2NRcSTI3fbgdfxk8EJe/9VoYmHvootj4fEmFk1NfG/ipu5ibWIYm6DlZbbDxp9x0c27+PZTK1kYz6uf49YHN7EwFigPHQoP/ZFtV6aEvAee49GdQ5nQAYfDtgen8+jg9CFzZ3P0icfwFvUlc9yEaKVvdXxazf591K1fw4A/PkPd+jVUPft/5F3Zvu6g/+XCyfzv038GiIfAP77/pyxf8SJf+uIX9OUmIiIiIiIiIm1y3Zzrufuu7/D4kse4bs71ADy+5LH4tDNRW8fJ7QyVtdJUhwfAnpqP6J61E6MvuBZk8T6Vv/sBtuPDMCL9xbqugddrkxfcBgPAsCEr830qa3YTyh/S4vKHzFnKknGLWbh/JrdO7wXlL7VYATxkzlKWzNEHfXodYtNbO5n5xc4drldtW8t7k69m/klcx+xrZ1NXW8cbb7wRf+2NN97gwgv/hdnXzj7p++j1uJi4eL0Gqz4Ms+VgGNc1cF0XjwUf1wAumAbx8X+Ndq2hkIvuviHSVfKqFmab+h2WTHybjybewEU7/sBHX/4mA/50C1sGxQLXcl6/55dw4w+4KJ6bljdZzLFXfsnvir/DkruHplnJJC4qf5kFfy2i9Pqh7HzsFbhzKdcNTV3GD3g+8YVomNu02vcHlCwewN2LI+H2sVeWwZ0/YHD5yyy4D+5evDTy821lfGFxWwJw6UxO57nr2C4ZHpfReQZh18UE7vlHmL8dtOmbBfee52VojonPhHO9Djf0sbgiH+4/6EYHDG7tLD7A3367i2/f/V9NglMOrOPlHZcz71fRoHHMV/j20Ot4eeN/MXxM5KUBxc2FkJczLToPY6byZX7PRwdgeB8YfssvEsLR0Uy7Ah4tOwBjIsv68sWj006rePb3fHTzdylpbpWDi5vuQ1Rzy2yzA89x6827kiqgAehzBQtvSZzxUqZd8XMeffYrSQFtxdoXYcalDNixSydU4rX32f+jV+l3KV/wo6TwN378V1dTvuBH9PxGCYce+HG7A+Bv/cc3qampZfmKxkeLlq94kRmXXcq3/uOb+gBEREREREREpM3uuffHXDPriww591MA/PWvz/HUsqfP2O1VsHt6JHb7DHSeLqCzj7xCzvg63A0mhMMYXhfPztepKzexPJEA2Akb5PRy8J0VwrENDMuDMSZEsHZdqwFwo3Jeu3c5Rd9ouQK40SFeu/dW9n9xKdcMi7xybOUPKdn/peOv+i1/iYW3LWFT0noTP8XFzLl/ZfSXwcx/4Pt8tnwxc+6HuxbPJbanHyyZzb20o/q4/CUW3rafK++Ae2PLj4fgLe9n7Oe7uC9aGT2duxbPZP+9t/LIzoTtLEy3D9Oj272Np+bex/7ZC+Mh/MLbllB0R+M6k7d3E+uZw/xhzR3tCesYPIf5A5awviiy7BPb3uRpSdXgg+ew6K5LYOUPKVkaGaG1ZO4SRsf2Kc3xtnU9fPn6dMfnx2z60za6Tx3M0c27qMvMpNfg8xmUdZSPDgfIzMokM7cHuRltO93+/euR6sE33ngdMLjwwn+Jv3bSuQCR6v1g2KU+FAmUcF28DtQHISNazO9EBwB221gDvPOx2dyzimi1biw83cHjc5cx4IHEIDc2/495cdUrvDj1OyyZ+DwL/uV6Ll38GCVzH2uc6bbZ/I5YBW3KCsuW8buyi1h099BIOPvGRS1U68Lg65cyOGF7Rm6JBbo/iHcfHQl5I+HMi/clViJH92txLD3ewfOLd/EikXkuvTMa/j4MX1t8Q2QbYr+3sE3SuZy2c9cwMFwIOS4WBlurHN6ucLh/mJfnym0ONLiMyDVwXXAdF4/hYgO269KmYbwPrONlLmXak9O56LnIS/Gq3gO7WHvFVBbGZ+7DgMHwctkBGAMf7YQ/PTc92h1zYtfGo7n25t/z42cPRJazcRV/uuLfmlbtArCJl5+DAQ9FJg7/6rd49J7nqPjVFRSwiZefu5x5q/oAB1izAqbN+CMXTY0+tpFQ8VtRtgueez6+D4ldTje/zLarWPsia6/4t8bK3xZMvPhyfvLbdVRcGatG3sQTDw1i3qpiXn4oMQBuoWvqtF1oJ85/HRc9NLRpIN3JBN5/j8xxE9l3843NztMQnSfwj+MbJ/e7d0Yqf5eveAEwmHHZpfHXTrUf/+RHvPfee2mnzZmb/DDJ0KFD+fad39GXr4iIiIiIiMgZ5KllT3P+mOGAwTsbt6pBToO2VjafDunG/I11B93RIXCHB8CZh96CLAt7APAPE9NwcfMt6ioAJ9rds2mQkWvicWycoIFxnoGZYZGz929UFX21lTUc4rWnV7Jp5z8Z98D3GVIIty6+pOW3xIPawcxPCJm6FZ0NS+9jzsspIWKC5sPZbTwVDT1vHRbdrntv5ZHEdT5dxKLFS6Nhz0ssvG0xRYtnMn/wrazfPpchwyLLWf/yYOY/MLzpft57K+snNRdIruTe9XeyZPHc6LL/l9dmDm/b+Lov38f6OyKV0R8smc29c//J/AeWsqQwGhb/+iVG33UJ3djGU+vHRdYRbYtnV87k1unDueaBOSy8bTkfTJ8Ly1sIf4EPli+BSQvTh1zlL7Hw/sj6P1sYaydg9nFsb7NtPpfClT/k2aKFLFkcactjK39IyZIilsz5PkuK2tAF9I4XeJIJ/LhHczNUsPkfg7nk4mn4Gz5m13vbeK/PpzhvQB8gSEN1A7YvB6uNva1GhtQ1Ih25Gqf2C8gwIOy4jD7Ly7A+HuywCwZ4LIN/lNu8uz+ICZjx0LdtGzj4+qUs+fzLLPhr42uxMXKvK4wExG9PbKzAjcxfzrHCQmAopUN38Pgb7agALp5F6fXRhV38A5aMfJkFc2dDanfLq37MnFWDuHQqvLgqEvgOjr3n4h08Pnc2b0crg7td/AOWJATNOx+bzT1Eup8+Vp548g3lusVLufyVH/A7vsl1Q3fw+NzH2ALJATZQ8lgRS64fqqtyF3Fazl039r/ICr2GQciFOhdePeJyLOwwvTA2T+IDG23cwAO7WLvjeQZ8fSWv30I0ePwRf5vwCyaW7QKmNvPGPnzuVyv5XOxb8tn/5OqbnkvqgnntQ9dxUXR45Ak3fyXdyvnbTbfypysW8vqYxO/kn3P11J9HT7dvcS0AB9m5Ywd/GvxvvL7qv4iFpz9+djwLr+xDwZW/4PUrY4t9jluv+U/+lhiOpl3mCUgcMzm16+kxX+HbXMcTG6+gZAxUPPt7/nTFv1ECJD7Ptu3B69j59ZXxfd/24HRuffZxFl55kEXX7GLeqpXR8H0Ti6ZG9+dXKxnQhbqAbts54HbOc/eEd9tFRERERERERM4872zcpkY4jc7UyuZ04S8kjwnckSFwx48BbITBcTB6A3UW7Anj84fweD0E620MDLxZJv6MMATA6G9BbwcDl7bUIr1278MwaTqjJ83ks7zEwrkpFbiJBs9h0Rf3U3I/3LV4KbeWv8TCxHAzFjzSGBQOafMntZ7lg+ewKB569mL0pMEQPa6ObVrNpp07U8YZHsy48sh8jzz9EjOHXQLHPTbudO6KhdKFoxk3eAn7y4G2LGfanfGwdsi46fBREaOj7+tWdHbCjMO5Zs4hXrt3drTaFphWDvSCwkuYP/uHlMydHak+bq66Nxpwj3ugV9qpxzatZtO0L3FrbLsLL+HKaUt49ji2t/k2P8T+t3ayaeetzFmaOGk/xxjepurLXe++wvBxPyWv2TkKGDX2bPwAGd3plvUxdm52dJqFabb9k42NG3rhhf8CEO9SNjau6KnguNA332RwQfJXRCDssmE/uIYBxoneeN7B829cxNfujnyYg6//Dm/P/QM7Y90jl7/MgtsioSmDrmfR3UWwq6UK4Ej30gAMvYElqZlq4TRKF8dK9Mt5/Z5bImMAT/1OJIDd8QdeXPUK98xNGauXi0nuQXoHj8/9cbyyN7aew3+dTUnimMA7/kBJ2SyWXF8IFHLd4qVct+MPzFlzAUuuh8fnvs0Fi2+g5ys/YMEr39QYwF3AaTt3DRfHMPCYBg7wqVyDK/qY/Pf7YXr7Df6tv4ew6+IxDDAM6hwXC7CMdnThPvRbXDsm+nOfK5h3xc95dO0BPlc8CHa2bREFV/4bX37o96w5cAWf4zl+/BB8+6mV0QA2eZxfIF7hSmx84ciL/O2e5Ne2PTidqx8sjoTTDOXbX4115dyHz309tdI2zT5cSQvLHH38n8uY/4oE0Rt/xkW/TZ3Yh4kzhvKT3z7Htb8q5omH4NtPRcYfbhSpfG6soI664mCkYprn+dPUpA7q+fIBoItlvv5zz6N+/Rqyxk2k5tWX086T8amh1Kx6Cf+55x3XOmJj/s64LDJed6w76NiYwKfSd7793SavxSp/lyxeqi9aERERERERERHO7Crf5rQU8CaGwK+/ubZD1tfhAfDB0b+gx+5fkndsOXZxCKfGj1UVxJ/nEqw3ARdfjovpuoQLvFgDQpgeg+r8yzgy8KZWl//Zu74P2xezfj9QeElS9e+xlT9kedH3m1SiLlkc/aHwEuZPilR+3kWkC+NrCgEu4dbF6dc3ZM5SlhxvY0xrplvn6V9i5tL/ZVP5aHgL5n8jXdfPvfjsXUv57Gk8GI+t/CElS0mutt3f3mUcb8DdkW1+iNeAmS1UKbeo/CWeW3UxV/2+50nf/KVPLI0HSIldx77xxhtkZmWdknGAMcDAIGxHiqocF3BdTNMgaEMky3bjBVfHWyh17JW3GXBjpDvkePfQwIuPXcCS64dybMvrbImFswDsiAbBzVUAEx+ftyWX3rmU64YWctHdS6NjAEcnDL2BJYsjAXJqNXJM4nZCmm6geYySua/ztQd+wFlrXoFVr0TGOh7UGAyPLO4JHI6/o9vFP6BU1+tO73Seu6ZpEAgZvH3M5VN5kevsfw328m8DXDIs8JiRs7TadtkeMLi9zKHeMDnitHEFfQYxoaXpO8uoYHQ0YD3ARzthwMUtp5BNu0tOGXd348+46Gb49aqVJH2jp445DAy/+HL4bRkVjGfw8RTTt7jM0c2OGZyqYMKlTHhoFdtuGU1bBnSIB+LPDuJPQy/lL2mbrJkunDeualpV3EXlXfmvHH1yMYWl36Vu/Rqcmprk4z8nh8LS73Lg7jvofu317V7+z//nl/HwN7Hb5+UrXiQ7O1vjAIuIiIiIiIiInGE669jFrQW7w4aP6LDwF2JZTgdyPdlUnHs7B4tvx/Xn4DkviJvhJSPLxTBcDNMgMxecDC/eT4Vx/DkcKr6Dw+feiePJa/8Ky19i4ZLGcvrl989mztzIf09tbzp7t+lfYubL93HvR3OYP73X8e9oYRGjdy5heXwd21i+tLEMqtvoyYx++X95rbxx+lPx7RzOuGk7Wf/rh3mEyfFq1o7Ri6IBsHz9trTb1a6m3b8Tpn0p2q10ynLKX+KRpWdz1+KFzP/ovrRtDYfY9NZOZo5r/lZ4t6KzIbGdyl/i2ZePb8+bb/NI1fXyp1/iWGzS9sXNbHNTxzatZsvU8znnFHwBvPvOO00CpH//+r9z4YX/wrvvvHPS1x92ImP/BsMOthPpBjPxP8dxaQhDyDYSxgA+Hjt4fvEr/O62yLn69sSlLFkc+e9ulvF6ebS75evh8ej5/Hgbh3YcOfdBlix+kK8NGsTXHljKkgeuZ+Sg61m0eCmL5g46ofYZfH3jdi5ZnLzsxte/ycjEeR+4npG7yjgM7FzzCmedlXLCl7/Mgsd2IJ3b6Tx3XQDL4LZNDg/usllx0OG5g2HeqnR4+YjNX8vD/F+5zf/bHmZn0OKfrpe5/3TZETIjZcCt6TOeafycHz97IPL7ged49LmhTJvQJ9qV8c95YmN03o1/5CfEqoUPUHGgcTHbHryVPw29lIl9omHpc7/nb/Hp0XF+iyNj+f7tt8/z5Yf+q2mQ2mc804Y+z6PPNi542yvPw+BiCujDxBnwk3ueoyKyofztt88zYcb4yBjABxI2ZuPP+EZsH1pcZjv0uYJ5VzzPN6b+jLZ18jOaa2+Gnzz0PF/+erogdzTTrtjBT55srAquePZnkTYbM5Uv70hodw7wtwdj+921dL/2ekL79lLz6ssMWPYsOVOm4TmrCM9ZReRMmcaAZc9S9ez/4VRXk3flv7b/L95vvNkk/P3unbcz47JLef2NN/XlJiIiIiIiIiIinVLHdwGNC65LXZ+ZBHPOo+dHD5E5bAu+dy0sv4nruPgzHKxhNg3dh1F+9m2Ec88B1yFSetieesJDvPbrJWzaCQuLFjKfFqo8E8cBfmApS3iJhXNns6m5Kt3WFF7CrXfsZ879s1kOwHTmz27sAjo+/bbZ0XGBp3NXdCxdgCEz58BtS5h5x/fb1AVxewyZOYfRt93HnJfTbFdHLCfalkV3LGUIMOSL05lz/w8pSh1HuXwT63dO58qWqm6HzWXR7B9SEmunwXOYPw3WH8+Ot9Dm3aZ/n7v2z27sHnranSyZE9uGccy8/z5K5i5h9OzUMZcjIfZlXzo1Y7Q+9ODP0r6eGCqdTPl+g+JuFj4L8jIi56IR/x9keQ36d7cwgTx/wvS2SOjSeUHxg5QuXsp1aWYbfH1kDN5Ite3F3B2fbwePN9MFdGKF7ckV7Tqa1PVFu4WObUdhwv4Oup5Fi2+AV35ACd9p2jX14TK20Pm6q5Az59w1ACyTCtvg1o02htfFNQHTJdLXsxsJer0mRoYFFhhW5E+rTSdwHz73q4XsnNo4Xu+XH4p13dyHz939LW69ZjoXAXA5v17VGGauuWc6P4k935BYsdrnChY+tIuLrpnOT2hcZqT754Ps3AF/ujm16+OFvH7L6CbbEnsdoODKX/DrndMbx/K9YmFj99Frf8RFD8U3JqGytk+Ly2yP4bes5PWLf8ZFU6cnvf7lh1amDZMLJlzKBAYxbUxzy3ucb990HRdFh1mecPPj0arp0ZQ8ldjukf2JrWP4xZez9ubruOihZiqIO5n+v3+cPf92HTWrXqLnN0rIPD9Sk16/fg0Hvn8nTlUV/X//+HEt+3//+GTa1xMDYRERERERERERkc7G2P3RfrdjF+kCBrg2GBY4Nt33/pZu7/yRY69ZOC70mGJz9NOzONrv6xiWp3He2Htb8MGS2dz7MoyePYeipUsgGvhGuitOqXSddid3cR/3vkxkPOC7LmkaEG1fzJz7VwKkCf/kRHywZDbPFrW3TQ/x2r23sv+Lx9ldc0fbvpg5Txfxi7suIb+Ttf/TT/8vX/zil86Y7dn52A/4+PORLptTu1JuIqnr55gdPH7Pfi5PG/QmjOnbFoOu55bix3hwVXT84LOeb7nr6KnfYVHxMkoWw9ce+AEXHU7oajpxW6OhL3Nv4qzF73HB4hsYHN22t//lwaRxfhPbINIttb4zJOKc4rPaNf/olbA5AF4HHAtsw8XwGLjxABgMy8D0NE7zeCCUDRdZ8PcBavO2O8DfbvoR3N35Q9XOqOrZ/+PoE48ReP89IDI+cPdrrz+uyt+T5cOyjzt8mT/+yY+A9OMDi4iIiIiIiIiIpHMSAmBoDIGjfchikFmzjpw//gycMDXX3Ex97gXRWR0wTNoS/kpnso2n5v5v06rgdPMtgWtiVdjbFzPnfrhr8VyGnAF7cXwh9pnhTAuARaRt2hsAv3QQ/t+7cMwA0wHXBNciMsiDRVIVsGGC4QEnGwqAZ/rBhVlq87ZTACwtOxkBsIiIiIiIiIiISHudnC6gY0GuER1i2LWpzxlP4KsPYjgOds5Z0apfs3Eehb9dzHCuWTy8bfONW8ycufdFfx/M/Ae+f0aEvwBD5izlVn2YInIGu6Q3/Ol8uP0fsKkqchk2ANd1I5dkt/G12EgLEyx4oI/CXxEREREREREREZGu6CRVAIvI6aYKYJHOqb0VwCJy5mhPBfDJ6PtG/emIiIiIiIiIiAhEOohsnu4giXRuOodFOhXLMtUIIp+Qc/hkXKJ12RcREREREREREWglANZNJJHOa9jQYWoEkU7G7/OqEUQ6Md9xnMMd0RWPuvMREREREREREZFELQbAru4miXRaQ4cNw9A5LNKp+BQAi3Rqfm/7z+GOeOBSD22KiIiIiIiIiEiilvupU3gk0qnpIQ6RzsMwDHKzs9QQIp1Ybo7OYREREREREREROf2aDYBdXJUTiHR2BnqQQ6ST6Jafg8djqSFEOjGPx6J7fq4aQkRERERERERETqv0AbBhYCj9FekaDPQwh8gZzu/30S0vRw0h0gV0y8/B71d37iIiIiIiIiIicvo0DYAN1G+sSFfjooc6RM5Q3fJzKOpdoIYQ6UKKevfUQx0iIiIiIiIiInLaeAzANQAMcBxUKijSNbm4uK6LaZqRLt71nIfIaWGZJl6fB5/XS05WBn6/T40i0gV175ZLZqaf2roGgqEQwWAYx3HUMCIiIiIiIiIictIZrqtyXxERERERERERERERERGRrsBUE4iIiIiIiIiIiIiIiIiIdA0KgEVEREREREREREREREREuggFwCIiIiIiIiIiIiIiIiIiXYRHTdD12LZNKGxjOzaO46JhnkVERERERERERERERORMYBgGpmlgmRZej4VlWWqUjm5jV+lglxEMhQkEgwp8RUREREREREREREREpFMwDAO/z4fPq7rVDmtTBcCdXygcJhAI4pzqj9J1wTD0AYiIiIiIiIiIiIiISMdQ9vCJZRoGfr8Pr0dB8IlSANzJhcJh6hsCp+ELGND3r4iIiIiIiIiIiIiIdDRlEJ9oWRkZeDwd3y2047jU1NZR3xAkGAwRtm0APJaFz+clOyuDrMwMTLPzH3wKgDuxcNimrqFBDSEiIiIiIiIiIiIiIiJdRmaGv8MqgR3Hpaq6lsqqmlZ70zUNg/y8HPJyszt1EKwAuJNyHIeauno1hIiIiIiIiIiIiIiIiHQ5OVmZmKZ5QstwHJePDx4mGAq3630+r4ezevfstCGwqcOnc1Llr4iIiIiIiIiIiIiIiJyp6urqqKurO/73n+AQqI7jsmffwXaHvwDBUJg9+w7iOJ2zjtZzMj7M+xY8BMA93//uadmpt9euAxfO//QYvF7vKTuIX1y5inc3bKRsz14Aivv347xPncvVV36erKwsAH736GK+Nm/uCa0rGAp32gNORERERERERERERERETq29e/cB0K9f31O2zq1btgIwYeKE43q/4zgEQ2F8Xs9xvDdS+eucQEfIjhtZRmesBO7QADgW/pbt2Uv/U3gApVNdU8M77248JSHw62++xVN//BN19cldMpft2UvZnr288eZbXPOVL/PeP97nzdVvn3AAHAgGjvvzWfHCS2zZsg2AkSOH869fuErfesLhZ25i2ooZvPzwlfRsw/yHVi3kwXfO55bbptALgG0suWMp22MzDJvNfXOHJ8+/ojw2kdn3z6Fxasp7081z6FUWLlxBbAmFM27h1qm9GmfftoQ7lyQsIWX9cIhXH3iQFY0LSNj2tszTAdsoIiIiIiIiIiIiIl3Wk08+ybq165q8/tDPHuJ/fvFLdu3a2eT1U6m+oZ4/PPIoN33zm6csBH7hhRWAcdwBMEAgGDyuALiyuqbZyt/6+gZeenU129/7AIDzx4zgkqkXpp03GApTWV1D9/zcDm+fPz/zPM8891euuuLzfOGqyzt02R0WAKeGv9++/ZbTdpKdP3YM72zYSHX1yQ+BX3/zLR75wxIALpx8AZdNv5ji4v4AlJXt4YWVr/Dm6rfj85yoUDjM8T6ssPyFF9m392P+45vfAOCJJ5fx9J//whe/cHXX+pbdvIDR18HSzaWM6qpXktO6j9tYsaKcYXOSw1Hm3Md9w5vOHQl/C5l9/60MB7YtvpOlD7yaEsAWMuPWW5nSK/36lixcATNu4b6pvaJB64Ms6XUfc4ZHpy+B2fffFw1jI9tz5+LGEHjb4gdZwQxuuX8KvaJB74OLCxNC4shr75wfXUdaJ7KNIiIiIiIiIiIiItKVrVu7jquvvpqiNOHq1V+4mvqGetatXZs2JD5VMjMz+MOjj3DDvPknPQT+YOdOjhw5Gv95yODBx7Uc13UJhcN4PW2PNB3HpaqqttnpK1e9yZtvv5P0e0N9A1d8blra+auqasnPzenwKuBnnvtr/M8zMgBOF/7Gujw+Hbxe7ykJgevq6njqj38CYP4Nc7jowklJ04uL+/O1eXM5fLiCf7z/QYesMxy2j/u9a9eu5/bbbqGgoAcA1351Fr/45cNdLwCWk2vbO2xnGLOjwea2xUspn3ELt6YNOmNh8a3xStnhM2dQuPAdth+aQq9e7VhfLJjtNYUZw1awdP02GD4cGM6c+xNXPpw5c4Zx55J32MZwhrONd7aTEFj3YsrMYayIT4dDq5ayonB2C+HviW6jiIiIiIiIiIiIiJxM3/n2d6hP6ak11a233Ua/fn3Zu3ffSQlAi/r1TRt09uvXl7VrIuHv+AnjT1kI/MHOnaxfu44tW7ZQX1/PoEGDufoLV5+SEHjd2rX0LSqK/3y8ATCAbdvtCoCra+ta7Pp5/catTV7b9o+dzQbAjutSV99ATnZmh7bRVVd8Pl4B3NHME13AmRb+xsRC4NzcnHh30KFQqEPX8cJLr1BXX8+Fky9oEv7G/O7RxR0W/kYOMue431tf3xAPfwEKCnrEn744XpvvH8PoUdH/bnyWzc/cxOgbn+UwAId55sYx3PjMZp65sXG+n24GDj/LjbH3jbqJZw4nL/fwMzc1LnfUAjbTtumb7x/D6OueAJ5gdnSbDjfZ6AWR97SwDZvvH8Po+zc3XWd8eZv56agx/HRz5M+kZWxe0MK2J86fvI5IWybOH503ZTta3MekfYq2ddJOtDK9xW2Pfgmu3w7Dzo9X276zvZDzhzcTnB4qp5xCigsTXus1jPMLy3ln26GEeVpQWExh2pcL23iUpqy/yXIPsf2dcoaNayGoPenbKCIiIiIiIiIiIiInorXwFyLdIO/du49f/fKXp3Tb1q5Zy1NPPcU111zD+AkTOnz5N//XzU1eW7F8BX988kkGDRrE9+76Hg/97CH+4z8j3T9f/YWr+dUvfxkfF7gj7N27j507d7Jz505eWLGCdWvX8ZnPfpbPfPazrFu7jtde+3t8envXazvty8YaGoLt3n63le53a+saOvxz+8JVl/PY7x/u8OpfOMEK4DM1/I052ZXA727YCMBl0y9OO/13jy7mzdVvd+g+Oc7x9f98/08XAlDyX7c1mfbTBQ9ye2n7u+zefP8YZj9xbWM3xJsXMPq61XDhjKT5Vt/1a2a8spFNPaNjzV43hie4lqWbN/JwbDl3PcuF0fFnN98/htn/vIeXN/+KnkTfc+Oz8fFpW5o+6o6NbJrZlu6Rn2D2Xffw8uaN9OQwz9w4nbsTtqGtnrjuBZZu3sjtse26eAx3X5i83Nn3X8amO0ZF2+wFZkTnjwS8c7jxvJU8fFVPRt2xhGufmMPDz9zAw1f15PAzv+aJC+/h5TuS96LZfdy8gNHXfcg9r2zk4Z5Ewt6Lb+KZV37FVfHf7+acxzfycPRNm595lsOjroz88ubdTDt7CZs2l8a3LXHbATj0Kiu2FzIjVu4bDXjPL1/CnQtjI+QmdJVcXkY5hRS2Wljbwjy9pjB7xkKWrjrE8Gj3yivKZzB7bnNvOMSry7fDsNnRkLoXU+bMYOGSVzk0PNoF9PJyZsyZE60ILqesvJBiXmXhHY1j+A6bk9p9c0duo4iIiIiIiIiIiIicavv37uOFF15oU1jcURLD3wkTJ7B37z4GDRp8Utf52quvsXXLFm697ba0ud3IkaPYMnIrf/nzX/iP//zmCa2rouIIf3jkEfbt35/0+qBBgxkxckTk57WD+cuf/5w0vW9RETfMn59UuNgct53ZWDDYckHov1wwjpWvvpn02rgxI1t8Tzgc7lTH+gkFwD/56YPsiab0e/bu46aSW1t9T3H/ftzz/e92yMa/vXYd1dU1bZ4/Vgl8wcTxHbL+2L7HxvxN9bV5c/navLkd+oG5xzkA8L79Hzc7be++/cexxM2seAKufTwhgBxVytJrn2D2P1NmvfYbkQAS6HnVN7j2rtV8eO8N8feNmnktXPcP9gM9Dz/Lw09M5p5XGoPYyHt+zZuHr+QqWpne5vR2MvfcG1tGT6668Vrujm1DO1phcuJ+zL+HyU/czTk3Ni73whmTYcU/OcwoegKj7ihNePcoZlwLs9/bT2TDR3H749cy+ro/sPmqy1hxF0n72bLDPPPwE0y+d2VjG/S8khuvvZuH3zzMVVf1ZPMjd7P62iXx8Bdg1FVXRt8NcC1L42HvKObdO5knErYd4NC2dygvPJ9hsVyzvIxytrN0/Wzuu38OEB3jd+ESCu+fQ5s6P44t4447oy80HWu3vKyc8u0PcueK2CvDKAfSxavbFj/IivJCZiSmt+VllJdv58E74gtgWGwBh8opp5zty+GW+++LvLRqIQ8uWcirSUF2x22jiIiIiIiIiIiIiJx6f/nLX07p+lLDX4h0B32ioWtLKiqO8MILL/C9u77XbNHm2jVr2bplKzd988S3o6CgBzf9xzf51f/8kn379zNjxmVcNiO5UDC2vyuWr+CFF16gb1ERN/3HN9tcVOq0MxsL2y0Pp3rJxRfS0NDA1vciPfiOGzOSSy6+sMX3BEMdHwD/+Znn411An5FjALfH8QaYHcZAOsLmFyJVvCkltkXnTYZ/Jr82+byiJm8/55xmYs39/2A1q1l98RjuTpl07X6AVqa3Ob09h3N6nngzNN2PyXyqqKV3RKuNEx8suTbh51GlLL12DLNHPQHXLmFTm7dxP/94E1a/OZ3Rd6VpmKv2RwP75muiufBTtLjp0a6SC88flhJqDmP23Mawdfjc2Qy7YynvbKNtAfDwOdx3f8JaVi3kwYULIRqwHlq1kKXbEwPXbSy5YylLF2/jvrmJa4i8vj01nD30KguXbKdwxi3cGh2jd9viO1m6ZAnb4iF1ITPiYwRDr6mzmfHOg7yz7RBTevXqwG0UERERERERERERkU+CdOEvRMbl/dX//JKHfvbQSVnvCy+s4Oqrr6a+voF169azdctmdu7cBUSqcidMGM9f/vIXbvrmNztsDOCsrCxuu72UJ598khUrXuDIkaNc89VrkuZ58skn42Mgf/WrXz3tn8/0qRcyfOi5AJzV5/QM5/jMc3+N/3lGBcDfvv2WeBVwcf9+3Fl68yntAvqCCa1X8oZCId55dyPVNTXk5uZw/tgxHbb+/v36smfvPsrK9jRbBRxTV1fH7/+whP79+p3Qh2gYxukP0U+6a5vvvnlzK9PPaJFulT+8dyWbHo4ku5vvH8PsZuZOF5y32nKPb+T25hvuxGxbwYryYcye2o6a1sJiCilLP6lX+uUkh69EQucZtyRU2w5nzpxh3LnkHbYxPBLgHnqVhQtXUF44g1tum5IUUEeqlmdwS8J2J4XUx/G9flzbKCIiIiIiIiIiIiKn1dVXX31KuoBuLvw9FbZu2YqBwV/+8hfGTxjPpTNm8M3Bg/lg507+8Mij/OUv+zo0/E301a9+lfq6etauXctVV18Vzwzr6upYt3YdI0aMOK7w1zTaV93psay0VcBHjlby8qur2fXPMo4erUya1r17PoPOLmbalMn06J7f5L0+b8fX1F51xefjFcAdzTyRN2dlZfHt22+hf7++lO3Zy30LHqKuru6MOZHThb8dNf4vwKejYfILK19pdd4n/vgn3t2wicMVFSf2gRlnSAlz0aeYzId8eDjxxcO8uWJ1Byz3CVZsPs7pHbV7502Gf/6TxN3b/94J7lu0avrGlvqp3rwgMq7yK/fAXXfzzOE2bzGfuhCeWL65xekffnj4uDd/2/rtMOz85DBz+PkMo5zyQ828qVchhWznnW0Jrx3azjvlhRR32AM121iycAXlw2ZzX0r42ya9hnF+YTll5frLj4iIiIiIiIiIiEhXVtSvLzd985tkZmae3PX07Xtawl+A+vp6XFy+d9f3+MIXvsCQwcnjDZ+s8DcmMyuTHj26k5WVxQc7d/LBzp1kZWXRo0d3MrOOr90Ns33ZmM/XNAtc/+4W7n/oN6zfsKVJ+Atw9Ggl6zdE53l3S5PpHk/HB8BfuOpyHvv9wx1e/QsnGADDmRsCn+zwF+CySy4mMzODN1e/zetvvtXsfK+/+RZvrn478mFeeWIfomWZnBF6TmbGhau5+65n4yHp4WfuTu7a+LiWeyU3XgtPXLcgoWZ1Mz+9Mbqe1qbHJYfTm+8fw+gm87SwGeecA2+u4M3YGzYvYPYTHdFwCdvVZJmb+el1T0TGFe55JTdem9C+h5/lxlFj+Onm5vYxMo4xT8xJmmfz/TdFQ+TI9NV3TU+Yfphn7m9rm2zjne0wbFxqLetwzh9WzoolrxLLgLctXsr2whnMGB6ZPmNGIduXJ0xfvoLyYTMSumg+RGJ+fGjVUlaUD2PG1F5AL6bMHEb5iqW8Gp/pEK8uTwijt73D9pRuqBP1mjqDYeUrWLrqUMI6VrCdYZw/HKAXw84vZPuSJWxLuw0dsI0iIiIiIiIiIiIiclK1JdTNzMikXzQEPpn69et7WsJfgGuuuYavfvWrTXrszczIPOnhL8D+vfsoKurLU08+xa/+55f86n9+yVNPPkVRUV/279t/XMu0TKtd82dnZTR57bkVr7T5/c+tWNWmZZ7JOiSujoXAP/npg/EQ+FR3B53oVIS/sf3+6lf+H4/8YQmP/GEJ//jHB1w6fWq8O+j3/vE+b7z5Nm+sjoTD82+YQ8+eBSf2gXk8xzXQdN+is9i3/+Nmp7VfT656eCXcOJ1po6Kj8V67hJfvhWnvnc2JDK876o6V3PPP6ZFxcCMLZunm0vgyW5vOqBu458Lp3H3xGO6+8B5efvjK49iI6Fi8sbGGL7yHpfdOZvaKE9mxlGVeu4Sl1z4R7QL6MM/cOIcnLryHl6MVwqPuWMK1o+Yw7f6z2TQ/dVlN97HnqFJevvdDpl03hnjLPL6R23s2rn/T4zA6Pn0y97zyK3pCqyHwoVUr2F44g1vSpJnD597H7MV38uAd0cZJ6Ya519RbmV2WMH3Y7JRxcbez9I4HaSzAHcbs+Ni8RMbfnbOEOxfeSbz50y7jzibbNmzOfcwZPpw5989myR0PcueK9OvoNfVWbmEhD8aXkbINHbKNIiIiIiIiIiIiInKy/PgnP27zvCcrBN2/bz9GG+Y5mZoLnvv160tdXR1btmxm5MiTM8hmXV0d+/bvZ9/+/WRmZnLZZZcB8Pe//z3e7XZdXV2780NvO7tfzsrMaDKkakNDoM3vb2hoSPrdMAyyMjs+AP7zM8/Hu4Du6Cpgw+3AAWXr6uqSxgS+5/vfPS0n+dtr11FdfXLD30TvbtjI7x5dTH19Q9rpmZkZfPUr/4+LLpzUIeurqavHcZwz8gt28/1jePi8lTx8VU+kqzjEqw88yDvn38KtU3upOUREREREREREREREUjz55JOsW7uuTfOOnzD+uMbCbc7N/3UzD/3soVbn+2DnTl5Y/gL/8Z8npwJ6y5bNPPrIHxgxYgRXf+ELFBT0AKCi4gh/+fOf2bp1Kzf9xzebdEvdEtM0yTmOrqOPVlZzrLIm/vsdd/+0Xe+//57b4z93y8+he35uh7fX9f92Y/znx37/cIcuu0MDYGgMgQHu/cH3TstJ9nb0BDsV4W/ifr/w0iu8u2Eje/buIzMzg+L+/TnvU+dy2SUXd2g1dDhsU9fQcJq/yg7zzI13w72/Ipb1Hn7mJqbdBfe80viadAHblnDnknJm3HprY7fNIiIiIiIiIiIiIiJyRrj5v25u87yDBg0+aQHw2jVryczKaLbCeMuWzdTXNbSre+ysjAw8Hqvd2+I4Lh8fPHxcveom8nk9nNW7J2Y7xyFui05TASynzplRBbyZn46aQ+MwtpGumEfp4xEREREREREREREREZETcLzVvzGO41K27yDHG4UahkFx394nJfw92RQAd1KO41BTV6+GEBERERERERERERERkS4nJysT0zRPaBnHWwl8Mit/TwUFwJ1YKBymvh2DVouIiIiIiIiIiIiIiIic6Y636+d0HMelsrqGyqraVquBDcMgPy+b/NycThv+ggLgTu+0jQfsAobaX0REREREREREREREOpgyiE+0rMwMPJbV4ct1HJe6+gZq6xoIh8PxqmCf14PH4yE7K4OszIxOHfzGKADuAhzHoa6+AedUf5SuC4a+gUVEREREREREREREpIMoe/jEMg0jGsCaaowTpAC4CwmGwgSCQfSRioiIiIiIiIiIiIiISGdgGAZ+nw+f16PG6Kg2VQDc9di2TShsYzs2juMqEBYREREREREREREREZEzgmEYmKaBZVl4LQ+WpYrfDm9jBcAiIiIiIiIiIiIiIiIiIl2DInURERERERERERERERERkS5CAbCIiIiIiIiIiIiIiIiISBehAFhEREREREREREREREREpIvw7Ny1W60gIiIiIiIiIiIiIiIiItIFGN5ug101g4iIiIiIiIiIiIiIiIhI56cuoEVEREREREREREREREREuggFwCIiIiIiIiIiIiIiIiIiXYQCYBERERERERERERERERGRLkIBsIiIiIiIiIiIiIiIiIhIF6EAWERERERERERERERERESki1AALCIiIiIiIiIiIiIiIiLSRSgAFhERERERERERERERERHpIhQAi4iIiIiIiIiIiIiIiIh0EQqARURERERERERERERERES6CAXAIiIiIiIiIiIiIiIiIiJdhAJgEREREREREREREREREZEuwrIyevygQ5Y0cx6lXxhL3uoN7DyR5YybRcm1E+meuJx0ryUZz6ySa5l2dog12/ZHX5vBvNLPcW5wDfGXgPGzSrj2gu6s3rAzzXqncXbK/PH3TDub0Jpt7G9ms5tdbjPbkbztX2KE3dz0lpbdsvGzSrj2c5/hvPzVtPTWGfNLON9Kt/5Iu07s0fL7RaRzyc/PJyMjg169elFcXIzf76eqqkoNIyIiIiIiIiIiIiLSBXhO1oJnzC9lZI/mpwfKXmXRsnWMn1XClGJ/k+kjS0sZ2cprsWWkt4JHtxZROrWEWSxi2fpIIDol530WPLKiydzjB/XGf+R9lq1vMoWBvf1UfLCMdSelpdax++Akpkyexfj1HbiOmfOYUgxlZRUUj5jHjOWPsiLtjOMBKE5Y/4z5pZxbE2nbZasHUjI1+f2J00XkxOTk5FBTU3NS19G/f38uvPBCLBOK+vZP+TKuBH8+ALU1lQB8+M89bN26lT179ugDEhERERERERERERHpZE5aALzikQVNAsd42HtkSzw8XLdsUXLoOW4WJVOzeX9BQmCZ7rUWpIbKxVNLKZ0a+20kpaUjgQBlqxaxjFmUTC3GnzQNCJTx6qJlrBs3kN5+8I8opXRE4lqi719/4m21btlbDCyZwqRZ41lXNZLSEQVp5krYtpgjW9KG2cycR+mIAiq2LmDZ8mgYXzKLikXpAuZ1rHgE8kumMGX+DNY9soKKmgD+nOg2rF/G+6NLOXfWeFYsWweMJz8bavYr/D1zzGBeaRH723B+jJ9VwiTeamd4P4N5pSMpaOF4K8nbkrLMtm8TRKrQ8zd1zPnUmvz8/PjPlZWV8Z/79+9Pfn4+e/bsSXr9ZKx/4sSJFBQU0K9fP6qqqjhw4AD19fWsWbPmpKw7Pz+f/v37w7HVcHgrhCuhPhrulgMeEzxesr1Z4PEyYsjV7NmzRwGwiIiIiIiIiIiIiEgndMIBcGqlb6RKNyUcHRcLWSvYsmBRGwKhgjQVwBXt27DEsGrmPEpHwJZ4GDWDeaXnJi17S2JQNXMepUOi+ze6mJqtC1i0PGH2cbMomdo74edsDpYBPUZSWpLPq4sqGVk6ksQYtyAphE5ZH9FK28kDGb/sURYsT96VliqXU0XCbyhbtSDe/iseWQDzS5lSOo+CtIFcbP35jAfWVdUwpXf0Z2DFpjLOnTyQ8axjHQVk+wPUlnf0oeilW/9z8FW8z6G6dr51XEKI30xIOWN+KSPZ0mwbNh7HzQX7kRCUrQt4dHl7Ni6LXucWEPxwD8dCx9EsbXn4YVw+OYHa9GdIYtvETaG0dEqamdPte+N+v5pXQul8mrbh8kd5f34Js8atizxQMRneWrSMR7fOoyT24MC4WZSMrmTRIytOyxddfn4+M2fOjISgUXv27OGPf/xj/Pfi4mImT54cn/bmm292eABaVFTEFVdcAcAHH3zAtm3byMjIoKCggHPOOYdzzjmHt956i82bN3d4G4QDlViH32zyuuMAQQeCASAAgNunWldHEREREREREREROeN4LIPB/TM5b0AmGT6T/YeDbN1Vy5Gq8HEtr39vPyMGZpGf46GyJszW3XXsORhQQ0vnP1dOdAGxSt9I8FiTEmyOZ1bJFIr9ke6aF7RSdRjvWnjBsmanl6R0PZwUQBdPobR0JGVlAPnMKikl+4MFPNpkHWW0qcPVmfMYmV3Gqy0FfoXZ+AO1VJIDR7awhZFMKSnj1QULotW2kbC5NhasRQO9JtYvY1E0eEvfLXZKBXCaoDPSFqnhcuPnVDGrhCmlJeSnCzgT1k95LYERvRk4DtatT5k2s4gCati//kw5hGcwb2ospI8cbyWzKpKrUWfOixwjR9IvYfysksjnvGAZ62bOo3TqPGasT27DGfMjgX7Fqdy1hAcnWlSYjZ/a9NOSPrt5lBbtb9ODBI3r783B+MMEiyiYX5o2BF6x6SAlo2fAI5XUTC2KPPywfAsHS0Yyg3WsKMyGmt0p+5Ui6SEJGqvwO6ApR4wYQV5eHgsWLGgyLTEc3rp1a3zejjZkyBCuvvpqdu7cySuvvNKk0nfIkCGcc845TJo0CdM02bhxY4dvg53m70C2DbiA0fin6eriKCIiIiIiIiJyJvjSl77E2rVr8fl8jBkzhl27drFhw4a08w4fPpzJkyfTrVu3Vpd77NgxVq9ezbZt2yguLmbixIkArFmzhoKCAiZPnkxWVlaT97muy549e3jrrbcoi9yI/0QaPnw4Y8eOZdu2bc1+HjFjx45l+PDhbNiwgW3btjU7X35+Pueffz55eXm8++678fYdPHgwkyZNIhgMtrnd27rOVKnHQrp1FRYWMmHCBDIzM1m7dm3SPK2tty3Lb815AzKZNCIHvxnEwMF1vXy43zquALh/bz8XjsqjV66NHQ6Sk+Fjz0EL9YvY+HmOHTuWDRs2xI/z/Px8xo0bx4gRI/D5fGm/U9IdMxdccAEDBgxgx44drF+/vsn98fZ8f8XWt3fvXvLy8ujfvz+GYcSnhUIhwuEwFRUVrFu3jp07dzJ48GAmTpxIVVUVb7/9NuXlx1flGNv/wsJC1q9fz86dO+Pn6bhx4ygvL0+7f+m+O3bv3p32nE/XdkOGDMGyrBa3zbZtPvjgg/j+dVAX0JFxckmMVaPdEBOIBmvNvTMl7AzUJLy38VXKVi0isbkaKzoXsCIaNPc+2DiucDGVLFu0gBnzS5gVHV8zf1YJ2fsXsGj5DOaV9m51rwYWFVBRS6Rr5ibhdQ2V62H8rBxICN9WPLKFovm0ObRKDLArEqtLE8Kv1ArgyO8JC4kFake2sGBB8+HeumWLWDduFiVTSymdXMari3YzMBrQJ61//W4OTi4muzDN9hYVwJEtrDhTvoHG5ZNDBe8vh9h4ysW9Y9XKADOYNwIqjpBQkZ0cyhfk+Akc3B2Zf/l+KkaMpGgmsLzxWB5JBRUUnLr9mjmP0hE5lG0to/eI7JbPvrwc8NPK1o1n1pAcylavSDr2ivanr2hufJgguWJ/xSMLWDFzHqWlpcnHa0LQvP9ICfnjgPXrWLZoXfy4Seo2POUBhqZdQM9gXkl+hzZpumre/v3785WvfIWtW7eyfPlyJk+e3KQyuCPk5+czYcIE9u3bx5///Oe007Ozs3nxxRe56qqrGDZsGLt376aqqqrjNsIFt7kAOIUCYBERERERERGRM8PRo0cBGDBgAB6Ph+rq5ntu27ZtW1L40lygmKqsrIz6+nomTJjAhAkTWLt2Lb/85S+bzJe4vI4wduzYpKA5NVyOBR+9evXi7bffbhIstTa9PdKFOi1t36m0c+dO/H4/F1xwAaNHj6a+vv64w6t0+5wa5MWcffbZSb/X1dWxevVq9u7dG39t8ODBTJkyhd69k/OWs846i8997nNAy8Fge/l9Br26+8jP8RCoCxEOBiBk4DWd41per+5eenX3YtgOjh3CCYcxCX/iv3dSQ8fp06czffp0AKqrqwkEAhw8eDB+rgwfPpzhw4enXVZxcTGTJk3C5/OxZ88ezj77bLKyspqEsLHvr+LiYj796U9TVVXFO++80+qQiYMHD8YwDMrLyzl27BhDhgyJh7ADBw5kzJgxFBYW0qNHDwKBAJs2beqQ8+d4z7k+ffoQDoeprq6msLCQXr16UV5e3ux+lpeX89xzzzXZ59YeCIKOGgM4Ok4u5HBuSQn5q98nOxbg+ouZUlrKlCZvinY3mzAG8Iz5pTR2zByrZE3urtlfHOm+tmLrgiZdJSfpkVAx28MfPdAAYmP5BpqrmYzb/cgC1jGDeaVTmDdzXdqgrCDHD7WVVBD7glvBo4+0velWJATY2cfT9rGgcNUClq2fwbzS0paDwECkOplZJUwp7U3ZqgUsWJ+6/kiQOmXILMYvTwzvZ1DUAyq2rjiDvokiFdixGtl1VTVMKc6Ot8GM+SPJKXuV93OmJLTLCh6NB+WpYxpXUBuA3nmxDrBnMG9EDmWr3id76ikMgJdHuwIfN4uSFmeMPHwRCJAcWqfONWsSxbXvs6DVyu2ELp9rSpjSpCv22Ln7KkwupbToKBU9ukeqo6OBcEUNnDtoPKxfl3DcVLD/Ec4osfB3+fLlbN26FYCtW7eelHFvP/WpT1FUVJQ2WB4yZAjjxo2jrq6OjRs3sn37dq6++moGDBjAli1bOmwbXMBJ0w15OE0FsEcBsIiIiIiIiIjIGeHAgQP4fD769u1L7969k4Y4iwkGg2zdurVJ1ZnP58Pv9xMIBKivr0+7/MLCQsaNGwfA2rVrT0kwEguX+vbty+rVq+MBxuDBg5k8eTJTpkxh9erV8X3Jzs5m9OjRBAKBeLVdfn4+o0aNYuDAgdTV1Z20ba2srOTVV19l7969TcLvYDBIMBhs03IaGhoIBALtaqPRo0c3qfrr0aMH5513HgAHDx5k9erV5ObmNluxnRjEQmOImxgaJQZ5bd02gIKCAg4fPswzzzwT/6yOt/K4rfKzPeTlWNiuQZ3jozbk4eOqIMdq299ls99nkJ/twe8zqazxUhU0qawJc7RWAXBi6Jha8V1ZWRl/WKI1Y8eOZdKkSVRUVPDaa69RVlYWr/SdOXMmq1evbnLc+Xw+PB4PR48ebTX8bU2scnns2LF0796dDRs2nNaeC/Lz8+nevXv8QZ4BAwbEv9c//elPN5k/do6ntpHf78c0zRa/f4YPH94xAfD4Qb0hECDSp6uf4qlFbFmwgEdjweYHC3h0ecLP5ZFukCvTdHkcaKVv5kBZY5VvacnB5ruIPbKlha5uU8cATjPmcCAWD6/g0VX5lEwtYVZ5tEKxMDvafW0kPAwcbKGL3nH5JNcIt/XbJzU4T+0COvrn8sQxgxODzVYkBO/prNt1kEnFCd1AA+NnnUtBoJUusU+x8XkttO64WZybXcZbj6yjYP6UZpZQQLa/heXPOpecsrd4dH0B86aegd/E4wbSmzLeWg2TJqcG9o3tMKnYT8XWFU3G7KZH7IGI2LmVeAy1fIw0BrzRbrRjx86y9xlZGu36GSLdhh/Zn9QV++mWn5/PV77yFf74xz8mBb4nI/wFCIfDvP/++02WH+sWeu/evbz77rtAZGzgffv2tekC2i4uOGGSgl5csO2UFzD0LysRERERERERkTOEaZoMGDCAYDDIli1b6NatW6tdjMZkZmaSnZ3dbPibKhaqplaExroV3bFjR4fsU79+/SgsLGTNmjVJQWSs0nXs2LHk5ubG96++vh7TNMnOzk7a1vz8/HhXrzGxEDlWkZoaoCR2Mxur6N2+fTu9evWK73dubi5+f/qbxj6fj4suuojevXtjWRYDBgzgc5/7XLyNdu/ezcCBA9N213rOOec0WV4skAWSQtxYOJ5a+dec1CrA1oLYsWPHMnLkSCzLih8fqW0HTauyY9WZRUVFZGRkMGjQIM4++2x69OiRtL+x4LmjuwzPz/aQn21RW2+zZms1W3fXndCy8nIi27xtdx1vbq7SF05Uc90On3POOfFzzuPx8IUvfCE+7dixY/GfY+cZwGuvvZZ0DG7bto1Dhw5xwQUX8PnPf57du3cnVQPn5ubSu3dvzjnnnHjVcaJ0D7z4fL54gBoMBjFNk3/913+lZ8+eSe8966yz4g+YtNZ1e1u/M6dNm5b0nRkLc1O7Y87Pz2fIkCF0796dXbt2xdv5/fffjy+rrQ9i+Hy+tFX7qTogAJ7ByGI4WFZDcTG8v2gRzC+NVCOWD6S3P9o977jEnxPeHevKecGKlArgxFC2abVuUre9Kda1Em4mBaXjoLHaOGrmPEqHJMy+fhnvjy5l5ORZjF+fGLA1dnE7ftakeHvMKx3ZpAq3OGV805GlpYxsKaSOdgFNLBxPmLdJF9AnQ5N9nsHIYj+Bst0dMiZrR1lXVcOUtL15j2fW5N4cXL0oWsfbnEjFb9rq63GzmNT7IG8tankJp9OM0cVw8FXWrV9HwehSRs6EdctT2yEy3m4NjWN2x869dF1ANwmJW5DUDXTC+bWlrIRJs8azYllBtII65TjvkfJAA6QdA/hkmTx5covVvjNnzmTPnj3xyuAT1bdv3yavjRo1issuu4yqqireeOONpG2pra1N+gttR3HSPLwWDkfLfQ0X1wWDyJ8iIiIiIiIiInL69evXj4KCArZt20Z1dXW8WjdVa+NnDhs2rMlrx44d44MPPkh6zXVdPvroo3iX0cXFxUyYMAHHcTpkfwoLCykqKqKqqoqKiqaFVYndWMcKJAKBAKFQiN69e1NYWEh5eTm5ubn4fD7q6+vj2xYb4/Po0aMsX76czMxMJk6cyNixYwkGg+Tm5jJu3Dh2797N+vXrKSwsZOLEiZx99tnxcDu1C+j8/Px4BW0szHz99dfJzc1l+PDh8TAr9rkcOnSoSTfc6cYLjX1mY8eOBSIBblvGA+0o1dXVhEIh8vLyaGhoiL9eV1fHypUr2bBhQ9ouv3Nzc8nKyiIUCnH06FFCoRCHDx/mz3/+M5WVlSe9AjgvxyI/x0ND8MSPx1iYLE0lVgDHukIPBoPxLsBTj+lYF9CFhYVcccUV9O3bl927d+P3+7nsssuSqtBjgsEgH374IR6Ph1mzZrFjxw4++OADevToQUVFBS+88EKTMDQ2zm66Zb377rtNuoCurKyMb1tqF/nHI/UhidzcXFavXs3LL7+c1C1zrI1Sv/v69u2Lz+eLfw+Gw2H27t1Lr169mv2+bGn839QKf2h8YKe6uvrEA+Dxs86l4Mj7PFpVRGn0tRWPLADGM6ukGMpeZQWRKmH/kfebjB2bGEgla9oF9Ir9FYwcEekCGirY8kizIwszK2Fs23RilcRtteKRLRSVnhupiAVI6HY4Zc6kKtzxaQLc1sQC7Ng4rGVlUFwcCcwi250YcLe+r81qZZsi+zySSbPGU5AzMlL9u2zdGfZNVEtgRGOXz+PzciBwkIpxAznX78efFCqOpHQ+Kfu8jsraKQldPkcqgmuq1jF+0CT8fn9yJfaIUuaRftzcU27mPEZml/Fq9DxYsamMkqnzmLE88WGGkfQ++CpbcqZQ1OZjPfGcnMG80iL2Jz4g0aZj+C0GlkyhtDRyrj26vuVj71SMAZz4l64RI0bw29/+tsV5OnL83UAgQEFB8mMhhw8fZv/+/WzZsiVtEJ34F68TVVlZiTczn0C6ANhJrvg1TfB378eePX/T33RERERERERERE6zzMxMDh06xN69e8nPz49XuiV2Fxqrcv3d736X9N62hHGJXUADGIbBgAEDGDKksUIqFih01P5kZmZSX1/f5spk27ZpaGggMzOT/Px8gsEgvXv3JhwOU1NTQ1ZWFvn5+WRmZmLbNjt27EiqJhw7diznnXceXq+X2tpaPvjgAyorK6msrIwHuc0FMC11AZ24Ty1VWruuS0NDQ5PuWmMVfKmvd+vWjWnTplFRUYFlWZxzzjnx8Ce1ojZ1nOJU6QKiWPBfVVVFz549MU0TiHQrm5GR0eJn4fP5cF2XYDBIKBSitraWIUOGMH78+GbXm1ixGduH9nz+MdmZJj3yvfh9ZpMAODI2sJde3X14LINDR4PsPxwkEGy+0qVHvoce+d4mr3ssgx55Hs7q6SM70+JIVYg9BwPU1jufuO+fsWPHMnHiRMrKyqiurmby5Mn4fL546BnTEeFq7PsoIyODcDjcbPfG4XCYI0eOtLl76LZWy7bFzp07KS8vTwrA/X4/1113XZPvhJycHIqKiujRowe7d++mZ8+edOvWjUAgQF5eHqFQiB07dsQD4N69eydVVMfOm7///e9JPQHEHsqpr69vsdv+DukCuiCnhi2PrICZ85JeHz9rEsXEAsNI9WjS2LFpAtTG4GldM90aP9ryuL8UMKuklOwPXqWW5qoTU8cabquE7ZjZ1vdExmet2LoFRpzLrHErEgKuFoybRcnUYvxHIpXR42eVUBwNzGbML42PgRzZt8Yq5IQ9jI/j2v6gcgazZlWwbNm6yD5vLaJ0xBRGEqBs1TLWnWnfQOsrqZlaHB3/Njoe7sHdrFu/Lt51dewzH0n6wLuiJoC/90DGs451M4sooIIty2FdUhfIJ9KmJ8G4WZSMyKFs1aON27h+GW8NKmFKySwqYl2jL3+URcCMZrvAbvn4nVVyLrWrFkXOy3GzKJkMbzXX7XpSWNzYtXZNVcrc65exaH0bzrdFJ6/5tm7desLjB7THgQMHOOecc8jPz4+vd//+/TzxxBNN5o0NBN+RT8jFwmwjpz/2sT1JHT7bKWMA+woK43+5FRERERERERGR02v9+vXxStBY+Pnuu++22gV0rMKsoaGB4uLiNlfAnewK4HRSq+oSu1OOqa6uJjs7m+zsbILBIHl5edTU1GAYBllZWfh8PrKysigqKkoKUSBS1VpVVUVmZib9+/dv0hVzYte1beXz+XAcJz6ubzgcpr6+Pm3I29o4zDEDBw5k6NChAEmVljt27GD9+vUEg8EmIXRsjNNUbQ3/TdMkLy8vXr1ZXV0dr8yurKzk4MGDDBo0iFmzZsUfNFi5cmV8TNi9e/fGA63UquVYtWZiNWZ+/vEX/TRXsduru5fJo/IY0j8z6fU9BwO8ubmKPQebjg+cnWmSl+PBYxlNXp84LI/R52YnTausCbN6c9UJdTndmRQXFzNp0iS6d++O4zhNKlCnT58e75459aGE1nojSCd2bAWDQbxeb7MBb3MPKaR2AZ2fn8+wYcOS5j0Z3ZIXFhbSo0cPGhoaqK2tJTc3N/4d4Loux44dwzRNzj77bEKhEPv27cMwDHbt2hU/b2PnRFvH4s7NzSUjI4Oqqqr4wzvr169PGwSfcAC84pGmI3tGql5r2LJgWbSSdWTy2LGF2fiTOnWOhGs5Za+yaNdASqYWUxML2sbNomRqbw6uilYHzpxH6ZDapLF/x8+aFKmALT4XVi3g0fXjmTUECkY0jm+aqrWxhlvS4rizSe0QDcGXr4C8c5nSpAvpqHED6e2PdNEbaTsoW7UgbVgcCclnMK+0+UrUGfNTg8pIFXXtqkUtB9B5sygpjVRtx99ZFKta9JNdeCZ+FcXGaI5+1ke2sKDVKuXk9li3bBEF80ujlb4BymKB55lq5jxKRxRQsbXpMbJu2aJIt+Gl8yhoZ9Vu0+MoOmZ3bB3rl7GocB6lpSUMTDqWIsF7QfG5kbZL2L4Fy8czq6SU0iFlzY/XfYpVVlayfPmpTfFjf7mbOHEiL774Yovzjho1iry8PDZv3tyh+7z+7dWMGDET973lhI9GQmCAsN04n9fvp+DCufFxR0REREREREREpHPq1asX3bt3Z9u2bQSDQYYPH35GbFes8jNWCQyRqrpY6BHrxjlVLAw655xzKCoqwufzcejQofgyYg4ePMiaNWuahCjFxcVMnDiRjz76iDVr1jQJfmJdNadK1wV0fn4+PXr0wONpPV6JjVVcXl6etqKxoaGBQCDA2LFjOffcczly5Aj19fVpu8duTrqgNd12JFYtlpeXM2rUKM4++2yOHTtGVlYWx44dY+3atUltk+6hgVjX3DHpqsZjgsFgUjBVX19PbW3tcR07eTke8nOSA+Dmwl+A/r39nHd2FkeqQk2qd9OFyc2FvwD5OZ7ossLsPxzs8t8fZWVllJWVJfUQkC5kTNdNeOox09aK1dixnJeXx5AhQzj//PPTzlNXV5f2OEvXBTTAuHHjOPfcc3n//ffbNHZ6e+Tn55Obm0t5eTm2bZOdnZ30UMiRI0ewLAuPx8PatWvx+XyMGTPmuNdXWFjI2WefTUNDAxUVFc32XBDj6fAjY+a8aPgbDZ9mzmNkj4p4GJxOPCBetg5YF6liHDKL8cuXsS51LNrlj7KlqJQpJbNg0TIK5pdGusFNs/y2VwAnjjccFWjuSygSdlFb2XKYNXNeNMiNblcsZIxu97qE+UpHREJW/4hSRm5dwIIFyYtqOqZxcjfTSVs3qyRhXNfk7qELppYyr7D5CtaC4uKENouNZRztinvmPEpHnFlBXlwbKkqTuzVu2n7Nd0Xeepuf0n2bOY/SETnNPiAQP15mRoLa/MSgtmgepaUpo1P3SHxIIhJ+L1sfOY5G9kidTiRgX5Uf6Wp6/aPxiv1l0XGS55WWUnpkCwsWxB4MiU4bN4uS0lImtbPr9Y68YH3lK19pU7fOeXl59O/fv0ND4g8++IA+ffowbNgwioqK2L9/f7MXjAsuuIAXXnihQ7ugBlj1+psADB8xE+vjbdTvjPweC4Dzeven17/MYuvWrbz55pv6V5KIiIiIiIiIyBkoXRfQx44dY/Xq1fHQZfDgwXz6058mGAxSUVFBbm5uk+XExqtMvQd1sruALi8vZ//+/YwdO5aCgoI2V+BVVlbS0NBAr1696NatG8eOHaO6ujoeAAeDQerq6ujRowd+f9PxEuvr62loaCAvL69d3cGm6wI61qVsrBvp1BA6prCwkKFDh2JZFh999FFS8JQaIqeOAQytdy19IgYOHMjgwYMJh8OUl5fT0NDAkCFDmDVrVpN5Y5//22+/nTa8S60aTzzGUkP18vLy477vmp9tkZcdaS+PZcQD3nOKkitCQ9EAzuv3U5DnoUeel9r65Crg1DC5R56Hz4zJ57yzs5LCXzscxrFtTMuiR56HHnmeT0QAnMjj8TBkyBBGjEhfbRl7MCLtZ5afz8CBA6mqqmLDhg0Eg0EuvvjiZse5TnwYJJ3YeL7pHqbIzs4mLy+PoqIi+vXrR8+ePdm3bx+5ubmEw2EKCgooLCzssADYNE169OiB4zi4rht/MCJx22pra3nnnXfi6xw8eHCzy0vtAjr1vMvPz2fUqFEUFRWxfv36tGMHJwbygUDgJATAyxu7aW6sZk2uqJxRVAC1+yMh4sx5jOyR3L3wumXvMzI69uy6ZeviY9GOnAnrlkfHGJ5fyqRZ41nUQnDX9grgisbAOrpNpfHrW7oxdivYsqj5MDAydm9jmBYT2+4pCRWUM4oKGscjHjersZK1LVLH8J05LzLeMMnLSAzCZ8wvpWRWSgg3biC9/Y3bG9n+lOUvf5QFyyOh8JTSUqa0Y0xjOTnnV3vmi4zL3XZNHzpIlj5wbyEkbyWkX/HIopPabHv27OGPf/wjxcXFrc5bVVXFb3/72w7vAvn111+nurq62fA39hfK5cuXs3Xr1pPSDqtef5OgA5MnT8ZbNJzaTcux6g/Qc/wMzG5nsXr1aoW/IiIiIiIiIiJnsNa6gC4uLo5Xzr3zzjvxLllT+f1+TNMkGAwmBZjNhXkQCRdS76/FKmuBtJW16ezdu5d+/frF3xfrCjW27YWFhWmLI6qrq3Fdl9zcXPbs2UNlZWU8AKmsrOTQoUMUFRUxYsQIqqurqaysZNy4cfTr14/169eze/duLrjgAoYOHRpvuwsuuIC8vDzee++9tNvq8Xi48MILycnJwbIsbNumV69eBINBNm3aRHl5OYMHDyYjI4Pq6ur4+woLC7ngggvo27dv2orkWFunGxs4JtbV665du+IBUGK7x6oqjxw50u7jaMOGDezdu5exY8cSDAbjvydWEgPx9tu9e3ezlZvtqQCOdfcNkW6uW+vuNn7sZUcC2Fg4m51pMWJQdtM2dRxwXTAi4xo3BB0Cwabdl8eC4Zjzzk4zhrLr4oTDYBhYHg+BYMtjCndV4XA43g15WyqAExUVFeH3+5PG5d6yZQsTJkxgwoQJAO3qhjl1PN/Yd0a/fv1wHIcjR47EHzL54IMPGDJkSPwc6tGjB5/61KeorKxM2o+xY8cyduzYZrtTb47jOPEum8eOHcvZZ5/Nhg0bKCsrS/ud0JrWuoAeOHAgAwcOZPfu3ezevTvtgyypXc57TtpRMW4Wk6Lhb1KoCEQC18RgMfXNqUHS8VRstrECOF0wlbRN6cbYbd6MFiqS49s9cx6lsWrcxP1o09iozZg5j9Ki/QmVl+mteORV8ksmMWvcusZwOr7eWNidEoinfg4z51E6YiSl81EILJ3Gnj17mn0S6VTZuHFjq/OcrPA35s0332Tr1q18etQIxk3+CvnRtvnjr3+rg0REREREREREpBMbPnw4kyZNorq6mtdeey0pWEkNTlJ/h0iI+sorrzS7fJ/PR2ZmZlLXxz6fD8uyKC8vb3NBRXl5Oc899xxjx45l8uTJ8bFEIRKCPP/88+zcuZPCwkIGDhyYtH2HDx8mIyODAwcONFnfzp078fv9TJ48OV7Jmlod7fP5mDx5Muedd158fbEgcvjw4QwcOJDLLruMz3zmM2RmZuL3+5Oq8IYPH84FF1xARUUFe/fuBSJhusfjiY9bGgs5/X4/r7/+etoxePPz8ykoKGi2jQYPHkzfvn3jVdzpPguPxxMPkNNVhkPjuKeJ7Zu4DXl5eezatStezez3+5k0aRKDBg3CNE3q6up48803Wwxq21MBfLxqGxyOVIUJBB38PjNpWjgUJBQI4joOhmni9fvweH2EbZfyoyGOVIWbLK+iKsyRqlBSCAyRit9QIIBj24CB1+fDGz1PDh0Nceho8BP3vXK8FcCDBw9m/Pjx9O7dm1GjRjW2sW3z4YcfEgwGmTx5Mj6fr80PAkBjt+nQ2FV16jHn8/kYPnx4/OGPDRs2MHjwYCZNmsTFF18cH/83VolfV1fXrrA29Xv305/+NIcOHYp/J3Sk1IdJYiF1bAzvxO70U3sNMLzdBn/yHlmQM5CXbv3PwVfxPoe61DjqWfQ6t4Dgh3s4FtKnLGeW/v37A5z2YFxERERERERERNIrLi6OBxwtjfU6duxYxo0bx+7du5tMKy4uZtKkSfTv3x/DiFRQxroX3b17d7yqN12FXyx8GDJkCJZlEQwG2bp1a3wdsS5Z040V2xU/i1jV7T//+U8GDhwYb5dYkOz3+7ngggs4dOhQUpfJqe0IyeF0LAz3+/3xkDYYDCZVVcfG8R0xYgQ+n69JuN2S1DGAKysrmTBhApmZmfFxf9NtYyzciwVmsX2Jvfcf//gHhYWF8S596+vrk5bRnm1sTazb5/PPy6F/b3+TcXoTVdaE2fRBLVt31zYZ/zemV3cv55+Xw5D+mU1C5USBoMN7H9Wzfkd12jC5K2vPGMCJDwAUFxczevRoysrK2LRpU7Pn06c//WmqqqooKytj6NChScdea9J1TR4LnQsKCqitrWXt2rVJx14sBA4Gg7z11lvU19e3uH+tnUvHjh2joKCAqqoq3n77bfr168fkyZPJyspKergkcf1jxoxh165d8SA39dxMnD/23e3z+XjrrbeaBOWx742srMYK9tg5BwqARURERERERERERESknZoLf+TMlxhEQWTIuMzMzCZhb+LDA/X19axevbpd3eSeDB7LoFd3L4P7Z1Lc20+PPA+WZVBVG2bPwQAf7Kln/+G2d9fcI8/DkP6Z9O/tp1d3L9mZFpU1YT4+HOTD/Q18+HFDsyGydJ3z4HQf1yeDAmARERERERERERERERERkS7CVBOIiIiIiIiIiIiIiIiIiHQNCoBFRERERERERERERERERLoIBcAiIiIiIiIiIiIiIiIiIl2EAmARERERERERERERERERkS5CAbCIiIiIiIiIiIiIiIiISBehAFhEREREREREREREREREpItQACwiIiIiIiIiIiIiIiIi0kUoABYRERERERERERERERER6SIUAIuIiIiIiIiIiIiIiIiIdBEKgEVEREREREREREREREREughPYa/eagURERERERERERERERE5Y9VUV6kRRNpIFcAiIiIiIiIiIiIiIiIiIl2ER00gIiIiIiIiIiIiIiIinY3H4yUrOxufzwcYahDpwlyCwSB1tbWEw6HWzw01mIiIiIiIiIiIiIiIiHQmHo+Xbt27U1NTQ6ChHtM0MQyFwNL1uK6L4zgYpkW37t05dvRoqyGwuoAWERERERERERERERGRTiUrO5uamhoMXCzLUvgrXZZhGJFjHJeamhqysrNbfY8CYBEREREREREREREREelUfD4frmMr+JVPDMMwcB072uV5y9QFtIiIiIiItPTPCzWBiMgZyVUTiIiIyCf+36umqTpH+WSJHPOt36tRACwiIiIiIijoFRHpKt/bCoZFRETkE/Q3IlX/io75tBQAi4iIiIh88v65kOY1BQYiIvqOFxERERGRrkABsIiIiIjIJ0JqINDGMECZgYhI5/hab/aL20iZWV/sIiIiIiJdnQJgEREREZEurZWb/m7b3q64QETkDPtWd49nxsQwWN/sIiIiIiJdlQJgEREREZEuqYUb/GmKwxQDiIh0Dm7q13y6b3+XprlvkwuAgmARERERka5KAbCIiIiISJfSzA39lHv+bpuWQfpliYjIGfJd3/R72k2ZbKS5BiS/R0GwiIiIiEhXowBYRERERKTLSHMTP/FHo43vUQggInKGc9t8LUgMhI3EyuCkIDjWNbS+/0VEREREugIFwCIiIiIiXULKjfsWg9/Eed2TvE0iItI89xQss/E73202CHbTX0t0bT3Oa+vJ3iYRETm119bWv/MNt7mval1bReT0UAAsIiIiItKpNV/16xrNzee2bZnuid6o0I0OEZGTewloS/fNTbt6bhIEN6kG/qR/h+vaKiKia6uurSLSuSkAFhERERHptJq5QZ00xm9rNxvS3ZBu/caEoQIkEZFTosW8MN3EZm9cp79ZbSRcO5IuJJ/YiiVdW0VEdG3VtVVEOj8FwCIiIiIinZqb/EebuhszEm5spHRdZiS+N90czb2mGxkiIh3DaPHXpi9Fu3eOf62nfB8bqdeC5O6eY2MEG026hP4kp5G6toqI6Nqqa6uIdG4KgEVEREREOqWEmw5tvkEduzmdUMNkxOZN7MDSbbLs1rdFNzNERDqO2/rU1O98IzlebHLTOu3N6uTxgZO7rXT55FUq6doqIqJrq66tItI1KAAWEREREel0mt40SLpB7camJnZVZiTNaBiR11w3ze2Hpnc/RETklH/Pt8JN+MFIfslI7Ioy6QJhkFqBlJBVNt6oTlrJJ+VGta6tIiK6turaKiJdhwJgEREREZFOJeXGhZt8g7qbdURNJCIi7XbM7hG5rMRuVLep22NdW0VERHRtFZEzkakmEBERERHpbBK6kDSaviwiInK8lxYg5Z60+8lqAF1bRURE11YR6QIUAIuIiIiIdBppxiZMmOaqa0kRETlObsKYs03vTzcpW9K1VURERNdWETmDKQAWEREREemkGrunVPdhIiLSIVcW4jeqP6H3pHVtFRERXVtFpCtQACwiIiIi0ik0rVBq8rpuVIuIyHFLvJYYTV/ukpVKuraKiIiurSLSNSkAFhERERHphNI+Pa5HykVEpAMvLJ+0y4qurSIiomuriHQVCoBFRERERM546Z4Wj73upp9PRETkeK81zVYqdaVrja6tIiKia6uIdF0KgEVEREREOoXGOwTpnxrXTQMRETlRrVUqdbXukHVtFRERXVtFpGtSACwiIiIi0mkl3CxwXXTzQERETuia4rrprzG6toqIiOjaKiKdigJgEREREZEzWko3YUaa11WhJCIiJ+O6E/s5tVfkTn/d0bVVRER0bRWRrk0BsIiIiIjIGc9t8af4U+W6ZyAiIsfLSLmmJFxr3GauSbq2ioiI6NoqImcmBcAiIiIiIiIiIiIiIiIiIl2ER00gIiIiItIJNOkezE362TBSHiwXERFpp8ZrSdPrTPxa1JUqYnVtFRERXVtFWvi7kotrh7EAw7WxbQcHE8cE1wAvLiYOgZCNC3g8HjweDw4mGFbkBJDTRgGwiIiIiEinuXvQykTdpRYRkePlutGbdG7z16CueJnRtVVERHRtFUk6bl0njImL4ToAeCwPLhaOaWCHbUK2g2UAloGLiWmCG4mGMewQpuvgsSwcTMKuAZZPYfBpoABYREREROSMlXxHoMUxCkVERDqK6yYEo41jFRpJ16HOetda11YREdG1VaTpMergNcFjGbh4cRwH13UxTAPLsjBNE9O2CTsN4Nh4LQvLNAEPfo+J64Zw7TBAZF7DwMQBx8awHQx/ZiQQth219SmiAFhEREREpCv8W01NICIiupaoPURERNcSkXYwHBvTDePxevH7/ZimhWM7hMIhbDuM6zi4holpgcc08BhgeiwyvB4MDFzXwPSY2LaJ7YBJ5FEGx4kc/QYmtu1g19dhWSaWYWFjgmmp8U8yBcAiIiIiIp39H2yGbiyIiEgHXlN0UdG1VUREdG2Vrn1cui4e18Z0bGxcwmEbwwhhmDa2bUe6gHYcguEQ9cEg/pCFxzSwXAefaeAxXEzTwDDB4wEMDyYeDKCuLkAw7ET+LmUY2IaLgYvr2BgW+L0GYdvGdk11DX0SKQAWEREREelc/0yj8ZZ04s+6oyAiIifKbcP1RtdWERERXVulU//Nx7ExnTBhx8XGxXEcHDdMKBTGsiy8Ph/Z2dm4to1TW4MTCuE4DrYbOW49lolpgOO6uHYY0zIIBUORLqMNA4/fi2PYuI6L47qYrotlRs6HsOPgw8DvMQiFQoQcE0xFlSeDWlVEREREpPP/843UEaRERESO/1qiG9K6toqIiK6t0hU5dggcG9t1cFyXsAu242K6TvxvPdleLxkZWThOiECgHsO1cV0Xx3UwDDDNyFFtEBnvNzfLjx32UF3bQH3YxvKamCa42ITDLgYGHtMk7DqEw5HA2WN5sCwLNxzGAEKKKzucWlREREREpLNSP2IiInIyrzHGJ3S/RUREdG2VLsZwXaxwgBDgGmAZ4MXACLs4biSg9ZgmBpHumh3XwbEdTMPF6zFxbIegHTmGbcfGa1lkeL1kZ2fQtzAfw4XKqjpqQg41dUEaCOACjguWZWBaFjgWruFgYGAYLoYBXo+Jz7Cptw2CaFzgjqQAWERERETkzPznWcKNAlq/UaD71SIicqJau940KYrtbBVNuraKiIiurfLJY7oO2YE6bMvE8PoIOS4ewAJsI4zPMvF5rMhh6IITDhFsqAfTwPJYmCGHMAamYeA4EAQy/T4G9CkkM8siHAoTaghhOg6ZlkGN6+DBIIQR7RI6A8tjYYVdvNgYpo0TDkcCZjOyIX7LwYtBnW3qDOggCoBFRERERDrdHYTWXhEREemoq8wn4Uqja6uIiOjaKl2T4bp0a6jBwMW2LEwLbMfBcaJdOuOS5bfAdbEdA9PyYnk8hBwb1wHLMDFMA4xIhXAIm1A4TDBsE7aDZPlzCTgu+A0CjktdbQOhYBjTBI8LPo+Jz+/FsjyYZhiPGelu2nYNDAPAIGCDYZp4TciywtTaFiqXP3EKgEVEREREOu1NAxERkVN7LTK62P6IiIjo2ipdWX64HtMA2zDBMDBdF8N1MU0D0zXBNPB5TMK2g40HMjIxMnyEgvXYIRuf4WK60aPUANMwME0LFwgEg7h2GNcJk+HLoCHs4BhBguEwPo+JabpkmBamaeC6DpYRqfi1wwY2Jq4BrusSsCPjCjuWgwcHy3awLZ8+vBOkAFhERERERERERERERESkC7HCAUyvQcj04BgmpmXh4mKZ4PP48JhEx/w1MA0TTA9OVgZOhg/TCeEEQzjRZbk4gIHXY5GZmYXfa+DzWITDYQygtraGqpo6jlbVE3TBxCTT58Hn8+FYXuobGrDDIXBcwmGHgBMZH9hxDEIOGK6DZVn4vR58bpiw6xAyTH2IJ0ABsIiIiIiIiIiIiIiIiEgXYThhDNelwTAxLQOPx4NpAE6YTK83MravZWLg4tqRLqFNA7DDOCET03HxeiJdMdvhII5hYFkmWX4fOXndycnykO9zcOwgYRtqa+upbwgRdFwMjw9PZgbeDB9+vx/XMLAxqK1zCYZDuDaAg4uBY5gYFlimiS8jE1+mHz8GoWCQ6tp6bFd9thwvBcAiIiIiIiIiIiIiIiIiXYCBix+boOsQsg0yvRam6YLrYBmRsXcd18Zxo106Y2DbYRw3DI5LKNiAFxefFRkbOOS6GKaFLzMbX042vp5nkd8tl4xgFQ3Vh6mqPEbAsPDn98Rv1BKyXQyPBxcIBoNgefB4vPgzsnDcBgw3gO24hA0Lw7DAMLBMA9MAT7R7ao/Hg5Xh42h9IF6FLO2jAFhEREREpDP/w87QGIYiInISri3uJ3z/dRiIiIiurdJJZViRil7bdfDgwWOZGKaL67h4LBNcF9d1I5W4poUBuI6LaVr4vD5qAw1gmliWiYuDZZpk5uTR/+zB+LNzqAyGCePByutJhteHJ2jgdw1yC/rgq6ymvOIwXgNM18EOhXBCNq5pYeKSn+EhN9dLTSBIZV0IMDE9Fj7TINeCfCeE5YLhuLimi99rsj+kCPh4KAAWERERERERERERERER6eQsHHyGQ63r4AKGYYJl4RoOpmXgs0zssIsTdnAcB1xwXAOvaWFlZuHNyCYYdvBgg+tgGC45uTmcPeRTFPQ6C9ewyAmFIVxDXc0xsnK70++8s3BdB9OyKOhpk5Obi9e0wA5RV1NL1dEKAoEGvBb07dWNXJ9JZW0A93AVR+tDGFj4TYNupkGBZeBxHEzDxjUdevptah2otA19uO2kAFhERERERERERERERESkk/MZYYIhGxfwej3gsQgZHkwTDGwawmGcUBhcA8c1CLsOhmHgtbx4LQ+ua2CZFpbrYhkGmbnZnDd6HBk5eTguuI6B6bOw/BaGaxNyHLIzczBNsAwwDIOMjExcXOoDDfRwDcJV3amrPoJjQF73npTv2UlVVRVOqAG/YRBywuB6wfKALzLusGlaYNiYTgP9rVoqKy19uO2kAFhEREREpEvQ07AiIqJridpDRER0LZFPKtO1ybBc6mwHy7Twer14LAPLdXBdsB0bNxgkLyMDw7Sorg/SEAzi9XjwWC7BYJBAIIQTCmFaBh6fj959i8j0eAFwXBfXcXBdA8ey8GV1py4YxAE8holhGriuTSDYQE1tLYbHwnWg+tgxjh49TCBsw6Ej1B85ihNqiHRFbXhwMLANhwbLpspwMFzI8Gfg83rwGCY5hkN2LdSGFQK3hwJgEREREZFOz9WNBRER6cBriujaKiIiurZKZ+MzbcDFBDweE8sEXBfLdQjZLmHbxnAN/D4PjgOu6+K4YJomYdshGKzDxsAwDDxZ2XTr04f8XoU4hk2woYGQ7eJiYGDixYPl9ZLl8UbGuMaIVAi7UF5xhCNHj2G7LuFQkOqjFQSD9YRCYYLBIJ5wJKj2mGAZLiYOjhMmEHZwbZdQyCY7ZJOd6cFrBmgIhsiyTAXA7aQAWERERERERERERERERKSTMnDxmS5B28U0wG8Z2K5LyAbLcgi7BiHXQ6bfTxiLQDiIbVh4vRY+r0UgECQUtvF4PFgeH32KB9BvQDGmx8ORyhrC4Xo8Ph+W5SEQbMBve8kgA4/Hg+0AOIBLOByibM9+jlXVEwgGCDbU4LccXMchGApih8NYloHP48FnGTiGQTjsYho2Ni4BBxoawjjhekIhA4sggZCNYRAJijH1YbeRAmARERERERERERERERGRTsrnMfF6/GA5GK6LYZq4IbBtA9sFf3Yued27U9AjHx82DQ0BupseAoEQwZojhI8dxetCbl4+xYM+RbeCnjQ0hGloqCEzIxPLdKlraKC+IYDfn4Hf5yUctqmqa8A2IuMN+ywT03WwwyFCDXU4oRA+J0yOBxrsELYdIsPjIctj4cHEMgws0yTDA6bXhy/DC44BgTqCTphw0MF1XFzbwoku2zEUALeVAmARERERERERERERERGRTiovNxu/x8K0w9gNDdiOg42NaZr4s7LoPeBscnsWRMfVjQxz4QKhYIhjh30EAwGyc70MGToSX1YOpunBdCMBbHVVJfWBBizLQ0GPnmRmZWNZFi7QYDsEwzZuKEyGJwPTAI9hYLphLMMm02eR6XVxHROP4SXL78VrGrhhMA0Tj9eDZViYGRlYPh92KIzpacAOxMJrD65h47ouhmuDoVizrdRSIiIiIiIiIiIiIiIiIp2QaRr0KCjEcV3CdTXU1Uaqb23bweMx6NarJz16FeDPyo6M4GtExvl1HAfXNcjIzqN7Qa9IhXDvPjQEQtTW1hJsaODY4UNUHSknv7CQHj17kZeXh2VFxv11HIdu2VkEbRtcF5/XAhyy/D4y/RaO7eAzwOeJrsuyyM7wYpnQ0GDjEO042nCxHRcnZBMOBgmFQziug8ey8Hq8YDjYdhgnHCaECxj60NtAAbCIiIiISKdkEHleV0RERNca7a+IiOhaI59UmRmZeH2ZhMIhwiGHQCCEHQqBYeDP8tGzd2+8Xh+O7eDxeLFdBztsY9s2oWAI17DoeVY/evTsiWV6sJ0GqquOcXDfPmqPHsUNNZDfvQcZGZmYpolthzFwMQwDjwGmxwLXxXXBdR0syyA7w4ttG7jhMIbh4vNGQmN/RgYeE4J2A7UNIZyGII7j4hqBSFWxbVMfaMDEwOv3kp3lwzShvqGBsG1jui6OoQC4LRQAi4iIiIiIiIiIiIiIiHRCBi5HKg7h2A6h+jq8loXHAMM0ycrKwnFcautq8Xj9eDwe7LBNMBTGDodpaKinvr6e3gX5WG6YYKiBoxWH2fvRhzTU1uC6NpgmldXV1NfXYVomGZkZeEwTx3EJ2w6ObQORSuRw2CEUCuIxDLxeL7Zl4WBjeCws08DxeAjhEjQs6t0wTtgF18AyHQwiVcXh6H5luC4G4LFM/D4/gbADQT1A0VYKgEVEREREREREREREREQ6Ia9lYtgOJpDp9+P3enAdB8O1Me0ABw7swfRnU9irD3l5eWAYYJgEXZdQMEj5gf1kBI9gV/ohsxuBujoMN4xhAB4vjgEh18W2HTIzs7AsE1w30uW07RAIBCJVwQYYhoFrmoRcF49l4fF6MFwHXAcXqA3a2LZLvW3gGBaG5eAxLTxWpD7esW0Mrx/XMAgaHuocg1xPJn6fQbblJVhVS0NYIXBbKAAWEREREZH2Kf48119UzWNP/D359bufZs0UP+XVsPf17/GNBzbGJ33+h08yr7ic7e++yG9+8Vf2pixy6LXXM/b1x3iyrLmV/js/f+YKBgFUb+Dh6+7ir6e1ET5D6W++xWf7+AGo2vIHvvq9p094qZ//4ZPcOCYPgF0rLudbD+twExHRtVXXVl1bRUREmte9Rw+ysrMwTBPXdXEcGzccJhyoIxiox/R48ft8eL1eLNOMj/9rmgaGAW64AQIhwlaYMF78PpMe3XMIZGVi+jKwDRO/L5PMzEw8lgcXB9t1caMVuoYLlmlhWiaOG8bj95Np5GHg4jo22GFM04vjgmuHCNs2Di4er0lmphe/14thGriOQzjs4HNcXMPEMi08hgk+Hx6fh0yvj6ANDZU1+tDbQAGwiIiIiIi0Wb+v/JRf33w5A3Or+az/i9zw6F6GTv08A3Nh8Ln9yO2TS26fw+z9v758/sq+BA9u4qU18NmJYxhaDEMLq/jNLxJuLxd/lZ/+4ltcPiSXwO5B7L38Lv6efs0MGjKQgQDV5RQ2t4F3P82GKwd2yL7ufnYsX7wnzYTir/Lz35ZySXHkBjX2YTa+P5Gf3jcx/YIOrOH2n7XtBnZh8SAGDsmN/LJFx5uIiK6turbq2ioiItIyX3Y2nkx/ZAxdDGzHgXAQw7BxXPBnZZOZlYXPFxmH13DBdQEDvD4v3XP9ZPoNXNOHY3kxDRefaeLP8uLL7Q7eDLrldyM3Nw/HdXBxABc3Op611+vFxcUwXFzXQ25eHqYBoWCQmspKQiEHvy8Dn+XB9DmYDUEcGvD6PBQWdic7KxPHcbBtG8cGTAPL8uC6EKgPUFdfi21YeDOyyOvuoUIBcJsoABYRERERkTbbe9CPLxcgl4n/fi/Xr7yBQbcu4ItJ94V78pk7FvAZoHrNT3np40EMK46+/4PnkyuUyvaCP3JT1j/wcm7/75f4+wc3sOaOieQ2txG5E7l9+3ZuT3qxmjX3T+QGnx9/lr9D9tXva/ra0Bt/zc+//hn6Ja7C6smYz1/OmOYWtDvQ5pvUIiKia6uurbq2iohIRzHANCN/4oITCS67mgMHDgCRMXgtj4VpWvgI44ZC1IVs3PoAeXndyMrMgZzopdY08Hq8ZGdmYGVl4DFC1IZCfHzsIE7Yxgo3kOHxYgRtevU7h6ysbEzDwrEdTCtaOWyAjYvpiVQV4zpUV9dQV1ODC4RDIWpq6wkHQ9gOeLweXMcl2BAgGAxgGC6hQIiQxxMNgCOhsulamNi4rksoFKCqqgqv10tmZiZ+n1+HdRspABYRERERkbZb9S3++9kX+fWV/SB3It/6WSkvRScFdv+dl7ZWAdBv8uWM6Rl5vd/XxxK7h91vyq/ZsD76y9E1LLjkG9x+//OMWXQ5/Sw/A6/6Hj99aA27PigkL2nFefQd0hM/gF3N3t3lBJOmV7H3KPDOSzzv6dv89g+4gMtHRzbs8Kbnefuj5mfd907jz/0+X8r3bvwSnxmYcOs8ECBgp3mj5cef8G/SQF2VjhuRLqRv377s27evw+cVXVt1bdW1VUTXVl1bpYOZZmS8WyAeBjt2l9vN2rpa7FAYwzLJyszAY1k44QDhUJDqkItrWngsH6FQCMdxcZ1I+a9pGPgNB9e1CYdsagJBDh+uxnVcPK6N1zAxPPX0PXsIpunBMExMK7JOx3EiXUCbRuRPA8LhMJVHj1J19Aj1DQEc28a2HVzXIRgOYhmA7RAKhQk5DqFgPcGGWjyeyEId1418TIaJZVlYpokdtqmrr8fyesFw8fsVALf58FcTiIiIiIhIe/z9zv/mpX1A4DAb12yPv+4fMJFLpl/CJdMvYWj32Kv9+N5nEkqY/JEqIn+WH3+eHx/Aqtv575WR2qXAgX2UH/wNr33Uzo366DXuehb488+5/c6n2V53Inu4jzV33s7P/wyMLuUPr2zgxQU3JN+gppqNT3yLsePGJvx3Bd/700bKE+YKlL3EgtsWtHnNgwpz48sv361jTeRM07dvX1566SVeeumlVud97LHHeOyxx+jbt68aTnRt1bVVRHRtldPCaOX3riHQUE8wFCQcDmM7TiSMBUKY2NGCZ8d1CIZDhMIhgqEQoWAQ13HAdXDDIYKBINW19TQ0BCMBbcgmaNvg8WFjRcb8xY1U6obD0RA5EtQapoELGK5LuK4Go6EOt66WUF0t4WA9dqABp7YWp7oaamuwAvV47SCecBCnvo5gdTXB6mrCNdWEq6sJVh0jWHkMu7oKo74GKxTADTRgh0LxbqeldaoAFhERERGRdvo73/rxXXyx/Gme3gr3XhS9CVtVzr7DkdqhvL4D8WcBgy5lYrRaae+a59mYEa0SqtvN3//6GjtiS7z5N/z8Pxv46y/+yl7g3hsHMrC54QatXPoNSenE0uqX8MtQPvv5y5mY2/Je9Bx9OZePTjdlN4E7f87TAJue4rWPvsTEPpGnjAP7dlPdcyA9/bmMmbeAp32lfPHHu5k4r4Tbr7+EoT1jTyMH2Pv6r/nWv/8mvo+t+yr94jf3c+l7bj9I7tRTRM4Aa9euZcKECbz00ktccsklaed57LHHmDBhAmvXrlWVkujaqmuriOjaKqdNdKDbpN+7noa6BgzLxLQsPB4vGZlZkJmBJxjGEwrj8frIyMrCtm3qopW5JgZ+nw/T4yVsu9TUNxAIODguGJh4sMnLzib3nEFUuy55joMZtgmHQ9jhMIZh4PV5MU0LywTDMAgRwBNsIDsUwHLC1Do29Y6BZYfJcBx8uJiAYxhgWpgeC8O0Ip+K6zZ+RtFg2goHARevE6bBdXFDQWwnrMO6jRQAi4iIiIhI+616mraMvJfbPXqH+vDf+c0Nt/P0fz8fuUltl/P2PY+xJj7n0/zmF43ve3JhKW8n3WS+lG/ddwn9AKo38ocfPcH2xMnVzZT0pHZpmduXgbEbzgd2s6+6cda8vgPpmZW6gL08dkMpgx7/FnlrHmXBL/4Kn/8pv/7vyxnoz2XodQtY8/lccrsnb8vzi0q5/Ykd7WzUvuQl9M3Z79xrgAU61kTOIPv27eO73/0uP/rRj5q9UZ14g/r6669Xo4murbq2ioiurXK6OE6aMYC7Htt2wHbw+l38mRl4M/zYoRAGISwDsjJ9eHwebNehvqGecDiM3+PF7/dh+TMx8woxAmGchnpMjw/TdfFikenPIic3j8LcXOrDYY45QfI8HkwDAsEgYdsmKysTF3BdF8vy0C2vO8GP92K5YUzTAAx8QLYBPgxcDEKWheH34/H5MCwrKaN3XRfcMITCEAhB2MYLGDiEbJtwMKjjuo0UAIuIiIiISJt99ZcvUjqxMP57+ZoFjTeau/djYPfk+avX/4Hn8i9h7MaX+P/Z+/f4uO763vd/f9ea0X1ky7YSbMsxKDgPLEOJE4o4hFwgl/Y0ot1Y5BGaDbEc+KWYczbmEGKfUjvQ2NDGJDk1PA6BbIiclGY3j6DQvav0Eifk1vJjuMSh4HEfhCgktmMS2Zat+8ystb7nj7XmJo1k2Y4dafx6EmFp1po1a75rSR/58/Hn+01KuuEt0XP792unpK29KXUWdSP1PbJd/VdvnL7DKHGh1v31hZMe/lpfj9o6tpQ+OJrSg3+yTjtzX2/rVWpN+IIHftShjs2FXSeeS8Ez2vLxZ8JP33mZ/uzdjRocSitcjLAoQZ3er+f/105t/dKD2nsyg7u2TS1u0dfnrdYGSTu47YBZZbpENQlqEFuJrQCIrZhNbEWu+TtRrKZKsbhRYkG9ahPVcow0OppWOpOWgkCjo6Oy42lJjupq6xT4vkbHM3Il1VTH5cdrNGbi8uy4jHHkVsdVN79Rdc3nal6iQZJ0cGRUQ2MZtTbWq9r6MjKKx8PSrBdNzWwUqKapScaNyTFZxa1RtWMUM65iUrgGcFW1TG2t/HhMJhaXcV0Z48gYR0EQyESFesfLSrEx+cMj4ZTUJlAQBPL8gNt6pvcFQwAAAABgpqrq5qm6rjr/9by6Km3paNMWSdrUo9TalZKGlLyjXevul3TeDdpxb7NWfmyjtu5PKrUgzD6nhw5N8Qr92v9Cn5oTJ3FyL5eZ0jHRro2plDaW2b11TUqpNdMfsqW9S10feZ/aVrbq/PNalKgus9PoIR0aTShR16yV196qB9vbte0PN8yoi6vYte89XyVvu26l2tdLuof7DphtyiWqDxw4QIIaxFZiKwBiK3DGxWprtfDchOY31ss1UmZ8XOlMWllrVVNVpdr6elkZZdJpZdNpBZ6nwaNHNT4yqER9nY4dO6ojw+Mayfiy1lHD/Hla2LJc5yxoVLUbaCg9rkx6XG+prZHxsxoeG1MsFpMTc+W4rozjhFM2u3FVNTaqqnG+xrIZWS+QcRyZIFBgjHzXkVtTLcVdWRn5xsjIyBgjY6TASLJWQeArJsm4cWVdV8Pj4xq2rlzPl5NOc8Fnel8wBAAAAABmKjN6TOnRqqJE9eXqTW1UaXNPQu2bUkptkjS0V8mBaknVav/Mgzo/2qP/5TCFu7+vT31+o5auWKTwiI9qy8cfldbvUO8fnj/j83rxXzq0YYpkbnq06C+IbnXYXCRJ6bTSxf8YvLpa1W7pc/e/43J9+I/bNSln7qd1qO95Pf0vKbWsuUHtS6OD+of0/N602v96u9pLnnBAydzah2V16sPvWjThsWpdePVmtdyzjdUKgVloYqJ66dKlJKhBbCW2AiC2Amec48akeEyDQ0M6emhI6bGsrB+ouqpKi5YtU+vbWiXjaGR4VNZaxaurla2tlZFVoEBDQ4MaGhpR2vNVX1+rxecs1OKmeapxjcZGDqva1KiltkqBn5WfDZT1sjLGyNpoymZj5TqOXOPIxGrUtLxVwyMjGh0cVFqB3CCQ7wdyrZHr+fJ9X9nAyolXScYJ30NURHZMuNbvaCDJGmU9q+Gs1bhj5WY9BcOjXPAZogAMAAAAYMYe/D+u0YPqUncyN5Vkv158oa+wxt/AfvUdKlqTZyil73/3RS39eoda6hYpTMMeUt+PwrTrtz/boW9rq3pTnaWJ7qXnq3VF68xP7JdTPD6U1I728tNU9j26+vjTVN7/LT39p+3qOE9SekiHXknpx0/2qvuR/Wr/zBat/8w6JYoT2+4iXfgHHbpw0on0KT1Nkrpl0w1qz+Wo/bTSihLm77hMt35Q2vAk9x4wGx04cKDk66VLlzIoILYSWwEQW4EzKsh4evXVw4pbX0Hak5f2ZQKruqpqJerr1VBfr+qqGi1oWig/COQaR8FbAhljZWUVr0/o2O7nVZ0dU9vyhWpyR+UNvKLh6gZZIzkxIy89ptGxMR07dkz1DQlV11TL9zPyPEfxqrhMVMi1Mmp4S4tir/fr2MCgRsZG5dhAjm/lGCM36yswRoGsHHc8DPVWcoxVTFJDPKaYfI1mAo35kvUDGcVUV1OroLpG6TRrAM8UBWAAAAAApyClDX+ycco1/l789y169Elp6NEL9a0/bgkfPJTSrv810+MP6fn7btff/brMpg9u0Nf+oGX6p5/iNJVSUl//xhY9P5rSg0/uld7ZqQ03r9POR1tLktMlnVCR4uk8lU5rcKqXOK9LW9esVL556hff0rf0aW24qFpSiy773Fa1P7mlsB4kgFmjeF1CSZPWLQSIrcRWAMRW4HSLWauhcU9eJhN22TqujJHSGU+v7Nuv0bFRzZ83X4uaz1VtfYNkjFzXleO4clxH85sWaNWK8+RmjmlefVzZ9IjS4wMaCxwFVQnFE/M1ODSo0dFR1VTVKeYajQwNynWaVFsTvpasVSDl1/E997zz9LtDh3TkwKtSYGWCQEaS8a1kjKxjZIwnIxuuRWylOkn1GU8xx8rzjcatUVpGsVhMxo0psFY2YA3gGd8XDAEAAACAU9Ollubo06YWtTYVbSrXPVTXqJbzJL0yk2MndOF/3aaVfplNbvUZeXf7f7lf6TWf1oNffJ8uXDphwsqhvXrw9g3a9mjxRJIr9Wff/rY+fWl1lHgeUvIbG/S1skdvUddfro86viRpv5757rf17fmr9V8vukyLJFWv6NCWbbvUsfkZbjVgFilOUHd1dWnp0qUl6xaSqAaxldgKgNgKnAlGUo2RfCPFHKOqeEzWWvm+r0OH+zU4NKD62jq93t+v85a/VfPnLVA8VqWqaleOY1SrrM5pkEy2RplMRsODgxpPpzWW9TViB1XnWx0bGlTgBXJNXMNDg2poaJTruLI2UDadlpcZk81mFQSeXFlZz9M55yzUkcNHFIyPS7Iy1sraQFZGNjDRuYcF3SorNcooEUhyrMaskbGO0q4jzzEyvicFgRwu94wxVgAAAABOSct/u0YXJiQpree/0aa2tu1KDhW2X/aFB/W1Py7qJqq7UF13bNBU/UUt71ypllM6o8f1rdtu1a1f6dHzA1L6lV3a8aVbdev/fau2P3sov9f+fw0fy33sKps0b9Gtf/Mtbb356skJakmqqlb1aCFB3XLtrXrwmR5tuDRad9E/pOSdnVp33/6yx+76fx/UhkKGWkM/ejCckvIH29Tzi1znU7Va13xN3Te1cLMBs8TEBLVUWLfwJz/5iZYuXapdu3YxUCC2ElsBEFuBM6K+ytH8RqPEPKP6Bqm+QaprkGrrjGKxQFlvRIePHNBLL/2njg0e0dDooDL+uHx/TNnBg1I2o/HxtI4dHVI6k9XQ2LiGs56qamvkeRnZIJDv+/J9T8YaWWuV9dIaGx3WoQMvaeS1Po32vyDvyEvyBl6WGT2kxhqjRQsSaqqNqSnuaH7caH7cqNGVGoxVvazqJNXJqM5I1UaSscrKaNwGSsuXZwNlAl9+uOAwF/oE0AEMAAAA4OTFV2v7xy8ME7JDfUpf0qveaxsV5nOHlG58UF9bc6HCNOyQ9v5nWivfsUjV775BW9fu0Lr7Sw/XeGGvej7Yr3vy6/IN6fm/O9FpKvcr+a/71fX1TVrZJFU3Xa0NX1yp5N8/Kq1clD/ugZ89qkeLpsvsG5Iei867r+hYX/vcTq1+5M90YZ2kgT4lH39Q33r5an39C+1KVLeq8697lP7rHjX+6ad19TsX5aebLN/BlJPrZCrafyCpe27fmX/dHd/o1dX/b6daqyUpofYv9OjB5tu18Y5HtZ87D3jTlEtQ5+QS1XQrgdhKbAVAbAXOJCdw1NQck2RkosesdZTvAzWOjBy5sbQ8m5YfuDo2MKp6x8o7dEjB2JiGR0aVCTyNe2NKG6tYXY1MbSCZUcWqxmWcQNZYpbOj8oaG5MZ8Zd0ajQ4e1KKGWlXVhBHYSPK8rOJuXLUNMQVZV0HWl7VGJpAUWMlKJvxDkhT40pisso405rg65kmZwMoxklwr1wRyDD2tJ4ICMAAAAIAT0vKx1VpaF36eWJRW78PPq2Xt+Xrx2xuU6nhM63LrFQ69qNRoo8Iv0+p75FZ13rtaDz7yZ7qwrkpLL7xBuv/BkmMvam2VRgc1L/9IQhfe9DVdeBLnufOzN6j/th267WMrlahuUfvaPytsHEjp6b8r3X/vk49qb7kDvbJDO75ZpfcN9GrHD3J7PKhbW3u1Y02rqhMrdcNXNpc8ZehXD+r2L2zTo+U6n955g3bceauuPq94HcM+9Wxep53F+/9oiz799236x7W5NQwTunDt19Tz/su14y826sFfcS8CZ9rSpUu1dOnSsgnqnOJE9dKlS0vWMQSIrcRWAMRW4HTwfSM/a1RTZ1Uoq1qFBeFcSTiQ46Q1mhmQU2U05mc1eOyovOFDygyPKZ3x5MSMqmodxeNGxgkU2FFZSW4skOtKjvEUyMgGIxoczqqueqGy2azG00ZVMVfxeJUkIxsEcrJpzauPyTcxBdaRtVbWWsWDsJnXFnX0uoFV1kpZSZ5xVO27cqwUrlhhFHhG6VHDhT4BZskFl9AzDQAAAMy+X9ULf2GzkjVltlsrY6K/2lkja6Wm+OHTelaXfeFBfe2mXNdRZKhPux7+vnr+ZafS792szguqdeCXP9buXzyqZ37Voq7u+/TR13bo0/932F3Tvmm7rv7V1wvdO2u7ldzUXjim36cH/6d0w5pWSWn1PbtLqYEyJ7P8fep4d9h11PdImzqK8sQrP3itWles1uUXt+nCd16olqby7yc9mlZm4ID6Rwe1f+9+DUaPD/Y9reQvfqFdydL1By/749VaffFlan//aq18S0LV7oQDDvSp95u3auPf7Z1i/Lq17b+2a1HxEov+ISX/nxumnMryhv/nPt36By0qWZXRT6vvf25Ux2amwQPOtKVLl+rAgQMz2k/SjPadDQayC2WiafeMohn2jFEhgRhFH5sLUUVxithKbCW2AiC2nqWx9cwaHhos+XpR87kaHRliYCI1tYEWvsUv3EvGFhV/ozV3jVFNw0LZunlKZ9MKRo7Kjo/K+r6sDW9R1zUyjikcRlaFIxV+gTImppipV3Z4XIkqo/n19aqvq1fMdeVnMhofS8tzYno9M6CMMrIKots7/J0rf6cX16ujzwPZsEgcPTTwuqP0GAXgnLr6hA71vzb9b74UgAEAAIDZaHYmqf/se7u14aIwXXrowCElli4qTZ6egPRzO7T6499WV3dSG3Nr9eWmdvzfvqXUmlZJQ0re0R5OZ7l+h3reK734WlpStc6/9GqtbFK4z53tWnefdO3Xn9HXrlo09Yv6ktwZnZ2ev+fDuuHIrXrss5epuapa1dO80fTv9mrX97br6/clp51CsuWmbvV8oSghn96vXXfcpA1/P+2zJieqB5La/qcTupoA4BRQACa2EluJrQCIrbMdBeDjO2dpoOraXOevSgvAuU+dmKwTl7W+jJ9Vrsxqov83E397MmV+l8r/7iT5XjjdcJ0T07zqejXU1ctYIy9r5VlXg86IhtLH5Fsv/7zCd8LE74nS4rC1Rulxq9/t4/ui2EwKwEyYDQAAAGDGvt2T1CFJQ8ntuuHqy3TDV3rVN5A+iSMdUrLn25KknV96UM+PSulXdmnbdZ1TrOsn6UC1mtuvVscfd6jjj3MJaoVTTt4XfvroZzerp2/C+fhpDR14Xrvu3aLOd12jdV/6tnqefV59B4aUnurU+3q14xv7pb/brQMqn6BOD+zX849/W1vWXaPVH+rUxuMkqCVp/33rtP3JQ+Hzf/eMdnzimuMkqCVpvx78v64Jx3ooHLtn7iRBDQDEVmIrsRUAgFKDRyTfy8j30vL9cXn+uDw/Hf0ZfWRHFGSOyWZHFAQZBUFWNsgqsJ6k0g8rT9aGH7JZyXqy1pe1gWR9yVi5sUA2FmjcyepoZkhjvlW8qUXzlq9S03nv0LymFsXcqqggLTkm7EQu+cj9z0jGOHKixx1HOnaE63oy6AAGAAAAZuev6tGfs6tLSbpWt97Wot7bv126pt87L9O1rQlJLVr9/vPVeLzDjKbUc/tOJaMvWz52gy770YN6MJd4Xb9DvX94vqRB7f7uDdryvySpU1v/xzqtrpPSR14Mu5XSB/T0d3eUrgf4wc3q/txqqS+l53+2S4/93TPl1x/Ma1H7H7xbi6qllndervMb03rxX7fo20+GW9v/ulffuqpZ/Qf260Dfi3px7y7t+pddSp50krhTt36xWr1fffA451XOSnV+pFk9P3iGbxEAbyg6gImtxFZiKwBi62xHB/DMLDrXV21DkL//CreUKf2VKN99W3pfHn+i5XJ7hM+POXGdt+RCNTWdJydWLd/3NTJySK+8ulvj40fDbwQz8Vg299+kY48MGx06SC/rREwBDQAAAMxZszVJDQCoRBSAia0AAGLrbEcBeGZicWlZa0yOk/u9J7rJjKJfgGzJjNAz/fUp/KMwSbSN/r+wi5XjxtSy5GIlGt4ix8Tl+b4y2SG9enC3RkcPhXvZcvd4uOZvyedWOvCyKy/L2r8TzaQAHGOYAAAAAAAAAAAAgLnPy0pHXpfesrQmLLbaQIqmV5aMrLUyTjjFcr6AG03DbKNicbjNyJio+9YE4bTPCqdvzhVoS5qIZSXHkZ/15ASS60rGceXEa1VbPU++PyYFgawtXkU4rETbIFCQrwCHf77+qicvG3BBTxIFYAAAAAAAAAAAAKBCHBvw5MaHlJhvZEqmdw6/Mo6Rk1uVN1qTN9xetKcx+UeizeEMzrkvVPRn9KlrJAWejA0kG8jIKubEVVfbpLHxAfk2Ha75m29KNvmFgR1b6A4eOOzp2FGKv6eCAjAAAAAAAAAAAABQQY68bhSP+6qpKzyW77ENpKifVyZXvy2q8oaF2XCyZ+O4irnVkmKyvi8bZBXInzCVc3icwLoaHRtQY+IcVbmOjInJGKOqeLWslXzfK7xWED6vZC5qazUyHOi1V7NcwFNEARgAAAAAAAAAAACoMP0HXb1lmVV1zYR1dKOqr7VWTu5rSZIt6fA1xlVNTZPqapuV9oyMCVRjxzSUPqKMl5YN/MJzoimlxzLHNDI+ILeqVnHXlWOkeLxGsViVPG9MxiiaBjpQuEax8q89Phbo1f0eF+4NQAEYAAAAAAAAAAAAqDBBIL223+gtLVJ1Te5RO2EvW/KYtVFXrnEUizUoHl8suQ2qq4rp6NCg5icWqKZhnl470qdMeiScVNqGU0tba5XODOnw0X3ynVrNbzhHNfGY4vEaua4jPxhVbh1iG712rpM4PSa9tt9R4Bsu3BuAAjAAAAAAAAAAAABQgXxfOrjPqnmJr9q6cOJnGxS6dnPFWFM0BbQ1UjxWp7rahfJsoMWLGmRijmrmSXtSL2hx83w5brW8YEBO1MVriwrJQyO/UyzeoEWNzTImkGMUdgAHWZl88dfki8BjI44OvRpTEFD8faNQAAYAAAAAAAAAAAAqVBAYvbY/pkVvkeY1mfw6vEZG1gb5z0Nhgba6qk6JRJ1+e3hQ1eOHVF9jlc0OasGirIKarNJZV64TkxTIWEWdvFFJ1/pKj7+usbHX5NY3yxijmuqEXFOlwGbCaaDDHTV81NXh1yhXvtEYUQAAAAAAAAAAAKDCHfqdlB03an6LEy0DnFu7Nyz/WklOVJw1kgI/o2w6rVdf7VddtTR89IiaFtZpLJORH/iKyVUQPTP3vLAd2CqTGdXhI/tkgyqNjWU0MurL82pkHMmN1gE+9JrV4FG6fk8HCsAAAAAAAAAAAADAWeDY0UCjI4EWneOqoTGICsBWNuri9SXJSJnMuAYGBhQMZTWvsVqZcV/HjgRyg0D1dZ6UHVPgBwoUyBijIJxdOiwcW8kGngaOHtLr/Vm9/vqAstmM4lVSfWNM1pOOHvLlZbkepwsFYAAAAAAAAAAAAOAskc1KBw/4qj1qNX+BUW2dCdcAzq/lK9nAV2b0mOQ7Cg57Mp6nWiMdePmAmptr1JiIyXFcucaRZGSd8NhGRlZWNgiU9tI6dPSQqhtq1FhVK8/zNTwwqrFhKr+nGwVgAAAAAAAAAAAA4CwzNmI0NiLV1lkl5lvVNxgFgS9FRVzZQLG40Wh2TKbKKOY4al5UreoqKQhs2O6roLC/FBWEwymeXWM1f55RZnRcR/t9jY/4DPoZQgEYAAAAAAAAAAAAOEuNjYYfsbhVfcJVfYOj6hojK8l1JVvtyEqKWStjYjLGyFFh6uiQI5mwHCxJ42PSyHCg4aE0Uz2/CSgAAwAAAAAAAAAAAGc5LysdO2J17Igvx5Fqah1V1xpVVxvF4kaua+TEjBwnWus3kKx15WXDaaUzaavx8UDjY1YBzb5vKgrAAAAAAAAAAAAAAPKCQBodCTQ6wljMRQ5DAAAAAAAAAAAAAACVgQIwAAAAAAAAAAAAAFQICsAAAAAAAAAAAAAAUCEoAAMAAAAAAAAAAABAhYgxBAAAAAAAAAAAAJiLfN9XJpOR53mSLAMyJxnFYjFVVVXJdV2G4w1AARgAAAAAAAAAAABzju/7Gh0dFYXfuc7K87LyPE91dXUUgd8ATAENAAAAAAAAAACAOSeTyYjibyWx0TXFqaIADAAAAAAAAAAAgDknnPYZXFNMRAEYAAAAAAAAAAAAcxDdv1xTlMMawAAAAAAAAAAAAMBJuuht9bq4tV5DY76Gxn09nRrS8LjPwOBNQwEYAAAAAAAAAAAAFaOlpUVLl7YomfzxaX+ty1c26oIlNZKkRK2rRK2rjovm6+9/dPjEDnTVjdqwql77nrlHjyy8URtWLSiz0xHt2fGAHp/0vAU6sudv9LePS1fd+Dmtapq830Wd63Vpi8Lj775Yaz59qZZV5/a7Wp/YsEoL0vv07Ld69NyJnPfqTn36smWq1hHt21+vZS3Svmd+o/rLVmnBwB7teGAXN+SbgAIwAAAAAAAAAAAAKkYi0ai2tjZJOu1F4Fzxt+T1a11d9LZ6PffSyMkd9PEHtCNXvb2qUAw+sicq6l41uUC8YNXntGFV/iut2vA5rZKkqKhbkCv+TthPkqqX6dIbr9ZzZYu2YZFYe/5Gf3s4V/QtOLLnAf123notk6RW6eCeI1qwapU+cdUu/e3jRc99nPvzTKAADAAAAAAAAAAAgIqxd29KjY2lReCWlpaSffbv33/Kr7N4ftWU2xI17oyPs+bTn4sKstKyyz6nT7c+q2/1/Dzq5pWkdNS5Gz2hTIH4uB3AE14zvb/oNRR26oafl3dR59u1QEe053FJ6tG3dk9+bV01oktb6qW+XXp8t/R4/gR26eDAKq16e6cuevwEO4xxUsySCy5hNWUAAABg9v2qHv1pw/9Mme3WyhjJSpI1slZqih9m6AAAJ2wgu1DGSDJWRpK1UvhAadrI2FyIKopTxFYAAM7S2HpmDQ8Nlny9qPlcvfa7A1Puv2HD5yRJg4ODSqVSSqVSuummm/LbU6mUdu16TC0tLTp2bFBDE44/ExcsrtHlbY1lt706kNGjzx2d8bHKT9GsfAfvc1M+p3qKIxYVjYs7htNHdEQLtKA63Cedrla10kpXV4cdvWWnbY6miI62Tf+6U5zHwgnF4mkkEo3c8NOoq0/oUP9r0+5DBzAAAAAAAAAAAAAqRnEBsbgT+L777ispAre0tKiz86O67777Tup1Gqbp8l3SVHUCR7paq1qqJaUlSRd1vjffEazqZbp0w+d0afRlev+z+taxVUVTQE+1LnC96t+1XhsuG9GeHQ/o2XlRgTm5R2q/VOGzq1VdHf053emtblS9pCOvhoXh53ruCQvSkzqApyvyHtSRVQtUP+9iST/nJj3NKAADAAAAAAAAAACgYpUrAre0tOQfO1m/PjiuxU3xssXe3p8fnfFxwumVJalayy77nM7Z/6z2DFyqVXX79GxSeu9lyzSyZ4+0apXqpfwU0Lmu4cbO9dqQ78hNa9/+EUnVWtB0RHt27NGR1cWv9nM98q0TLMAurFe1pOOuaHx4RGnlCtMXa82nV2nwW6XF6er6BdyQZwAFYAAAAAAAAAAAAFS06TqBT9bwuK8XDo5PKgC/OpDRwaOZGR/nrc3VOjJwRAua6sPpktWpT18mHdnTo+cW3qhLldbrhxUWfyXlp2SWlC/LpnPF4nOifdLa98xBLd7wXjU+83P9tvgFi6eELjFhreHIRfPqpz3/Bas+pw2rpCP790mS6uddHHUxVyvdebEe7ykqONcxvfOZQAEYAAAAAAAAAAAAFe90FIF/fXBcKxbXlBSBn04NSQqniB4e9497jN/+Zo+kxbq0SZKu1icuW6bq9D795PGLtebTC6T0Pv12t7TqMmnk2M+lq27UpPJt9TJdepkkpaVjI0q3LNCyy1ZJ6X3as1tS68QnTCj2RtNGl/PcsZHSNX8nFJALUz5frU9skOqb36tLq6vLTwU9OsiNeAY4DAEAAAAAAAAAAADOBrkicFtb20mv/VusocYtKf4Ojfla0hSXJHVcNH/adYJznnt8V7imrqq17LJVWpDep2e/1aPnrlqlZdVSuv+3ei5ah1dSOAX0niPSwB7t2PGAHun5ifbseVY7dvyNduwZUb169K09RySltS/ZEx07d/wbdVX+889pw4boY9U0UzMfHlFaitbvjV5/x9+E51DiiEbSUnWu+KsbteHGq0v2SI8c4SY8A+gABgAAAAAAAAAAwFljYifwiWqocXXB4holalxdsKQm//irAxk9+txRNdS4unxloxK1ri5vS+i5vlENjfsz6AYu7sq9Wp9YtUDSEf2m5+fSVatUHU0FLV2sNW9fIFXXa83qI1L7pVqmfTry+AKtWrVACwaulh44qCOrVmnZu66WFi6OOniPaM+OB/T4VTdq1Ql0AGv3oEYukxZMu35v8bTU0TTQqpeaFusqSY9ftVgLJB059nNuwDOAAjAAAAAAAAAAAAAqxtDQoO677z7Nmzf1erOJRKPe9773SZKSyR/P+NiL51ep4+L5ZbcdHMjqgsU1uryt8LpLmqq05OIq/frVcT29d6bTH+eKqbl1fD+nDZI0sCcs2EadwUf2hAXci1rfq3PqByXt0p49kg4f0UX6ufbsf7ve29yoqx5/QDsmTsWc6wC+rPix9BTns0t79r9dlzY36iJJz5UUe9MaUac+vWGZtP9Z7ej5uS7qXK9LWy7VpZLS+3+ixxWtI5zepz2Pc3+eCWbJBZdYhgEAAACYdb+qR3/a8D9TZru1MkaykmSNrJWa4ocZOgDACRvILpQxkoyVkWStFD5QmjYyNheiiuIUsRUAgLM0tp5Zw0OlxdNFzefqtd8dOKVjrlwZTgXd0/P9GT/nY+9fqERt+Wmdh8Z8PZ0a0uKmuC5urS95/O9/NNd/pwiLviq3ru8b/NxEopEbfhp19Qkd6n9t2n3oAAYAAAAAAAAAAMBZZ+/elPbuTZ3Qc4bG/SkLwInacGroXx8cL3n84EC2AkZrl/52x6434bk4GRSAAQAAAAAAAAAAgBl4OjWkJU1xLZ5fpYZaR4kad1JBOFHr6NevjuvnL43ogsU1DBrOOArAAAAAAAAAAAAAmIMmT6t9ug2P+/r1QX9Sl+9Eue3PvTTCZTrha4qpWDuz+91hqAAAAAAAAAAAADC3WDkOZa5KE4vRuzqdIAg0k3/0wHcGAAAAAAAAAAAA5pRMJqOa2lrRMVpJjKqqqhiGKVhrZRxXmUzmuPtSAAYAAAAAAAAAAMCcMjoyokSiUXX19XIcVxSC5zKjWCyuuro6ua7LcExgrZXv+7Iyamho0OjI8acVp48aAAAAAAAAAAAAc4rnZXV0YEB19fVKJBpFARiVzSqTyejowIA8L3vcvSkAAwAAAAAAAAAAYM7xvKwGjx1lIIAJmAIaAAAAAAAAAAAAACoEBWAAAAAAAAAAAAAAqBAUgAEAAAAAAAAAAACgQrAGMAAAAIAT0KXu5Hrpm+1ad78kbVVvqlOt0z2lr0dtHVsKX2/rVerC3aWPHcfW3pQ6y71IX1LJ5na1pbarfd3O8LG13UpualPqjtw5zugVSt7HULLoeNPsr0fa1LGZuwIAQGwltgIAAMweFIABAAAAnJCnU/3auCml3hVt6ti8RR1thWRzV3dS63XPcRK8J25LR5vUm9I1/WHyuKs7qY3Nj0WJ7i51Jzeqd9tOdWyWtl7XLiW3lySop0xy5w0peUebOmaa1F7bomYNKfUC9wMAgNhKbAUAAJhdKAADAAAAOAE7tXPdTu3c1qvU1d3q2rxOO/Pbtuqj7VLqjp0nd+htvUqtmZhJHlLyuN1GO7WufWf+GJ3NSW3vKD2HLR1tKkqlqzu5Ue2JmRx7Ov3afz93BACA2EpsBQAAmF0oAAMAAACYsUJ3UIfaNnepO5nSxkTpPq2bUkptKn6kTz1tHdpSkoRuVSrVGX0eJYslaSip7e25xPdW9aauKTl2on2jUqmNucOG59M+4QTUqo2plDbmXjf/eG4qyrAjqe3+Mu+tPaG+GUw92XVFmxKSWtZKIlENACC2ElsBAABmEYchAAAAADBjT6XU19qpVLJbXdqpde1tamtrU9sdSQ3lkr+P9IXJ5rZoWy5RvLkj/Lpke4/6TuDlh5Lb1dbWpu3JIUnSznXt0WtEj/X15L9uK05Qb+tVKr8OYULtm1JKpUo/NrYnNJTcru+/0HXc8zi/OSEpobYrurgnAADEVmIrAADArEIBGAAAAMCM7bx/nTratiupdn10W+7Rrerd1C4l7wmnfNzcoZ7+dm3s3Vr2GF1Lmyc8cgame8wlyIs/7khqKNqcS363r9upnffvPM7Btmp1q9SXTEptl6uL2wIAQGwltgIAAMwiTAENAAAA4ASVrguYWtOqoeR2ta+TupMpNe9qU0dHm9SbUirZUjTtZJH+/ZMfm4HSaSpb1J1MqXSWys6i6S8VndfEV8pNVxklp9ftjB7r1e6SaS2nsG21WtWnnnVPqyW5UR/dJu3czF0BACC2ElsBAABmBzqAAQAAAJyYtd1KppLq7u5Vak2zkne0lUkES1s62tS2q1kbUyn1bis8Hk7xeHJKp6ncX5gms61NPX1SuCZi4bHS89qq3lRKqdQ16r9j4vYt6rijX9dMONfJutR9dauGkt/XFu3Uul19ar26m04lAACxldgKAAAwa9ABDAAAAODErGhWYiilp9et0zopWgNQ6mn7frj9wvDrZLJZ7W0pbW/rKOpI6lJLszSUevENPqmtWt06pKGhVq3eJmlC11BXd1Ib8+1M0TqFm8ofKbEmpdSFPWrrmNyv1NW9Xu2JPvXkktubv6/k1XQqAQCIrcRWAACA2YMOYAAAAAAnpGtpc8k0k1svzHXtRJ7frT61qvlA++T1CtderrbEkFJPRc9e26LmEz2Bbb1hwrm1U6lUr7ZK6uq+Rq19j6n9m0k1rwkfK7ZzXfvkdQrbtis5JPU9MvHxHvW1XqPuteVeV0reUTyV5U6t+2ZSzWuSk/cHAIDYSmwFAAB4E1AABgAAAHACunR5W0J9z0dp2rXduqa1KOksSdqi3X1S89IubenoUV9rp5LdXeGzr2gLO5zuP7FX3dqbUmdrtE7hhbvDaSr7etTW1qEta7u1vl1KPrxFun+d7kk2q7N365THSZXdFk5hGU5RuUUdbe1aV3yO0XqMfY9MeFyS7l+n9kf61b6JRDUAgNhKbAUAAHjzUQAGAAAAMHNRl1H/C5LUpe7PtCvR91iUuD1fzdG2Lc/3KdF2ubq0RR259QBzyeRvritMW7miWYmhfuUnrUy0a2MqpVQqpVSqU63Rw1s6irqISqaP3KreTe3qL0oe71x3j5LNnaXJ6G29SqVS6lT56Se19kV9v61HWpNSKlWabO7qTkYJ6jZ1TDUV5eYObU9K7ZtS+YQ8AADEVmIrAADAm4E1gAEAAADM3IpmJdSv/fdL0k6ta9+pXIdPmFDu0+77JalDbRMSuluva5eS27Xu/i51Jzcqt2xg3yNF6xgOJbW9PZfE3qre1DXTnMxq9aZapUnJ4/C8wo4kqUed6mztU09bm7Zo4pqFferZHD5np6SdbVvChPamlHpXtGn3hanoue3acpyh2bmuXTvXdiu5aaNSveeXT4YDAEBsJbYCAACcZmbJBZdYhgEAAACYdb+qR3/a8D9TZru1MkaykmSNrJWa4ocZOgDACRvILpQxkoyVkWStFD5QmjYyNheiiuIUsRUAgLM0tp5Zw0ODDAIwQ0wBDQAAAAAAAAAAAAAVggIwAAAAAAAAAAAAAFQICsAAAAAAAAAAAAAAUCEoAAMAAAAAAAAAAABAhaAADAAAAAAAAAAAAAAVggIwAAAAAAAAAAAAAFQICsAAAAAAAAAAAAAAUCEoAAMAAAAAAAAAAABAhaAADAAAAAAAAAAAAAAVggIwAAAAAAAAAAAAAFQICsAAAAAAAAAAAAAAUCEoAAMAAAAAAAAAAABAhaAADAAAAAAAAAAAAAAVIsYQAAAAADgRWdMgz1RLMgwGAJxWVjGbVtwOMxTEVgAAsRUAZowCMAAAAIAZCxPUNQwEAJwRJv8zl0Q1sRUAQGwFgJmiAAwAAABgxsLuJGlw4JA8L8uAAMBpFIvF1di0SJ6pJklNbAUAEFsBYMZYAxgAAADACQinpiRBDQCnX+FnLdMCE1sBAMRWAJg5CsAAAAAAAAAAAAAAUCEoAAMAAAAAAAAAAABAhaAADAAAAAAAAAAAAAAVggIwAAAAAAAAAAAAAFQICsAAAAAAAAAAAAAAUCEoAAMAAAAAAAAAAABAhaAADAAAAAAAAAAAAAAVIsYQAAAAADgTvnr7X+i6NR9WfX09g3EcIyMjeviRf9QXb/sKgwEAILYSWwEAAE6Im1h43pcZBgAAAGC2MdN+mXvAmNKva92x03pWnqmTJI2NDp/Q8756+1+o6xMfU1VVFZd2BqqqqnThu9+phQsX6Iknn2VAgLNYbX1CkhS3o6f1dcaDujCmmKKQY0z56GTKBiZiK7GV2AqA2HrWxdYzK5NJMwjADDEFNAAAAIDT7ro1H35Dj2eMkes4JR+MGwCA2EpsJbYCAAAwBTQAAACAM+CNnpqyKh5TLOaWPDY+npEfBIwbAIDYSmwltgIAgLMaBWAAAAAAc47rTu5KCg7/m/7bR/+7/q34wes3avfNK8PP+5/Qf/vY9/LbP3Drdn3jD5sL+/7qe1q94Ynoi7frS3//F/ovRZv/4951WvtQ9MV7P65df3WlFmmK7bpS9z/xcf0elwoAQGwltgIAAJxhFIABAAAAzDmmzNpZA7/cLd26XbuLE885UYL6bTu69Y13StJe3X3lRt3d0q3PvzPavuFlfenvu8PE9K++p9Uf+55ao0RzmIAuSjz/6nta/edP5BPVh/7lKyXbD/3LV3R10XYAAIitxFYAAIAzhTWAAQAAAMwpU61J+Mp//kxva2kuu+3Qz3+sf3vvx3XjO3OPrNSNt75df/ujvZKk//jB9/Rv168pdCW98w/0pfc+ocd/JUl79fhD0id2FHUdvfMP9CV9Tw/8Kvzy1Vd+I11/cX77oovfpw/85KBeneI9vH5ogAsJACC2ElsBAABOCwrAAAAAAOaUwNpJj3neiPpeerte+rt1Wn1l9HHv3vz2RX/4F9o9oWPo1Vd+E33Wr76XpA+cV7y1Wa1vUz6JLb1dredOPpeX9vdLkpac93bpoZ/rP6LHw6T4Yi2Z4j186v/6a/2PR3blv37i2Z/pU5//a5LXAABiK7EVAADglDEFNAAAAIA5xVqrbNZTPF7464wfHFLfT34TTlP5V82S+vUPf75Rq+8tWqewWP8T+u8PvV1f+vuVksJE88QOpyXnvV16RZJW6qrrf6O1dz+hD+QS3b/6V/3lT6QPXB7uu+gP/0K7W76n1VeuCx+4fqN2/9XKKd/Dn37kKv2PHzwuSTqnuUk77n1YG26+TucsauICAwCIrcRWAACAU0IBGAAAAMCck8l6kpRPVPv+W/T5J7qL9mjWf/n8x/XExx7RP3zkLwrTT0r5NQt16/bSx6fxezdv15f+fKOuvvJ74QPXb9T91z+h/x5t/49712ntSx/Xrie68+sWrr5yeWFdwwn+dM3VkpRPVG+4+Tpdeel7uLAAAGIrsRUAAOCUMQU0AAAAgDnN83zZMlNXqnmJ3jbxsaIE9Tf+sDRDnZtyMqcwjaUkNeu//FW3dj8Rfdy8SH0v5TqbonUM/2thGsxFf3izvvTeJ/Tf/6V/yvM+p7nQkfR6P9NTAgCIrcRWAACANwYFYAAAAABzjus4+Q6lTNaTfvU9rb7ye/l1AiVJ/a/qJS1Xay4X/avvafXHvqe37eiekKAO1yT8t1cOFT9ZfS9Jn3j/FFNN9v+HnvhJ+bULZ+KJZ3+Wn5oyN2Vl8bqFAAAQW4mtAAAAJ4sCMAAAAIA5p7o6LknKZr2wQ+mdF+sTKu4K6tc/3P096dY/CKeJ7H9C/23DE/rEjm59/p2Tj/d7H/m4PvDQI/qH3NN/9a/6y59cqauiff/j3nVafe/ekmP/2/VromkuV+qq66W//bsnlEtzH/qXe/WXP7lS/78/LD8PZi5BfeWl79Gfrrk6n6h+/RDdSgAAYiuxFQAA4NSYJRdcYhkGAAAAYNb9qh79acP/TJnt1soYyUqSNbJWaoofPq1nNeaEEzEe6T94Qs979aVfzvydm/DNOsbID4JJ26qr4nJdR74faDydKdq6V3dfuV1/m/vy+o3afXPYZfQf967T2ofKvNh7P65dfxVNL/mr72n1hieiDW/Xl/6+eH3Dfv3Dn2/UX/6kzPMipa8x8fknb8nb3sW3A3AWW9C8WJJUGxw6ra8zkF0oYyQZKyPJWil8oDRtZGwuRBXFKWIrsZXYCoDYepbG1jNreGiQQQBm+vsfBWAAAABgVv6qXvjL/1mSpK6uiisWc0sey2a9cBpKhVNT1tRUSVKZBHXlIkkNnN1IUhNbia3EVgDEVoQoAAMzF2MIAAAAALzZXMeZlKCWlF+LsPjzsylBDQAAsRUAAAAnigIwAAAAgFmtOFFd3LUEAACIrQAAAJjMYQgAAAAAnG4jIyOn9Pxs1tPI6PhZl6A+1XEDABAjiK3EVgAAcPahAAwAAADgtHv4kX+cdntgJ69z5fvBWZucnum4AQCIrcRWYisAAMBETAENAAAA4LT74m1fkSRdt+bDqq+vn7TdWqvRsXT+87PdyMiIHn7kH/PjBgAAsZXYCgAAMFNmyQWX8BsgAAAAMPt+VY/+tOF/psx2a2WMZCXJGlkrNcUPn9azGnMWSZKO9B/kEgHAGbCgebEkqTY4dFpfZyC7UMZIMlZGkrVS+EBp2sjYXIgqilPEVmIrABBbz9LYemYNDw0yCMAMMQU0AAAAAAAAAAAAAFQICsAAAAAAAAAAAAAAUCEoAAMAAAAAAAAAAABAhaAADAAAAAAAAAAAAAAVggIwAAAAAAAAAAAAAFQICsAAAAAAAAAAAAAAUCEoAAMAAAA4AVaSFIvFGQoAOM0KP2stg0FsBQAQWwFg5j/vGAIAAAAAM/4LhE3LMzVqbFrEYADAGfzZC2IrAIDYCgAz/jnHEAAAAACYqbgdliR5plqSYUAA4LSyitl0/mcviK0AAGIrAMwEBWAAAAAAJyRuh0mYAABAbAUAAMAsxRrAAAAAAAAAAAAAAFAhKAADAAAAAAAAAAAAQIWgAAwAAAAAAAAAAAAAFYICMAAAAAAAAAAAAABUCArAAAAAAAAAAAAAAFAhKAADAAAAAAAAAAAAQIWgAAwAAAAAAAAAAAAAFSLGEAAAAAAAcHZY/o7VWrh4mVzXnRPn6/u+Dh/cp5f/czcXDwAAAABmiAIwAAAAAABngeXvWC2nJqFf/uo/5XnenDjnWCymlqVv0fJ3rH5DisCvv+vPNNjyQQWx2jnx/h1vTI37n9Q5v/w2NzAAAACAmf9dgiEAAAAAAKDyLVy8TPsP/G7OFH8lyfM87T/wOy1cvOyUj/X6u/5MR9/6R3Om+CtJQaxWR9/6R3r9XX/GDQwAAABgxigAAwAAAABwFnBdd04Vf3M8z3tDpqwebPngnL12c/ncAQAAAJx5FIABAAAAAEDFm0udv5V07gAAAADOPArAAAAAAAAAAAAAAFAhYgwBAAAAAACQpK5vPKRbL6ovu63v5X1qXV5uLd4RJb9+vW7SV/Tjz75dqa9fr5semrzX7Q/2qnO51Pdohz781dk6Aufql3c0Sj97Qe96WNJ1y+W9p2r6p7w+qNhdr0VfNGnXlxfpg7UZ3bfpZd3MLQUAAADgTUAHMAAAAAAAkCTt/LffaEiShn+hr13SoVVf/0X+657/eaR02yXfVXK4+NmvqX+4Xu2f7dU/flHS9V/Rj//9Id13ffnXuv3BXu158LOzawAuzej//2Kgle9ZoUM3N0kPv6zYphfCj59lwn1eHyw8tumFouLvdJq068sr5N0x8eN87bqU+w4AAADAG4sCMAAAAAAAOL6HXlO/JDUsUKskaZmaGyTpiPY/JOmhr+vDfxAWhVsv/4ru+5N3K6GignDeR3Tfv4bdwFp+zYRtb7JnB3TzvS/qvtel+ec36t6iTZ9vCidROzqUKfvUe29ZIe+ORfpgrSRV6aaiQu8vr8vtFejJ3hcU23RIT45xSwEAAAA4PZgCGgAAAAAAlGp4t279917dWvLgPvUPS60N0ZfXn6tmSRo+oj5J+uI92nOt1HNJh27KPeWL92jP5UfUr9JO32d+vU/tFxzR1/7gL7RzFr79m+96YdL0ze9IhP+G/uDAwDTPKZ0CWres0E3ncDsBAAAAOLMoAAMAAAAAgFLDvwiLs9d/RT/+7LuVKNm4QC3XSzp/gRKShn79M+2UdLukPi1T578/pJbcOsBfXa9V0Xq/tz94TfT8H2jnf/vBrCz8hmv+Klq/N1wPeOWEXVa+Z4W895Q+dvTFQ1p074CkKr2lltsHAAAAwJuLAjAAAAAAAJiBH+iZX39M7RfVq+0DH9HtC5dJkvoP/kCSdNtX10tf/az+8d+vUfuffFZdH7hEt15UP+kordf2as+1ua/2qeeS9bptlrzDeyXtVZVuumO5tOllvWvTa1FRuEpS2NV786VLdaijTvNzX5c70Jin/5T0Dm4aAAAAAG8CCsAAAAAAAKBU2SmgpZ0Hj+hW1Sux8D1qWShJ+7T7q8V7fF0fvuTrkqSub1wSPvTyY1p1w9cnHCksFLfOsrd988MvSw+Hnb9rbm6SEovCKZzHRrXxywd0tyQ9e0CLng2ner7pjhW66fVBxe56LTzApTEt5u4BAAAA8CZzGAIAAAAAAFBi+Bf62iUdWvX1X2io+PGv7g3X+13+brU3SEPPPVbavfvFe7Tn3x/SfdcXPbb8Gu35994JH7Ov+Fvwmt616QV9VQt00znS3p+9oNiXD0g3ny/vjhU6dHOTpAFd/eUXFPtZRjqnUd4t55YeYsgLi8UAAAAA8CagAxgAAAAAAMzQ17X75WvUulySRpT6tx+UbL39neG00G0f+IieyT04hzqAJUmXLtWhjhrt7n1RsXulz193rj6v18rv954qqagD+PMrazRf0t5XivcP9LvfSVrF3QMAAADgzKAADAAAAAAAZqzv8Ii0vF5Svdr/5LPSQ7ni7keiaaGjwvAHPhY+vPwa7fn3a+bM+wuLuI4++N5zJcX0xffUaf57avTki+H2+ecvkndHo+7b9LIeee8K3XROg3Zd+pquflZ6R8JRvuALAAAAAG8SpoAGAAAAAACTffEe7fnsu5WQwjWBH/ysdP1X9OmL6qWX90VTQV9SmO75+veorUGSjmj/Q0XHefkxrbqkY8LHY+HzZ50m/e9LwiLukz+RftlRF3b0/uxl/XO0x9EXB/XkWJVuuuVc3fxKRpKj1SubJJ2r/+0cSWPj+udnpzq+ow92rJB3xyJ9sJZbDAAAAMDpQQEYAAAAAABIkm7/k6KC7+VH9LXcGsDDv9DXbpD+8bPvVkL71HPDen3467/QkOrV/tl7dLsknb8gfO7Le0vXBS7n+nPVPBsH4NI6ra6VJE8vvSWmxWPS0dcH1f1w8U4Z/fOrgXROg3b9blBPjknzE1XSdTVaKWnvngPR+r9NelsiOla+IBzoyd4XFNt0SE+Ocb8BAAAAOD2YAhoAAAAAAEiSbruho7R4e/1X9Ono08sevEat2qeeS9aH+zz0F3qfvqIff/bd6nzws+o7vECSNHR43xRH/4ju+9dPqr2h8MjQc48dv1h8Jr0lpvmS9Pq4bn74Nd38sMK1fu9YET6uQLv3DujuZweiIq+kZwckSffeskJ6fVDverhJu75c6PA9+uKgbpa0i9sLAAAAwBlillxwiWUYAAAAgFn3q3r0pw3/M2W2WytjJCtJ1shaqSl+mKEDUNbvX/UR/eznv5iT5/6ei9+tnz7+g1M6xq8//D/n9PW74B//5LQefyC7UMZIMlZGkrVS+EBp2sjYXIgqilPEVgAAztLYemYNDw0yCMAMMQU0AAAAAAAAAAAAAFQICsAAAAAAAJwFfN9XLDb3VoKKxWLyfZ8LCAAAAAAzRAEYAAAAAICzwOGD+9Sy9C1zqggci8XUsvQtOnxw3ykfy/HG5uy1m8vnDgAAAOBN+LsUQwAAAAAAQOV7+T93a/k7Vutd73yHXNedE+fs+74OH9ynl/9z9ykfq3H/kzr61j+ak9eucf+T3MAAAAAAZowCMAAAAAAAZ4mX/3P3G1JMnYvO+eW3JUmDLR9UEKudE+fseGNq3P9k/twBAAAAYCYoAAMAAAAAgLPCOb/8NsVUAAAAABWPNYABAAAAAAAAAAAAoEJQAAYAAAAAAAAAAACACkEBGAAAAAAAAAAAAAAqBAVgAAAAAAAAAAAAAKgQFIABAAAAAAAAAAAAoEJQAAYAAAAAAAAAAACACkEBGAAAAAAAAAAAAAAqBAVgAAAAAAAAAAAAAKgQFIABAAAAAAAAAAAAoEJQAAYAAAAAAAAAAACACkEBGAAAAAAAAAAAAAAqBAVgAAAAAAAAAAAAAKgQFIABAAAAAAAAAAAAoEJQAAYAAAAAAAAAAACACkEBGAAAAAAAAAAAAAAqBAVgAAAAAAAAAAAAAKgQFIABAAAAAAAAAAAAoEJQAAYAAAAAAAAAAACACkEBGAAAAAAAAAAAAAAqBAVgAAAAAAAAAAAAAKgQFIABAAAAAAAAAAAAoEJQAAYAAAAAAAAAAACACkEBGAAAAAAAAAAAAAAqRIwhAAAAACrX71/1EQYBAN4EP338BwwCsRUAQGwFgDeFWXLBJZZhAAAAAGbdr+rRnzb8z5TZbq2MkawkWSNrpab4YYYOAHDCBrILZYwkY2UkWSuFD5SmjYzNhaiiOEVsBQDgLI2tZ9bw0CCDAMwQU0ADAAAAAAAAAAAAQIWgAAwAAAAAAAAAAAAAFYICMAAAAAAAAAAAAABUCArAAAAAAAAAAAAAAFAhKAADAAAAAAAAAAAAQIWgAAwAAAAAAAAAAAAAFYICMAAAAAAAAAAAAABUCArAAAAAAAAAAAAAAFAhKAADAAAAAAAAAAAAQIWgAAwAAAAAAAAAAAAAFYICMAAAAAAAAAAAAABUCArAAAAAAAAAAAAAAFAhKAADAAAAAAAAAAAAQIWgAAwAAAAAAAAAAAAAFYICMAAAAAAAAAAAAABUCArAAAAAAAAAAAAAAFAhKAADAAAAAAAAAAAAQIWgAAwAAAAAAAAAAAAAFYICMAAAAAAAAAAAAABUCArAAAAAAAAAAAAAAFAhKAADAAAAAAAAAAAAQIWgAAwAAAAAAAAAAAAAFYICMAAAAAAAAAAAAABUCArAAAAAAAAAAAAAAFAhKAADAAAAAAAAAAAAQIWgAAwAAAAAAAAAAAAAFYICMAAAAAAAAAAAAABUCArAAAAAAAAAAAAAAFAhKAADAAAAAAAAAAAAQIWgAAwAAADg5G3rVSrZra7c56lebZ3pc9d2K5lKqnvtib9sV3dSqVRKvdum2mOresueS5e6k8d5zbXdSuaf26Xu5ITXKX7PMzz21t6UUr3lR2Zrb9HxS157wmsWP39tt5ITjtfVnZzwGlvVO2l8u9SdnOoalXmvxzuPMu8l2d0142N3dSen2H+a6967le87AMRWYiuxldgKAACmQQEYAAAAwMlZ263kmmYlv7lOOyVpc4d6+lrVWSaJmEsql3xsaldCCbVvSk3elpo+qbuxLaXtbT3SmqmSolvU8YjUmUv45hPLO7Xumym1bSpK1E5MvK5oVqJvt7ZIknbq6dSQWq8uJKW7ljZrKPV0+J5naMvDSQ21rj5+Av/+dbon2Vx2DCfu95g6o6TvVvWmUtrYnpBaO5VKRWOytkXNQyk9fX/xE3dq3a7cuISJ48KYb1R7QmpdU3odTiSJPPW9crnaEn3avblc4nzmzm9OaKj/Rb73ABBbia3EVmIrAACYRowhAAAAAHDCtvUqtaZZyTvata4oCbqlY7takhuVSrZoe/u6fCJ357p27VSXupMb1byrTR2bpznuhbvV1rFl8ra13Upualeir0dt7VEKuU3qTW1UKnl5yetJCpPmF6a0epukF/o1tKZZ50thIviKpNZ3d2nLup1h0rko8bn1wlaptVWpVKc0lNT29sfUl7pGl3f3amN7a7TXRqVSG8NP+3rKnO9W9aY61Trh0c5USp3R50PJ7Wpft3PS29y57jF9NHWNutduKRnbibY8nFTyM93q2rxf0lDhWmzrVXKp1HVFmxKJhDamUtoYvmA4Rps7tH1pUuu7pfb2tqIjTnN9tvUqtSb3bqKxmUprODbF72/rde1Scru26Hz1TnrC5epNbYzGqk89bR3aUvbAXWppltTPtx8AYiuxldhKbAUAANMxSy64xDIMAAAAwKz7VT3604b/mTLbrZUxkpUka2St1BQ/fNrPbGtvSp2t0yUTc/tIfY8UJzzDJGh74jgvMCnpm0v4Tv2aXd1JbWxPTJn4DV97vfTN9gmJ34mJ2a3qTbbo+xMT3jlru5X8jHTPhO2518+LEsLn96a0+vniMdiq3tQ16i9K7m+dtI8mJ+unS96XSYgPJZPqb28LX2fFNM8tST6XM1RaiJj2PML3ck3/hGuwtlvJTc16rK1DW8om73PXdat6U6u1e8r7Knpu2aIAgFM1kF0oYyQZKyPJWil8oDRtZGwuRBXFKWIrsZXYSmwFcJbG1jNreGiQQQBmiA5gAAAAADO2tTelTvWorW36JOGWjrYo6ZhS6uqoO0Y7ta595wm9Xpj8lZJ3tOn7VyS1sajLZ6K+R9r0/aVJpVIbNZaVauNSIQG6U0+n1mv9FV3S/UXnEE2f+Njm3Otdo9aizp5JSfbPtCn1zXapO6mk7sknYwtdWBMS4R3bw7ULX2jXuvu71J3slB5pm7b7SJK0uUMl/UMlnVRFyf6hpLa3l+lSurBZzX2PqeN+SdsmXL/WonHZ3KG2CUWEabvIpGgqzKm7lIZKuoi61P2ZdiXUV+gyKzrXru6k1uv7mlHKeW2LmiUpmu6TNDUAYiuxldhKbAUAAOVRAAYAAAAwY8XJ59Zp9wwTkR1FyexJnTxTPjWZn3IyTP5G7m+fwdqARftE3TE5O59Kaf2mj2qrduYTnIXpE0PnN/erp+0xrc51y2zrVSrVGp7TN6W2REKJTSm1S8pNVVmuM2rSe92UUmpT9PmalFJrCu9zJs5vTqj/+dxrRMn+qGMqFK33uCk3hIVzKk5wF67f6qk7lHLnV+Z6SJpiWs5oPHtTuqZkHNarvb9PfQlJ969T+/1hl1ZZuST0FLZeF05R2qPOcOrRzXw/AiC2EluJrcRWAABQDgVgAAAAACdoSz753NWd1Mbmx0qTlmu7ldzUNulZJQnnCQrdM0NKfrN4Csjy6/1Na2JSNef+dXrsupSuidYn1NpuXdM6pNTDhT23dHSEr5l7YHOH2l6IksH3r1N71F0UdtfcU2ZKzDBZ3PxIm9pyQ7CtV6k1mnKKza3HfUNbtbp1SP0PH+d6lEyh2aXuZFL6Zrv2lyS4i2zuUNvmydNm5pS9ttIJdSmd39yvno7dWp1aPcNr168XpxmD5B1btEUt0fqM62ZQtAAAYiuxldhKbAUA4OxDARgAAADASTu/OVE0feKJy3Xz9D3SpraOcntsKel0kqZYC2+Gtjyc1DWb1qt7raTPhB1KheRs6TqKramUOvt61BYlh8/vTipV0mUVdilpKKn/6G/X7+WS7He0a/91KaVSpa/dOXGKzSm6fSatW7httVqHUvr+FFNbTjyvcIrNISUfSantM71q1pD6X5huVEo7nEr0lXts5l1Kk5L+ZV2u3tRGtSrsrtpZ9rjh+oQd90tSWGxY392lnSdxDwAAsZXYSmwltgIAUOkoAAMAAAA4SWHnSHGXT0G/9k+R/C2ndeLUiFL5bqNtvaUJ6m29Sl24e8qkaf71ey/X0x3rtPP+dWpf0avUpo1hsrUkyZlbRzGcxnF3rqtobbck6cV17fm1A8t3KUXrFCo3HWSZdQu39Sp1dX/ZLqpcwn4ouV3tuQT12m4l17RKap0yKfviuna1re1W8rr9ap8wDl1Lk9rYNnWCOxrowhqHE88nmjey0EUmSa3TdimptZC8L9stNsnT6mhbV3i/veeXvo9tveps7VNPUbFiS0ePVqfWq3vtzuOv+QgAxFZiK7GV2AoAwFmGAjAAAACAk1LaOVJkRbNK89G55O9kU06FWP4V1XvhbrV3FB1rc4e2dyeV6tUUx2hVZ7SW4DqpKOkrqbVTvdu2FLqByr1er9Tx8MmNT1f3erUnEuEahdf1qO351dF0lcWJ2y61NIdJ+o1DSW0v3ra2W8lNYSdV21OXK7lpo3q37Syc74pmJRLS+bnPW9vzyeNwnULp8raElGjXR7dJOye+z7Xd6r1CmkmXUph0L35ul7ru31l0rhO+PhXNLeqSwmNFayn2PTLh9bVFHY+sVmpTUt1qJ1ENgNhKbCW2ElsBAEARhyEAAAAAcGK61J1MqbM5qe3lplm8sHWa9eZO5TU71draqVQqVfKxXveECeBkt7qKn3FFmxIaUvKONrWvk7qTKaU2tav/kTa1tbWpra1HWpNSKpUMp60s0arO1DXqf/hFdX+mXYlEuzb2FlYU3Lmu/bjTZO5c1x6+zh1JDbV2KhV1G13TXXSWay9XWyI8x7Z8R09Xybm2r9sZrpF4R1LNa1Lq3ab82ofJZLM6U0klr27VUHK72tratD05JOn8sDOsv0dtdyTVvKa3sB7i2hY1q1Wdm5q1e91+KRqjcEwKH+FxJlyF7mQ47ps2an3R++ha8VGtz12TCdeh1IvqH0qoeUX5cey6ok2J/v3amXutNc1K3tFWvpCwuUNtj/SrfVNKye4uvi0BEFuJrcRWYisAAIiYJRdcYhkGAAAAYNb9qh79acP/TJnt1soYyUqSNbJWaoofPr2nFXWNhF0wO6MHt6o31an8LIZTTHuYF3Xf5DqZ+h5pm6ZTKHqF3qRaHp6+G2XS+n7TnnOZ88mtv7etN0qOtuvpKwrTUZZO1VhkKKknU236YHtCUp962r6vluJpOSdM11gyHeXE8ynqTCp7rtG0nD26pjAe0fs7rtx5lEztuVW9qWvUn79epdcyd21y733KMZxuPCdM+5l7/+X1qaetQ+qNiiAzmuYyOudp1k8EcHwD2YUyRpKxMpKslcIHStNGxuZCVFGcIrYSW4mtxFYAZ2lsPbOGhwYZBGCmv/lSAAYAAABm5a/qhb/8z6YkNQCgIlEAJrYCAIitsx0FYGDmmAIaAAAAAAAAAAAAACoEBWAAAAAAAAAAAAAAqBAUgAEAAAAAAAAAAACgQlAABgAAAAAAAAAAAIAKQQEYAAAAAAAAAAAAACoEBWAAAAAAAAAAAAAAqBAUgAEAAAAAAAAAAACgQlAABgAAAAAAAAAAAIAKQQEYAAAAAAAAAAAAACoEBWAAAAAAAAAAAAAAqBAxhgAAAADAyTjc/FENzrtM6Zq3yRr+agEAbwRjPVWPv6TGY89oYf/3GRBiKwCA2AoAJ4zfJAEAAACckEzVYh047881XruCwQCAN5g1MY3XrtB47QoNzrtMS1/5K1VlDjIwxFYAALEVAGaMAjAAAACAE0KCGgAme2vz9CmW3/Z7J3zM8doVOnDen+ttv/ksA0xsBQBiK7EVAGaMAjAAAACAGTvc/FES1ABQ5Mkvnasr2mqm3eep1LjWffPwSSeqDzd/lCkria0AQGwltgLAjFEABgAAADBjg/MuYxAAIPLW5piuaKvRU6lx/fZ177j7nkySOvezlyQ1sRUAiK3EVgCYKQrAAAAAAGYsXfM2BgEAIlesCruTnk6l9eWHj/KzF1xfACC2AsCsQAEYAAAAwIxZw18hAGA6V7TV5JPXU9n51PAJdSzxs5fYCgDEVmIrAJwIfsoBAAAAOEs16on7mrT4py+r7Z5Kel8LlXqoTgcf2KcrHz21I91y2zLd+daMvnDTa7pr2nGcJ/Xs05WPhmP6ofrctqy+e/2r+lTJuTVoZfTV0T0Darp9sHCo9Utkr4iXHL14n1tuW6Y7VznRlkA/nPAev3P3cn1y6cxeWweGZT5/eMK4FW0fGS9536XHnvz60782zhZdVzSoe/3C4+73pY/O09v+zwMnPW0lQGwlthJbQWwltgLAdCgAAwAAAABO3rW1ukgZbXtU+s7dTfqQxvWF68Pk7i23LdOd952rvTe9prvUqCfua9DiPQMytw8qTAo3KbV+MF8k+M6KuPY+NUXRYP0S3blK+uEDL4eJ4fVLZG9cou88GiaDv3P3cn1y/vSvvTKfmA6T6QO3ZaME+MTt4fHuvHuh7vr8YUkL9f6lUyeeb7ltmT5ZtL30tXE2eWtzmGb5y+8fmzIBvfby+nwn086nhhk0AMRWYiuIrQDwhqMADAAAAODMuvZcDdxYo/mSpKx+uMfVh3KdMNeeq4EbXfU8JX0y161yYFjmiVjJc0qShRM6WyYmOct3thR101yxXAPNE7pl8ufp6rk9rj6Ue35R58rkDp6wy0XR63/n7uXqPDqs597aEHXthK/90pWFbpaSLp2ScSk+11wHTPH7Dl9r8cQun6JOm5U3LlfqvGgsTmqMcltdffK+5bqzvsw5S7rl4irpt8fCa7c00A8fKCRm77p9XyFJu75BH6rP6rv55x7Wd/fU6c4VCyWFieO3zQ908JXyt80tza40ktE/5c7rnrT2XlGnt10r6dGFev9Sae9Txa89qk8+VKc/ula669G4FtdLe3+a60oa1D/9dp4+ND9eem43FbqWPvX5lwv32LUxLR7xtXeKW3rlfEc6MJrf/66fZ7R5lVvoeMJZY/kiV9L001C+tTmmK9pqGCwQW4mtxFZiK4itAHDaOAwBAAAAgDNnoVI31kh7BmSuf1nmAV8XrZr415K4PrkiHW0f19GlDbI3uuq5/mWZ6wf0w5G4Om9rDHddv0T2Cum717+c33/xFcv0xLXh5nwiObf9KV8funGJvqNBXXnTgH44EiZsJyWoi87lQ/NHw+deP6y99TXanHvtGZi/qk7qCV/7uwccfejG5eo8Gr33p7Kav6pB35HyCeqDT0Xnef2Afjji6EOd5+oWSZ/6fOn7/s7dYUfN5PM+rLbrh7VXgX74QHGCeuoxCrt//ML2/BhF6uPST18uOud5heeqUX/0Vum5nw/qlourNL84iTxBmGQuTfTe1e9LS6uj14prsaSLblwu+1D4MVA01nf1+1J9lf4of97VWilfLz2ae98TupuujWlx/ousDo5IK1csLDpvR0ePZsPxXBGXDqSnnlbyPFdSle58KHduReMnae/RoOh9KBqLqZPaAEBsJbYSW4mtAACcThSAAQAAAJw566u1cmRc23LJ1UdfU8+BiTsF+uETUbfIo2N6bkQ6umc4SiAO6p9+G2j+/LikRj3x+3HtfaqoY+nR17Rtj/ShKxdKWqhPrpJ+2FM0VeA9r+q7B4qS3MdVdC46rB8dUPTaM3RgNN/t86kXspKy6sm993vS2is36rJ5TU0lSdbwfRYM6sqfRgni25aEHUsla+xN5XhjFG4vjG84Rqa4C2xkXN/Nndc9ae2Vo8Xn5TbGtbg+lyiWdNSTbluWTzLb+8Ike95Rr3Taxld8Hc19fm1Mi+udokT9sA6uaiokqu95VeaBTCGJ/fu+vjDNWoDfubJG8/PjP6grb3pZ31VDdG7h+pTFSf6jR7P6zt2FBLm9u7DW3C3NrubXT0zkFxLVd92+T+Yp6ZPRc++cPyrDFJUAiK3EVmIrsRUAgDcJU0ADAAAAOGNuaXalo+mS5N3eo4GK5mYs62B/uS6icOrBlVcsl71iwqYDirpUHK28cbnsjaWbjx59kwbguJ0rhWkmw/2LNt3zqr67Yrk+ucrR3qdenrqj5kTGKNpefnxnYH21Vh5Iq00Kk9FLG7T56IDM9eHxvnP3ct1537nSTa8d/1iPvqamkg6nw2p7qlr2igZ9R4Pae9uyfDfVp6Sw++qhZfqjkik1lX/dcFrPwyXjunjPgMznc+sSLpddUViXcP6qJr3/qZdlPi/l1jG0d0vm84dLp9ssvhZXLpQePVy0RuKr+SlM7UPVU65rCADEVmIrsZXYCgDA6UQHMAAAAIA5bW++q6XoI9/BE07XOHH71NNSvlkWKvXQctlcIvX6l/WFPcGUey9ubnwDx+jkfWdFXHtfKDrOhKkzP/XEuI4WTy05P1batXSeO319It/FFE0rOaGb6rsHnKjbquicJq3pqGhKy6IOMQ3qyp5xHV1al+80OrpnoKRL7MqfZkumnpw0pkeD/LV7/1Jp70+L10g8VjqdKgAQW4mtxFZiKwAAZxAFYAAAAABnzF39/qRE5cr5J/vXknDtuSkTto96OlgypeIsFk3f+YXpEujro+kpJ60VeApjdNzt01mo9y/N6kf3TH1tJ137erfQgaWoay1aH/CW25ZNntbyPPcE1vsLO49y3UIn0h2092gwzfSj4XEHJiScV84vrHMIAMRWYiuxldgKAMBsQgEYAAAAwJlzT1p762u0OZfwu/ZcdS492YMVrd2XT9gWJxQP67t7Aq28YklRp0nYDZRaf+pvJUy6FjpwbrmtriQBe8KKE7jrl+jOVcV/XVuo1BXReoO57pzOc6dMCM98jHLbGwpjdO25Gnho2fGT4NfGtLg4gXzPsH6oomuraK3AkYz+6dFoe0nnzsJwys2oy+mun2d0tL5Gn1w/4T3/9DXdlVufsvg81y/RJ5cW1pH8zt1N+pDG9YVy6wPek9ZeFb92o57oLKxjeNfto9q7tKHovgjXbwwT6FO9dq7rKVy/cuXvF67HLbfN04fqi7uiAIDYSmwlthJbAQA4c1gDGAAAAMAZdFhtD8Q0cGOT7ENNkrL64Z5AH5rvTU4szsQ9r+oLzct0Z9FahEf3DOQ7fe66fZ9W3r1cn3xouT4ZPWXvUy9H0xEO6p9+O093XpFbry6rJ+5r0kW/HZjZNJa5teqi1z66Z1g/HGnQ4pN8H99dUXSeI+P6wlPSnVdU6Y+ubdQfdTaEXUxRR9CnPj+s9z/UoM23Nequ2+NKPdQg5d/XYf3oQIM+eeNyDVw8oKbbpx+j/BhOGKMrH5VuuXjqU77l4irpt8eKrtugrrxJ4fp+DzWFD40UJ40HdeVNcaUeKmw/umdATbmpIR99TU06VwM3FtZULN5+1+37pNvKn2eh2FGjOx9arjuLzjO83ofVdr1KXlsj4/pCfqrO3Pai9RwPFNYwnPzagX74wL58J9SnPv+ydPfyotcO9MMHWKPwbLDzqWF96aPzGAgQW4mtxFZiK4itADCrmCUXXGIZBgAAAGDW/aoe/WnD/0yZ7dbKGMlKkjWyVmqKHz6tZ7X3Xf/8hh/zltuW6c75o2/IunkAcKa9tTmmtzbH9FRqXN3rF6rriga97f88oN/2e2X3//J18/Wlj87TunsOa+dTwzN+nZW//N9P6/sYyC6UMZKMlZFkrRQ+UJo2MjYXooriFLGV2AoAxNazNLaeWcNDzAIAzBRTQAMAAACYMWO9UzvA+iWyD5VOG1k8VSEAzDW/7ff0VGp8dv/sBbEVAIitxFYAZxWmgAYAAAAwY9XjL2m8dsXJH2DidIwqnjYSACrDdFNXvvWcMBXz29dnnniuHn+JQSW2ElsBEFuJrQAwYxSAAQAAAMxY47FnTi1JrXBNN9ZvA1CJ/vL7x3TFqhp1XdEw7X47nxo+oc6mxmPPMLjEVmIrAGIrsRUAZow1gAEAAIDZ+at69OfsWqdQkl56+9dPOVENAJXsrc3T/3v7qdYwLKdm7AW97TefPe3nzBrAxFYAILYSW2c71gAGZo4OYAAAAAAnZOkrf6UD5/05iWoAmMKJJKGnUzP2gpa+8lcMKLEVAIitxFYAOCFuYuF5X2YYAAAAgNnGTPtl7gFjSr+udcdO/18i/GE1HflnOTYt303Ij82TjMMlA4A34qe/9VQz/qIWHP4HLdl/l1x/+Iy87nhQF3UpFYUcY8pHJ1M2MBFbia0AQGw962LrmZXJpBkEYKY/+5gCGgAAAJiVv6pHf86+aSoBAJWHKaCJrQAAYutsxxTQwMzxTwkBAAAAAAAAAAAAoEJQAAYAAAAAAAAAAACACkEBGAAAAAAAAAAAAAAqBAVgAAAAAAAAAAAAAKgQFIABAAAAAAAAAAAAoEJQAAYAAAAAAAAAAACACkEBGAAAAAAAAAAAAAAqBAVgAAAAAAAAAAAAAKgQFIABAAAAAAAAAAAAoEJQAAYAAAAAAAAAAACACkEBGAAAAAAAAAAAAAAqBAVgAAAAAAAAAAAAAKgQFIABAAAAAAAAAAAAoEJQAAYAAAAAAAAAAACACkEBGAAAAAAAAAAAAAAqBAVgAAAAAAAAAAAAAKgQFIABAAAAAAAAAAAAoEJQAAYAAAAAAAAAAACACkEBGAAAAAAAAAAAAAAqBAVgAAAAAAAAAAAAAKgQFIABAAAAAAAAAAAAoEJQAAYAAAAAAAAAAACACkEBGAAAAAAAAAAAAAAqRIwhAAAAACrX71/1EQYBAN4EP338BwwCsRUAQGwFgDeFWXLBJZZhAAAAAGbdr+rRnzb8z5TZbq2MkawkWSNrpab4YYYOAHDCBrILZYwkY2UkWSuFD5SmjYzNhaiiOEVsBQDgLI2tZ9bw0CCDAMwQU0ADAAAAAAAAAAAAQIWgAAwAAAAAAAAAAAAAFYICMAAAAAAAAAAAAABUCArAAAAAAAAAAAAAAFAhKAADAAAAAAAAAAAAQIWgAAwAAAAAAAAAAAAAFYICMAAAAAAAAAAAAABUCArAAAAAAAAAAAAAAFAhKAADAAAAAAAAAAAAQIWgAAwAAAAAAAAAAAAAFYICMAAAAAAAAAAAAABUCArAAAAAAAAAAAAAAFAhKAADAAAAAAAAAAAAQIWgAAwAAAAAAAAAAAAAFYICMAAAAAAAAAAAAABUCArAAAAAAAAAAAAAAFAhKAADAAAAAAAAAAAAQIWgAAwAAAAAAAAAAAAAFYICMAAAAAAAAAAAAABUCArAAAAAAAAAAAAAAFAhKAADAAAAAAAAAAAAQIWgAAwAAAAAAAAAAAAAFYICMAAAAAAAAAAAAABUCArAAAAAAAAAAAAAAFAhKAADAAAAAAAAAAAAQIWgAAwAAAAAAAAAAAAAFYICMAAAAAAAAAAAAABUCArAAAAAAAAAAAAAAFAhKAADAAAAAAAAAAAAQIWgAAwAAAAAAAAAAAAAFYICMAAAAAAAAAAAAABUCArAAAAAAAAAAAAAAFAhKAADAAAAAAAAAAAAQIWgAAwAAAAAAAAAAAAAFYICMAAAAAAAAAAAAABUCArAAAAAAAAAAAAAAFAhKAADAAAAc5JlCAAAxBreLwCAWAMAk1AABgAAAAAAAAAAAIAKEWMIAAAAAAAAAAAA8Eah1xl4c1EABgAAAAAAAAAAwCmh6AvMHhSAAQAAAAAAAAAAcFKmLfxaysLAm4ECMAAAADDnGYYAAPAGxhQStcRWAACx9fjKvisKvsCsQAEYAAAAqJi/epOsBgAQSxgPAACx5My8s9IH7Mz2A3BGUAAGAAAAAAAAAADAjByv+Gun3HHKBwG8wSgAAwAAAAAAAAAA4LhKyrflCr9lqr+UfIEzjwIwAAAAMJf/8s3slACA0xFbiK0AABBbJ76PKd5Uac3XTtEBTBkYOJMoAAMAAAAAAAAAAOCETez6tRMetGWfAOB0owAMAAAAAAAAAACAKZXr/i0u/lrZyYXf6RcDBnAaUQAGAAAAAAAAAADA8ZWZzzpX/LXWytqgqBgcPgbgzKMADAAAAMwBRvybaQDAmx+LiK0AAJx9sdVO9Vju/6xkbaAgCOT7voIgoPALvMkoAAMAAABzLkVgj/MIAABvVJQ5GyINsRUAQGydkUlTP4dr/lobyPN9BZ6vwAZcdGAWcBgCAAAAYFb+zfrEcgOGEQMAnKLjxRI7cZ+5lrgmtgIAiK1vdGS11ioIAoq/wCxDARgAAACYqwyZaQAAMYb3DQAgxrwZomJ1YOX7AcVfYJahAAwAAABUyl+8mawSAEAsYTwAAMSS0/2uit6aVdgBDGB2oQAMAAAAzL2/bpf5nI4lAMCpMjOIN8RWAADOythqbdnoaa2VtfyDKWC2oQAMAAAAzHH8XRsAQExhHAAAxJQ38V1yoYFZhgIwAAAAUAHoUQIAEEsYDwAAseTMovALzFYUgAEAAIBZ/ZfpQsqg3GcypKcBAG+wkthiJkae6Ku5mvAltgIAiK0AKh8FYAAAAGCusMfZSMIaAHCyzHESz5Wakya2AgCIrW90AAUwC1AABgAAAOYCM9VftsPPWasQAHCqCrHElo85lVYLJbYCAIitACoUBWAAAAAAAAAAAAAAqBAUgAEAAIBZb4ZrFdKpBAA4WXZCTCmKNWaKmERsBQCA2ApgdqIADAAAAMxqE6YHO94UYgAAvFFxJ/e51TTTJRNbAQAgtgKYbSgAAwAAAHPWxE4l/uU4AOAUYkqZDiViK7EVAEBsBTD3UAAGAAAA5oSiCSrL/uNw/sU4AOBUTY4lpTGn0hLXxFYAALEVQGWiAAwAAADMehOmqix53JTfDwCAk401pfMiV+gUlcRWAACxFUDlogAMAAAAzEFlO5X4x+MAgJMOLDOMNcRWAACIrQBmPQrAAAAAwJxQ1JE0bacSAACnYqoOpQmPE1sBACC2Api1KAADAAAAc1ThX4/nEtUkqwEAJx1VVJyIPls7lIitAABi65m1cMFCBgE4DSgAAwAAAHPG5E4lU7TN8K/HAQAnKYwhtjS2nBUdSsRWAACx9c3yoQ9+UO97XztFYOA0oAAMAAAAzDlFGeqSnEHA0AAATlJRDCmZAfls6YAltgIAiK1n2q9feEGSKAIDp+O32yUXXMI/MwEAAADm1q/xKslOW8maos+tJGPCP/P7lSYZjIkyEGX+NmDLvQZOSiLRIMcYWWslY2SiWeCMTHhFcv8XPSZjwv2j51gbyMgqbqQqJ7w6ftZTJusrCKwCYyTHlXEcWRM+30ZHdx1HtbW1qq9vUG1trWpqahSPx2WccHvu/rBWsoFVYK2CIFAQ3UTWlt472WxG4+PjGhkckJMZUWOVUV21K+v78v1A1gaysWrZqmoNpz2NeZJvi+5ZKykIFHhZycvKBJ5cI8VdVzE3JuPGJddV4DqyxpFnrawcJebN1/x581VdVS3HcUq+D4yMrKx835cNAhnHkeMYGVPu/rUKJAW+r8C3CnxffhCE3zCOIye6DtZa2ShD57quXCe8FsYYxdyYpEDpdFq/e+13+WskY2QcR67jSsaE4xf48j1fvu8rm80qk87I87LyPV+SFHNdubGYXDcmY4xc15FxnejOsPnTt5KsDeR7gbwgkOf58gJPvh8o8K2MpHgspuqaatVUx1VVVaVYVVzxeEwx143GKJANoveW+whsdGxb8uPB5O9TR8Y4ckzuscIUhjaw8rzofWU9ZTIZZTJpZTMZWWsVi8Xkxhy5rivHdeU4jlwTvj/HhNfQ93ztf/VVfki8QfHATLVJVtaasj/lpehaW5v/2SRF01OaaWIOsZXYSmwlthJbia3E1rMutoY/3mzJ57k/fd9XJpM56WO3tLTo3b/3e5KkH/84qcNHDk9zIvzDLGCmYgwBAAAAMNfYSUkDk0tUm+K8py3aY1LWQZKVcVSU4Y6OVTRV2bQJgKJnoDzPz0YJQV/5XGCZ4XJcJ0zUOkaO40oyCgJf1gZybCDHSL5j5DhGCnwZBQqsle9b+cYLE9RSmCCVI8nIdYxiMVcyVrF4TFVVMVVVxaNEr8knbQpJ6vCY1gYqyU9HScV4xsiVL9erkRv3Ved4ijlGVq5cY2WtI8UdqTquY6PjSo9n5dsoOR2dnwmsbBAmqB0FcmRkrVHg+zJWCgJPvmfkS/IkuW6V5jUm1NjYqJjjKpdUD08tPGYgK98Pk83GCZP8ueRcfj9j898yfhAl4K2V7/kKogRdLhFrjImSxU7+bre5JJ61sr6vbNbI97L5JLWVlTGOAteRySXSAys/CJPUvpdREGRlg0AyQT65bm0gG/gyrhPeH0Fxcs3mc9WBDRT4QZRg9xUEgRT4skH4fe0Hku8Zea7kuEaOLwWOovdm8udobViMsIGiJHU0nqboZ4Jx5Bgj4wT5woeRkx8jSQoCK2s9+YEn38+EH15Wfu6eDSQniMu64TgbWcmRXKP8Pe7G3NxtgeP8lDUz2m/CXqboe8VMdVxb2FicoJ70892eRWNObCW2EluJrcRWYiux9Uzbv3+/JOndv/d7et/72o9fBAYwIxSAAQAAgDmpKFGd+6MoUS0FYZdByVNKMo+Fw6gozWGmeKkJzPF2QDgygRcmk7OefBt1xJjJYxmvistxrFzr5hOTNvAl60tBIMkPL47rKAjCHYIgUNa3UTdPodPJGEfGGAXGKAg8GVnF3DBhHY+7pZ000eULrFXg23wis+SKmqjPxfiKBzHF/LhcJ6a49fPJR98zCqyVE3OkmJECT+nMmDxvQgrNWhnry7G+HCNZx5G1VnETSPKi5HT4njLWqqGhUQ31daqprpKJkuWyxfdgmOwNok4AE3Vd5HoTTHRPh0nkaH+b6wAqSr4Vj4fCooExTj6ZHSa3PVnfk28kWV+Z7HjUFRhEXV1REjefJA/fb+AFymbS8n2v8NrGRE1bVsZY2cCJkvVF36vRMRV1j3m5hHeUZA9yyXYZWT+Qlw1kFMhaX0GQle/Fw86nXGdR1H0WREWJ3FvL/wwpvt5Rt5xxnPzn+S47hZ1Nvu8pm80qm8konU4rm/UUBEE0DuEPJOPEZWTzXWPWics1khuLEt/87Dh5ZX5W2+LvDWvK/5ye9EM+KBSRJuW7z8YENbGV2EpsJbYSW4mtxNY3A0Vg4I1HARgAAACY04oS1SpML2bzyYWi+SuLOhFKny8Zaydvmu5V6S6Y8eUxMjKOZHyrQEHhUpgwiRROhRh2hriOI+OYfMeN8aOeo1xG0VhZ38qPum0CayfOWJq/1mGS0eRrEiaXsXVM/vXzu1sjJzc9ZTRVY+kdYuU6knEl61jJsXL8sI/HGimI3qdV2E3jW19eNqtMNiiaQM/KWCtjAzny5Rgj3wmT7r4T3quBDZT1A2WDQJ7CJHU85hZNPVl0Ttbk37OxxdNXlt7EdkJXhomSyPkOrSjRbKNEt+vG5ETTOwa+Jz/IbbNyXFe+72tkeEi+5+Wn8wx8L5qq005Y3s1IgZVX3KUm5TvXwnXhrKLMd/7cjbVRcSLXRRbID4JwrIoLCVHC2w98BVlfXuAr46UVz8QUc518wnliZ6PNJelz3/Yl3Y2FjjcT3S+5KTydoo4WGwTyoikqs54nz/fz4+wHiuYotfL9cLrKWDy818POpbBbiZ8jM2PL/Vy2kx8wk35AT/VEU/K5mfhw0Xc+sZXYSmwlthJbia3EVmLrmVJXW5f/fHRsjAEBThEFYAAAAGDOymUVirstVGhcKpqqrzQpMfEYKp+csFNnrC3/cH1mV6goiRwmG03JdVJu6j/jyBhXkpPvoHGMI+OEyVITRN0nfhB2rPiSF4R5wCC/rp1RoUnGkeO4cqLjBUHUnWLDaSFzrTw2NxWizXWt5BK/Jr/NySW/jCTfk+NlZT0vnHrTRGvg+VbGdZXOeBrPjMr3wq4n3wvy7zc3NaOxueOHayUGgZ9/DWuDfPLdKlz3zziu8u1GuS6j/PpqxXdxmIA2RX05QRCEU3CqsO6iiTqS/CCXUA+T0EEQyHFcVVVZxYNw+r7x8XEFnqfq6ipVxWOSlbJeVkcGjirwgvxUk74fyPc8eUEgGyWrjRQWBIxT6JBSYYpMGSPfOGGiP387RCMTthKFRafceNigcB2Lvk39/Bj4kpeVJDmO5DhOvpMrN31tvohRdAAbFUtM0Rjnt0Zf55L7juvIjbqXpHDNR8/zFPh++L6jvaP0uqyM3Cih7jhulFw3UcLe8HPkjVA2IT3VwE7e15Sd5dIc5zjEVmIrsZXYSmwlthJbia1vrAtWXKAVK94uSfrhk09pbGyUQQFOEQVgAAAAYE4rzjBMSFQXdSBM7kyyxz/mKf8jdf6Ve2GawVy3TNEEilFSMAhs6WXMdQkVfYT7hAlMPwi7QHwbyAsKq/HJmKhbx8qJct2BcgnOoituTZR2LL4Ncudl88nrXMLRmjDBKGuUHR9RdnRYdnxE1vfkuK4kybOBnFi1xn1PGRMP16BzXFkTFO6EXALUBOF55qZqjKZhzKVq8wlbI1XHquUaR65xo/RtmGR2ooEyTvSMwFc+GVu07qYTZmvl2CBcm8+G3T5+bq0/R4rH4nKME3XhhNMyZr2sjAnXjszacF1B13VlA6v0+LjGxkYkx+a7lGy0HqCJpvzMdRE5gWSc3PyxQb7jKz89pAJZPzc2Nrr2QdSlZIuqQYEUrTWofI3BKf0utuH1DqfGtJJ8OZO+sydnJHP56pLONWlSgtt1jGJuXMZ18tfdBkH+Hi3pOApylzrsaMsluI0Jk9yu68iNx2l3lHTqiWA7w5/FpevPGjvVj2qmpiS2EluJrcRWYiuxldh6ZlH8BU4PCsAAAABARZhiSspJyercvjmn81+jk+gwChQokLVRV0+uw0aFbiDfWvnWUywIE6q56SuDIFAQ+JLvSdaXa/2wS8a3SgdWGT+Qn5uuMN+dEyZD5QeSqZKXzcrzsoU18nI3hClMTRfkE+F+PhkuI8lxCnnl6Hw9zw+f74Qvk7vC8VhcmWitQ8WM0pmsPN+XDYIwoRp1BuXXGnQK912Yhw3yt3CY9A0T0VXVVXKdmGScfPo6P3pRkj9cvtENk7jRuYcdT6Z44kfJlWJOXFVOOHWkjTqFZMIx8H1fnh9IQaCx9JgcOZrX2Kj6+proVK08L60w2WzlRuMZ2DDZHCiQa4Jwqk5r8+8lsGFyNjfgxVNMmiBXsDCFBHTUMZVPIhYVK5zoWocJab9QbFD4HsKOoOJ5S0u/B52S73c7+bt0ivqUExUKXBPINUaO9fP3t6IPY2006WbUI+YH8o2VsfHC4U0ga6wc10S3AD8jTtdPntKfwTNNTnNNiK3EVmIrsZXYCmLrmUXxFzh9KAADAAAAFWOKaSujTcXTkdmS50xkyhwXJ8OPErW+H04xmB/eonXirJF8z5dnvHAaQIUJTWusskGU6FWYuJWVPGvCThtrFOTyzkaSsdH0gYUpKH0byPP9cB07P5wC0kSJQqNwjcAwOR3kz9VGa8g5VpLrhF0/jiQ5qqqqkrxq2cCXJ0XTZvqS68payY1Xa3BsTMeODSuTiSZejKYkLFpELVpb0OYXCwzyidgoeR9NpVlVVS0ro4znKTBWjmMUd2Jh95GMAmtlbC5RG3Zo5aeCNCbsrlKYsw98XxkvKyOjmOuGazgqTO7mxih8zFF9fb3S4xmNjo2qtqZa8VgsWqswkCsjJ7omsn6UqLX5DiobdRzZIEr2B1aBCfLTUOZbxnKdYzZKHhtbmKrS2nwtIHevFKayNPl3q9zr5YbOFLWjRWtOFn9X24mFLFt8A5X/fjeSHOMq7kTraVrlJ6J0lMvzG3nRNQ3ya6WGierA+ApifmnivdyPGZyg6X5OT76GmnbsSVATW4mtxFZiK7EVxNY3x4KFCyRR/AVOBwrAAAAAQEWZYl3CCTmoif843ZY9Bk5VNpPJJ6mtouRvlIRWvpPFCadqjKZrdJxovUHHKBaPSTFXRlZOlMQNfKu4H8j4QX5aydwFdRwnXJ/OccPjONGafH4gL8jK92NyoukYw3X8rALfl299BdaTb8NuIcc6MiYmySnJX8ZicQWOo8AJpxrMrUWXOwnHkYaHRzSeSUvWlYxbdD+awqkGQX56SROthWijfQJj5MbjaliwUGk5OpYZ19DQkBrq6tSYaFBgrLLZcG08PwgTxzawclwnfF+5KSPdcJpMY0w4Jsbkk/FZLxt1TZlwuzFynFiU5LdyXFdx15Xn+fL9QI4TKOY6irsxudaXY7NyJQU2kIIwqVyYYNOG3Wk2kLVGQdSlFYQXO0xsR88xMjLW5EtLjsLpHp0J37LF381BlJAOZKJ1GR3lmr/C5H9uZzPNd3SuK8pEfV8TX6yQ7M5dH1dSzObKAYUjOrJyFMhYX74Nix/WOtF6hFY2CBT4ngLry+an6pRslOjGqf6sV5mrW2azmXJPfuYTW4mtxFZiK7EVxNY3zY9//GPV1tZR/AVOAwrAAAAAQEWavB7ZVAnrSUnrYqb0aDgxXiYbJStzUzQ6CpzCdXAUJkhN1FHjmHB9vzBpaqO/shV6cGQleVbyfcWCoHCVo2OEH46ME/4Zj8flREnuwI+S0tG0ipJREPjybdhp5AeBgiDXsBImfMO15aIV65wwlexZP0qiO2FXkyQ/CDt9PBmNZzJhv5AxJZOnakIy1Fgr1ypMvhvJGkcmXq3qhoQaFy5SzbyFClxHR8fTymaySiTCBLxjjIxr5DhGbjS9pueHU4D6QZiA9jxPxnFVXV2lqqoqGZNL3ocJ69z7zSe0ncKKfsYYWRsoFo/LdV15nic/8OUYKxN48tNpmYwXJvtlw/UPo+kqnaIP31oFRsrmuqiK154MwmkdHSu51siR5KrQY2hKm7pKBFGC2horx7jheRlT2NUUfdPmOphKvuXtDL6nw64pk6+BWDmBr5gfFk9MvrEpKqzYQI58eTZ3flJgw4KBzS2smbtfTbQeZcBPlZNVdsbhaXec6kGuAbGV2EpsJbYSW0FsffNR/AVODwrAAAAAQEUrTlYfJ2E9zdOZUe7khEnhQPm5KaMEZZiFNJITrroXd2OKx+OKxWJy3XA6wHx3UPSnsdGafsaPEsS2MDGpEyaV5RQS1DJG8Xg8XMPPFNaOC0yQn9owiNbEC4Kw0yfslAkTwY5xww6YojY2xzgKPClIe7J+Rp7vK/B9pbNpDY57itcnlGhoVHZoRL4X3UIm7MTJdcY4ijpfrFXMSK6sZBzVNibUsOAcmfqE6hc062g6rfpEo44OH9OC6lrVxmvlyi109Rg3nAoxlyzOrQHoSyYI98lmPHlZPxzbeDycZtE4clxXrmPz03cGfpS4teFUmI4TrjDpyMh1Y9Eaj5KXDZQeGZPjeXJLJ31UIMn3rUyUgDayyk1iKWvDpSOjKSqd6P271ipmwwS1IxN1J9mimSMLY2/zuedoek7HyLGBjHHzSWNjTGFdRpNbA7HwfVw6PW3+xiq3nF3hns2dj++H7zkwJZ1rNgjkWF9OEMixkp8bCxnZwMo3gaznhx9+bl3KsDvOkCM9NeZkd2Tgia3EVmIrsZXYCmIrgEpHARgAAAA4K0xcpGqGSQuy06c+8vmkXjhlnzXhNJXGUX7qylg8rni8SvF4TPGYK8dxizpPogRsYBX4Qf76WRM+npuG0XViYVeR64QHd8IEq+O6MiacNtCXlWwQJo2jtQxttLaczSUynVy3k6IpM000iaSjeFWN0o6jtOfJy2bCNQ59X+PprMbGPWXkqjoxT+5YWgr8onvNyJrceoVhotp1jOI2kBtITtzVggUL1NTSosHAUcZxlJGjmKwynq+6BXWqjsfkRocLTzXIj6kkOSYck1jMlY2FyWg/8JXJZuX7nkwmLdd1VVtTq3gsJrmOXOvId/ywkGCt/CAIu4+caEpLSbGYG46jrEZHfI2Nj8tIcq0XrdkXvrfARu/LWDkmkCMp60TfRNbmk85GRq6MYjJyZRVT1K1kCuv+5S9GrrYh5RPlVuHUl8Y4csPLrHDZRidqSjL5DjEVPa/029mUfJ7vWypaK9Lkm6oKays61o+m1lR+qtXAhl1Krqx8I/nGylcgR45yfXQ2sLK+H05XGQQKZ/cM+Ply2pjjxAAQW4mtxFZiK7EVxFYAlY4CMAAAAHDW+f/Y+9PtRpIsTdf8toiqAiBpo5tPEZGRNd/Eublzib26V3d1rVNVpyqHCB9t4gBAVUR2/xBRhYKkeUZXpYe7M94nl7kZQQyqCtAk4xPbez8WVpAW/TxXOqh4VljKiUwKtbpo7lYZQqzh9NBp6Af1XWyVRau3qrWSTK3CQ16UW3WJBVMXY61uilEWYw0sQ2t9GcLy9havLS59/TEovlQqzZUu82eihsqt3aRF9ZsLxeFCHj6qhFgDbivqhkEXttXtlJQO+zr7LkR5C8PrID2TWZvNZ0FRrihTb1IXorbDoGGzkY5Zt4eDun7Qx4/Xen11pYvdTmFuudjaINbrMldqnSqXulireGo4W89lHKc2k7EoXWbtdlsNw6AYo7qub09VWzHOwWtx1WvSUnFTrdzq+15D1ysea6WSvEaxob2n3s4rtFC+tr2UUjuaaFHRTJ1LvZs6rzMAY3sOtWu0rixyubKfqqFi7ROqzlpFW4h1JmULzGXr4Fmn99tOlVUPfuLbtaybGPUBXuqxq4X4dSbj/Fhvj/GWYVsNqb3OZExWz1mqlUv1c5Zba1NXSZm/d/6qf8eDtZW1lbWVtZW1FaytAP6WsAEMAAAAQJ8ONQiR/revbCkqqi0e59IPD6YsU5AvZSYxBMUYFWLXAkfV+3p7H2zVHtC9tq1sbR9DMMUYFLtWtrLMLDwNoXSvcwoVWiidy9kxeimt0sfq/L65RaEkD1JRkPdbxYsXCnf7+sBwbEGs6/nFpdLtQR+PU21NGYJsfgkLZ/P3rNbStJaTVgPMqVb9DF2nmJKO+72eX2z19evX2sYgKSsrKGUplSIP9by7UOthlkmDHmTuyqW2jFSRUsoahkFJSXd3d5qmSRcXO223m1qBFOo8xhha68vUqp9cmqakPJkUozbDRl989ZWmm2vtvz3KPSuoyFTD4zBfMfN2hq7SQmtv4XN0V7T6P8Y7Sb2dZhWa5pmDtZrLl0qyGs5nmRRrKB1CqNVsMbbPVgvETa0i7P5P+On9rK+wutMc6i93aZsJweWlldPlMh9We//m6qnTV7Vdpim3z5ub15mFKu08ajtUFVea+5jiZ/h7G6ytrK2sraytrK1gbQXwt44NYAAAAAA/gRDkf+vqWW3HF9QqhEzLjEDJ5B4lqYbJUksAV20pS5G3WYKes3LOKikptXZ/ddSh18aHNs+Uc7lnFdVWhp2FVuWUZEVyRZVSlHJqLR5by8JSjzcESd7VG+qzKLTIupg0XF3pmb+RfTTdXr/TNE7yXGQla7frdZtr68ns1mY0amnTaVbOAup6jUzZpeM4Kaesi92V9jlpE6N+//UX2poUW2VLUtbHu73e394qbna6vLrURYzadLEG0jm366WlNaQFSV4Ugmm326rvehUvyiXpcCjq+l5d18tMS3DfdZ26rmvXuJ5/DcRNL1+/kv/hD/pv33+n1iFzafS4vI0mxTajMKq2oPR2v1Br11ogXWf7WWvdOQf5849dmTcY5uA61BmL1irZQoiyZQ6lpKC2OXFqUzkflN37cTZr77u1VpRlrjoKSwhdh1mW2mo1mJSKLJc5nV6akNZPXq3MmqvIoruKSpu+WOP6U51VUU6Jv1/A2grWVtZW1lbWVgDAz4QNYAAAAAD4mZiFpXqlhsdtvmBQDYy9xXsWaxVK7Y0oMylNSSlNtYLIa1VRSUklZeVUQ+pgptJ3MquzCaNcirF2FJRkyrJgKqVfVTu1gDKEJQQ3N1nxVqFUOxKaWgGVreqVTLLYaXN5Jbci96y74sphkiwql1xbZc4B8apt4jx18TS30Gq1lptMQWM23Y1JNmR1MejZ5aCdsrZeq2RyqC0/bw9HffPjB92kdxouLvX7N6/19Ysrbd1lJbfZiTU99tZq0t1r+8+u0zD0tRos1Hg156JxGpWm1MLpWqk0DP1SLRY0VxFlSb22V88UNxvlQ6rvrpcl8JWrvg+SuhZUlzY/UHNVmU5tLVU7l9brrVMbydasUh5CfbYQFLtO6rtWpRSX6qo6o9Dan+v19kcLDOeWm6uDbb8FtcoilRZAz5seRa1np2RJbklK6UFIXdavt37x5bnaa7YqupQzf0EAYG1lbWVtZW0FAPxM2AAGAAAAgJ9JiLH+Ug0ia/GMK/upaWBp89tyzq26pFYnTdOoaZpau8SikrO8BdR5auGySX3u5KUopazY97IuymUqLRdMKcssqO97ubpaCBWD+lYOU1INcUubR1dSUU5FJbu8O4WlmutMzJRDlHWDut0zdako3V7rcBiVWqvDUOPppeLGlkmC0lKvE4KkKC+mzcVO22fPlTyoHEdtNp1eXl1o8KLokhRVPCj2nV598YXS5XP9j+/e6Zt373S3Tyop6Y+vrrTpgmIxSameQ6nhcd/1shAUzBSWKh5XsNbes0SN46gPHz4qBNPl5UUNs/uuttucH6eiYEHddqNht9PduJd7Le+y1giypra2BLh1/qApqlWBqdV9mUulVvCchbjSqc2oanVQDDVgV9epdFFutR2pt7A/mMlilC0zKW1pKTk/r7VWlvUtqG0p3WsbTXPV85wj53kuoYqsVTC5F8nqa9fPytRC7eUpl/aUMmvB/GlG4hJbt26YU6JNJQDWVtZW1lbWVgDAz4UNYAAAAAD4uf4HV4zquk7Ra/AXbOnwpxykHF0+mHLnsiHoYnehYdMr56T9Pshvs/b7o/I0KecilaIyJZVc5wrGUFsD5tb6MuesHE0h1vA3l6IUe3Wx13aT1A+9gtXqFreaReaQlEtt75i9yHJWTrmG3jHWwDVYm3NYlEpWLlnJTUlByTpN6nTUsYXvtsxRlLzOzDPJLNbo2iV1QYpR2uy0e/ZCF89eSpudRpM2MejZxaVC6OV5UpYkCyoWtU9F393d6h/ffdT3N3fKodchZ425KBXXYK2axmt7SmvtJfu+r4Fx17Wgtii0uLh4kcnUxU4yKeeiDx+vtd1s1A1RKdXzNUldDNpsOg1BGi4vtb/5oDi5gpvKWRJ7qseSWkWS1Zl+tSWlKXhQsFJHV7b7rB9ZzFRCkLqo2PVS16us5lCWVaCtGGQxtpM+HUSR6vs3z41UaG0pizzXEH+eYFhCXM3BDFJxmedWstYq2TTPQKwbLWqtJutn2pUlpVaZlVXbj/rSonOenSnJXImQGgBrK2sraytrKwDg5/v/mbgEAAAAAPDzCDEq9r2CaktHeVGIURfbjbYXO/UXW10+u1SMUdFMHpJyrmFw3wVdXV5oGAbllDSOo/I0ScWVxknjOCqaqR8GdX1Xg++c5Rbq3L/jpJSSuq5X3/fa7XYa0kZ9J0ULtYQlmsyDPGdNOdX2lyHVtotWK6H6vqutKtu8xJyT0jRpmiZNU9JUikZ3TaW22UzJVUqdy+ithMXb/EULNRjur3b67PPPtdlulbOUY20deXmx04sXzzR0USqubKZsUSkEfdgf9I8f3unbm2vtxyTL0vNu0BcXV3q+6XW4uZEHV2dBIUTFEBR7U9dFleyt5WQNzktRLRtrx2jBNAyDXrx4LpMt5ylJXRfVW1TX1V99jIpl0sXzZ/r4Yy9PWUvrTT+1mVx3bazftSUEnr+e64LsdGgt1G3VRzEqDL1CP8hjJ4u1Sqy4loaWIQaFEKQQTvMM26u4akvS+99z1RahslrpVNtb2lJRdDoBW451fi2pq5VI7spyeUrKXpTcNbo0aZ5VaMoyJXN5CApzVG2mEILSREgNgLWVtZW1lbUVAPBzYQMYAAAAAH4mwUzWxRr0uSt0Uc9eXOnVq9caNoNkUt93il1UDFFdCAoWlFLW8TAq51Tn6cWoru/lkrb9RlKdW9h1nTbDRiVn3d7eyoqr32213e309u077fd75ZR13B40jqM2w6S+7xVjneNnrXrKc1JOo6Zx1CjXNB2UpqN226O2m41irJVHpXgNqVtofjiOOo5JhylrTK5cpFykVKRTWHpqeRhir4sXz/Xmq6/U9UOttIrSdrPVs8sLXW62Gro659DlNaC2oHf7g/7xxx/17fUHHXLSLvb6+sWVPru41It+0CZKVlwlj7objxqPo4oXdbFT7DqFEBRjVN8P6oauXuuuznd0r+F519c5gCUXTdOkGLsWytbiny5ExS4oxqDOg569fqUf/rSRT1OtGjs1ZZRWf1raTZqtWnbOVyfUmh6XZPMz1BmDFqPC0CkOg6zraiXaPItQpbUbjQpLZdJ5QK1VVdAyw3CZKji36gyrFpntuJfWor6cR22XKclDe+aubVrUCq6Spdwql6ZW+VXq1oyySV6K+tVVCWYax4m/IACwtrK2sraytgIAfiZsAAMAAADAz8QkeYwqcg1D1NXzC7169ULPrq7Uxdhm30ld12kYhlpt4tLhUIPWpTVkrmHg3eEgC7EFiG2+4fFY7+O1Eid7UQhBn332WiEE3Xy81nE86nA4aNMP6rtuCSBrxVHSNB40jXsdDkelNMnMtOl7TeNOabtV39XKFC91XmJKSYdp0uE46nA86nAYNaUid1MuUmltG111/qFZDcP7GPT68y+0efZc05jlnvXsYqOXzy61GzpFmczTMl/PPWosWX/+7nt99/GDkhe92G715bNn+uLyUi+6TpvimnKugWgIil2Ujq7xeNQUJnVdp67rWyhtsmgKCirFZVZU3FvDylblpTq/z+aAWjVKlqSSa3PIEqSL5y+0ubrUfr+X27Sk0n7vEzAHxGEOn91aC0+dZgrK5fWb9fEhyLqo0PWy2NW5hNZmD8rkpVZXhVADdLX2n9aedJ6XaKcXWbTmofeOs+0jtHP3XGReZxSeou9Wq9SqntRFKUV5MOUsTXJNXn8V1QqmrDqv0LwolLLMRpxSpk0lANZW1lbWVtZW/Pb/NuYyAL9ibAADAAAAwM8pBFk/6PLlpV68utJ2t1GIphBqtYaKK6eiu3GvXOqMwONx1PEwapqyci5KU9JxmnQ4HGtlTakVIrVdYI0PYwzabDbylHW332u72ej1q9fKqeh4PGq/v9PQ9QrBlPNGwaSSs8Zp1PFw0OFw0P7uTsfjUe6ltcecpJLUx34VUE9KOWtsx3RMWeOYlEqWy1Tc5KVWu2RvcwpdCiFqc3mpzcWFUqp3eHZxqdfPr7TbBAVlhTK3jqwtMmOJCtlVjgfFXPRss9FXz5/rs6srXURTV7JU8hLam5li7LTZ7Ob0ts6JjLFVKfXqWvWRmbVWmvX1plSvfd/3dS5jdhUvil1QsFirelqlVjFTt9vp2evPdHj/UXkcpZx1ah6pVY2Pn4XRZ9VE7f2Tz/dvyXJrtanY5kmu2lvKXSXXcL0+qr6nS5tJ+dIitFYo1TaWtUVovb7F65xLd5e3YHxuRalc32fPSSquGKy2mWxtPq2dgpupBFM2U5Jr8lLbVBYpS8oqyqr3C7ko5NLmXyaV/YG/FwCwtrK2sraytuJJMC4B8CvFBjAAAAAA/IxMpv5ip4vnL9QNvbIXTWlScpenrDwVHY9Zh/1RaUpKOdUqFEleVGfmpaxxmpSL6+CmnLNKybXCKUbtdjs9f/5cV8+utBm2crn2+0OdiXh5oePxqNvbO0WLkiQvri5GyYumcdTxOGpsvx8OB5WSVXLWpu+VU1G0FlBPo8bjUeM4asxZUyoac1HKRVMubc7dPAvvNG8v9p0uLq70+vXnUqlVK5ebnb548UrbIUg+LhUxubXMzGlULKZt3Oj3r56r73pdbbf67PJCg7mUs6ZSlLysrnR93RCDhmGQBattKs3q7MKuU4hRsrAEuqcWjlLXR8nma15nPMYQl+9bC77rnMOoF2++1PvvftR0PMpz0rpZZFGr1vE6s7EsQXWdDeiqQbPNGw3uS4vKEKQi1RC7uLx+JZcpl6I0jsruyrFT51LX1U0AtxpQ55yXmYkWTDG085Za0J7lpT5nkVRUK9uCTMpZJSWlaVRJWTHWlp5djLXiSPVYS3GlIiWXpuKaiisV11RMRTWoLpKKqYbUKWtKtcVpGTN/MQBgbWVtZW1lbcUT+5uZimDg14UNYAAAAAD4GZm7+r6Xy3QcR5knTSqyUnTcH3TcJ93dHTUes+S1cmhpeehaqmi8VaZ4KiqlyMy12Wz06uVL/eEPf9BXX36pzWarrqv/M+/6+kbvP35UHzvllHVzXdtVDuOgoe8VY5S16hULpmChVfPUdo6x67XZbNUPg/o2U9CCKZUkn1wl1wqqXFxTKsolz+P2pLkCSFKInbabXl+8eaOXz65qhU/f6cvPXmkbOllJLYzNSnnSeLxVmg4qeVLMpu3FS31+eamr7WV9PivynGXmCkGSQg1yvU7ds2DyMFcH1coiX1cmzDMB23HW8w4yk0pxHY8HpZTV9536FnB7ezPMJHdrQXDRcHGlF59/qTQddXyflCdXkM/Zcq3WCXVuYwltRl9t3tkqsVolVGnHpVoBFVr1VCgutyx5q8Ny19RmRLpq+NsKjxSjy62G2DmnU0htQTm6YinLOeacJS+1Ukv186UY6jzCUlTSpDxNyq09ailFpesUrFZ3WauUStk1tV8p12tS3JQ1V1fV4y5y5ZKVctI0JU2p8BcDANZW1lbWVtZW/Ob+8rW5t3n9cv7xb//ow50NYODXhA1gAAAAAPgZRZdycaVUq4+iFYXgymnS7f5O07EGj/vDUZ5rhYy8tQNcTZ6zNvMuRlMfo2SmLz77XP/xP/0Hff75F0vwMrcbfP3qtT57/ZmmadKbN2/03Xff6XA4arvZaLfdabvZKMSo3e5ClxeTjsejDoe9jsejSskKIejZsyvtdlt1XS/PRWGKyl40jpP8ONXqm1KUS1JKWXOlkJm1SXhFm02n188vdXW5kTxJRfry6y+166JiKSrFpWJKU9Zh/1HH40flfNTFxU7jOCmmo0Ic1KlTKq7irR1kkGKIrQVjDcfdVSthStI0ThqnUaW4uthpGDbabIuGwVurylP1USk1JT6OR03jpMvLS8UY24zI1K57u79LplBfK7s+++p32gy9vvnvrg8//qCckurZW6tSKkqhBtsyk3luLTmLYnHF4sqlHb9qkVfItQootMovX9pL1s9RmqZaaRUl11SvdKkhdSmlVrH5qaVkaG0652AupxpixxBaLVX9fEUzeS7yMkmqMxtLzm3+pNfWmRak1rK0pKIpS6mYcjG1LqP1PNVaW1qdAllcmqZabTdNhNQAWFtZW1lbWVvxW2Xt52ruwG4yhRCUM59D4NeEDWAAAAAA+Fn/R5fpeDjq2Ed1nRSVpSh5KnKZQrRTa8TsMrel8sTm+hpTm0noin3Q0HXqhk6/++orff7Z5+q7vs3dKwqqrRTnupy+H/T1l1/qyy++bP9gvwaSXYz3p+bVapQWck7TqJSSui7ILKjkrOubaxVJ+8NButureFb2opKnGjavqoFMRX0MevPiSn/3xUtt+qLsR7kFlbsP8otncoVlRl+NSrOyT7q5/aDNplfcDOq3G2WTPBfJi1KaNI5HTdOkknPNQNs1O46j9vu90jTVKp8Q1A+Dri6v1PW9TFoqbaRaEebF596L6mKny5eX9VqW2roxhrDM+zO1NFxSF6KGoZfnpNdDrzJNutsfdff+XQvMS53VGFzJXSUEmdW2lOZ1JmNslUhy11xYVef6SWGs1UqKpwold1eakqaUFCyqHlGRK8vqHkFtX9lanc7vRohFJeYaUhdXLjWkLm12YYiSJ6utNEuRl9TaaNYqNC9ez9/qZ1budW5lyvJUQ3Z5C6alGlLHKHVRHqK8zVEspWgaU51TCQCsraytrK2srfiNa7vAoc5M9xJUnM8i8Ov5/5cAAAAAAD+bIOl4e9DbaVTfRw3RNHSmLkgh9PJQFGOnrusUzFUmX6pmliZqpf7L+uJFMQZd7HbKJel42Gsaj7UNpmmpUGq1Qi2MNblCbY9op+9OqSgGO73G0hJTCiFou92qPdmS7Vw+e6bnz19o6AeNKet2HJXzpClNKkUyRbWhe4pB+uKzl/r7r17odT8p+Ci3qKkEHX88av/uB22evdTm4plC7FW6IBsG2TTIbaPQXSqXXsljC+iTvGQFubZDr91mkJkppazr62tdX1/rOI6apkmxi7q8uNLl5ZW2u62GvlfX9epiVAz1ipQ01koes3b9e1kIKsVVcloqd0Jocxc9y3SaiSjV9pMhBHXbC738+u+1e/tR33+4VpkOqrG7qQRTtqxc01sFuay4zItCqyQKOlUpWducCCYFL2q9OCW1areclHJWCK7gtcoplCILob5eKUo51+C7vdshZsX2PO51I8LltUVnZwpushDac+YWpNcDykW1raW5imWVedZiKbJUZLnIirWQul6vEDtZ3yt2fQuqw6llZWspCgCsraytrK2srfjtq38F1grg0EUpiU1g4FeCDWAAAAAA+JkFl47HpPEw6mBFnbmiqVYAea0cMa/BSbEkSa0l4irQa1VKKSVlL5pS1sfra328vlE3DK0NYVTtDFjn9c1sFXi7agh+OBy02+3OnvtUZ3RKpl0ulTZKsBT1m42++sMf1O92sv/7/9Y//dM/y32SSpFCkuTadFF///uv9cevv9DzXa9Oda6gq85XdC8aS9HN++90c/1Bz168Ur8Z5B7k3ivnTvuDa7cb5MWUSpuJ6KW1QaxHV1LS7e2d3r17qykl5ZwVu05XV1e6unqmzbBR7FpwrhpI51KU06hcimKMGoaNYoxL+8aSXTHU92J2egta00hvwbXqrL5iQXHo9ez1K/XfXOjD8XZ5kHtQMVMp0noApdULWkNp9yU8s/Z5CZ4ViiQr8lU7zZRzaxlZaiDsWZa9vt8mefE269IV5zaVOShbWKrditc5iWamLgUNMcpirdwIVo+nJJflIiVXya7sWUlSkcmtDmIMxRVzDcrr4beqrq6TxU6x66QY5TGoaK6gyvyFAIC1lbWVtZW1Fb9V7e/RUxtok8klC+qiVMxqy/RS+IcJwC+MDWAAAAAA+Jn1Mo0eahvI3GbflVwrUVolkVqbR88tsGxtC6VT9ZAkjbno5m4v91zbH3pRykVmQSFkFbfaVtGthZ613maez1VK0TQlbTancLYGNPVFXfXxkjT/obZ8NJkFyTpZ7PXZF1+pG3bq+53+y//3v2iaDorK2m6j/v7vvtDffflaz7ZRnRUF09KSMqhWAYUyKRTX5Ee9O+61u3qui8srXV290DBcqou9ZKaUi3KbF5hzUm5hUs5Zh8NBN7e3GscaOncx6mK308XFhfq+b3Py6mkEk3LJGo9H3e33GvpBl1eX6rooMynXFFldF9t7MrcGlZZUfFXltaTlbR6hy/XqzWf6+g+/135/p9ubmzZ30JVtFf97e2wbSmhtE2COvWWSFVcIWVZW74G1jYL2WbCi1pC01Oqp+fjKHH67yny0Vtqcy1qltPRBbWFd33VSF6RiraZNitnV5RpQe2tVOR9HaedvS6Y3V8WFOv+x6+qvUCuUljdBReSAAFhbWVtZW1lb8dtjp78+z2+b/2O+zKmeZ5bXVuf2r7oRPI1H3gzgL8QGMAAAAAD8zPoWmZib3E1eJM++ZJVmNRwxUw35WhDqc/s0P58oOKWkru+03W5lMSqlVNsGSgoxqPdOMbgszgFh/T3lpHEcZSHU1paqVS06Cxu1zMurLRNbzG1BXezkZjocjzqmov7ySl/87nd6/+6dfvjzn3S57fWH373R77/+TFdDVG9ZZqE+favS8ZxUplElp3qW2TRm6bjfK0+Tnr98pc1mpynVyiS5lEpSypNyTnWOYsna393p9vZOx3GSl6IYB/XDRsNmo67rFGOsv7p67ofjUTc3tzIFbbcbbTa1squUslxvqQZU2ctp86Dd1t6o+V5LRdFSCxak7eWlfvf3f9TtYa//+n/9X8qpKC958Glu4LwBYVplxTp9baqtH+vb1r5j630La21LWx/JU0Faay9ZW1jOUZ3Z6b01zbMSa8gdQ1HMRZ1codRNhHqMtXpO5fQZKW0Tw9sJz5VViu2IQpB1sc4oDKHuDJjVKqs5NSSlBsDaytrK2srait+2VgV8dlOrZLf2DxckyYN01hP/X8HE1Qf+YmwAAwAAAMBf4X94Lf9CXtZKTuwsHJ7DkmChBtZySVGr3pFLqUppVTofPl7r4scftd/vlyqXLkZ1XafNsNPl1aX6flAINVwcx1HH41HPnz+vLRtTXtpTrl/orF2lmYJJMUSFGFUkHaZJ33/4oD4GPX92pf/w7/+NXu2kTSz68vOXutxEdeatOqnU1onuKrkoT5PydFTKU33dJFkJStOk9z8kTcdRz16+lodOU6oz+UpJyi2kntKk4+Ggu7s7jdNUq7pCp77vtdtutd3stN1s1fe9ZFKaJt3e3ujm5lZy07Nnz3Wxu9Bms1UIoYbCXgN9U21jqeJSiKdqrXZNlqBrLiNrlV214kGyaLp6+VJf/93f6Zvvv9ePP7ytFWKt3ajNSW17nM1tL+XrnHlhpbaSXJWNLWH1XCll6+Na7lVvz0swfqo+ktc2mJ1LvVyDmzZydZK64gqt4slkUgmngibVeqgsWyqm6uzBOYSumyG19sNqSN1mE7rahgwBNQDWVtZW1lbWVvxmnVUBP2gFPVfHt58+n/9hx+kfWZz/8AP4a/z/SgAAAACAn1kvaZR0SjzmCGWuhDl9awkWTwUqS0WTJJXiyiXphx9+1PFw1MXFhYJJshZSx06bzVavXr3S69efabu7qAFzybWoJEa5F3kpS3gzh7A2B6Fe5x2GYLIQ6/y5FnYOfa+hiwo56WoY1D0ftEsvFC3rYtMpyufCqBr4elYpWSllTdOknKY6r85ra7igoM6LDvtJ39/e6fb2Vs8++0KKnaacVPKkaTrocNzrsD/oeDwqTXWeY7Cgoe91cbHT5cWldhc79X1USkfd3d3p+uZad7d36mKvV6/e6NnVMw3DoNBCaJNahZitQmfpLKq3exGyr9/H9uf2/sQY9erVa3399e/17t1HlZJb5VENa9cB9fn0yPVr1Aoxt/PnP6VutjzXqniqBm6t+qj4HFbXB4X2GYrt1+CunVy9pCG7OrM6P7Odf9Fc8WRLaJclxdoUc55gqVwvYK3qqj04lb3Iytw6swbd8yYFALC2sraytrK24mk5/WMcLW3YT/84Z731e/YXMoCfGRvAAAAAAPBX0Js0tijylHGuZt7ZqUWkBTtVtJzx1unP5V50PBw0jqM+fPigGINiMHVdVN91Mot69+6dbm/v9ObN57q4vKxhc+xUirfKmdJCyFPzwzn8nAtPQoiKMSwhrkm63G7VvXqlfLyRHz8o3/6gbRg19L0689qu0OaKHFcuRdM4ahxHpbG1mmztFOuvIi+TylR0PBa9//BeV7d3+vx3v1e32SinrLv9nW5urjWO43Lc81y8zWajzTDIzDRNBx2PSTc31/rw4YPG46hh2OrVmy/04vlzDcNmaUs3B/Kr0oR7IdXMzoOr+dRaKFufotV6FWm73enr3/1O/+N//E/dXt/Ua2q2VCXNZT9LTnb2/Ks/PQjD2/3ryL+zDYz1B2v+jJzC7xZUe32dTtIg11amwbVUKEWrAbebVGz+jMwVSTXcDi0tL8sr1aql1pGyzXsrUk4yD7VaqX3GKVICwNrK2sraytqK37bHqoDPfvbabrDd++F/UAUM4GfHBjAAAAAA/BX0c+nP2bS5E5MUzBRCkFlo0aKdBY5qrf68+DLyzXPWmGr1Ud9Hucf2OlnjOOpwOOrDx2u9efNGz54913a3U97UCp+cSyskWc/jq4FqjLVlZgihtSNsObpLUdI2Ssd80McP38nGG+2GqH7oaj2M1YFfdYxe1ngYtd/vNY5jq05qrQ0lmZfWfjJpHLPGUUpZ+vabf1boN/ryD7/XlJL2d/XxXlo6u2rAWIprv9/r7m6v4pPMXClNStOkGKNevHip58+fq+v7U9vHVl0zX+e5EimsKpLmOZFzi8VSamWXq8jO3sPS4v16/xg7XV7u9OUXb/QPd3ulsjzh+a922zLvb936sn6zxtd+HrTZUrJmy4fHloD6PAifn6fezRW8fhY3Jg0ubbxuoIQiBTsF7tmWuirlepOCL9MJ5ZKSJIV6r2BWP0dWA2yVUo+hlOWcYpvBCQCsraytrK2srfjterAJPP8s6v6//7BPFP3yLxeAvwY2gAEAAADgr/I/vky9mdIq3Fyi1hbwxRBqO0hbRXmtx2HNJU/z3nwdnLTctZSilEwqNYS2EDRNN7q+vtH3332nN59/rq++/loxRvV93/JoUxf6OteuFLmXGk53nSyEloXWapfQ/hG/5VH57r2OH39QzEdttp2GGJfXdK8H5J41jUmHw0GHw3FpTWlttp23dptTGjVOScfkKurUDb1cUW/fvtXli2fKOau4lvmO3kLa7FlpTDoeJm23F+q7XjFKsQ/qukG7bVDX93r58pW6rmsBtJ96fi6dKFtUba4YglI+zUVM06hpmpTGGnrnlFRKkskUZYpdkFSUU52hWGQa+kF9v9HvvvxSH99/1Mfra5V5VmHJslLbVJqvSqNW7TF99cbWIz5F4vXQ52oyn0uDVvdymUoNre30mOC1VWWn2jK1N1PvbT6h+/nnsR1F0NJ5st7iYZlpWSSVVUVHkCu01qq++uy6ezsWI6AGwNrK2sraytqKJ+JBP4VVNbBWn/t1MwA9/C6An/X/TwIAAAAA/FVsY9DRTbX4xVuxTA32gkl9NIV4qpiZC1ZKLftowWFRWVU6SefhYilFyaUQgoIXubtyzvr48aC7/a2urz/ocDjoqy+/Uuw7dbFXDEEKJldR8VJD8jDPSfRTS0KTOi9K460ON29Vpjtt+zrDsFiUKbbcp1ZSTeOk/X6v/f6gaUqSz/PsJC9FueRanZSLxuJKFmShk8VBzy+vZJsL/eM//IOGYVDxsmRKObtymlRyUex6bYZew9Cr74Y6V7G9xmYzaLfbqR86mYVaR1SKXFlFrlCCYoyKUXWunopSHvX+7Vu9f/ejPnz4Ucf9rUpO6kLQdhi02WzUtUC+s6hNH2XuClb/B/aYs65vP8hL0O7ymf7jf/x3+n//5/+i8ThKJSsoKpgrFldYQrJyej/dl2amvqoIuv+rxsJ+XsGkNnPRgyzM71utaooyDXJtZOpliu0ZgtX3/tQScz6O+TdTUVEuUvaiEk3Z2xGbtbjaVBQUrFYx2fLIUywd5naVAMDaytrK2sraiifh0U3g9jN3/34A/vrYAAYAAACAv5Legqwrdb7d3LqwdUwMwRSDK8QaeM7mqqSUXSF7m1FoS6HNuq2aWajtApcqpxpThuAKMShG02G807ff/bNClC4uLtXHQVdXVxo2m/kVa2mKaZkHKI+1xaEmySdNx4/yctQwdIrephu2lpSl1PKYlLP2d3e6u73T8XiU3NV1vYJZnVOYi6ZUNBVXylJ2q7FmjNpeXWl79VzFgl69eqXj8SiXK+egNKUW7keFEDV0Q61OCjUsDyEqxDaHsG0CpDFJPirGTnJTsiSNNVDdbDbqNr1KGfXu3Q/6H//jv0mHUdttr8tOevXyUkMf1YWgrs1rrO9H1hCkLrhyyrUap+t1tbtQsaBcgrrNViX02mw6BWVZNoWSFXJRyHVuoLych2RW5x96e/Pvh9NlCY9LDbGtTUr088/TUgmmIJMrumswU9+CgKj6OQutWuN826O2qRxdGr2+R0d3JZkmN2VJxaxtnqgNN6zzCYvVoDy0A5lnQa7bfwIAaytrK2srayuehlOF+/rGe59NhlUDvwg2gAEAAADgryR40GaIUq6hruxUkWRmNTR8UMxRQ+nQBZXsUqsEcj9Vk9RY2E4tL+d2gW0eXm04KMUY1XVBpSQdj3fabAbllJTSVKt5+mG539D3CqFvs+2izLOsjDoePuq4/6icx9aSMKikvMxTTCkrpaxprLMJU0rqu15d7BRi0JSSUso6TklTLhpL1pSzipu6odfF1ZV2V5dSDCrWKwZTjF2dUehHhRBqEG6lXa+wnGvx0lol1vMtpehwPEgmbbeuGLNCqzBySTEEeYk67id9/92f9c23/6TXLy/14s1L9VZU8igpy8wV5LI6mU9urhhdXZCCF5nl2oaySH3otdlt5KHX6EElRIWgeh5Sa/3oCq1Vpby2BjWbj0paZkbaaTNi3VmzzJ+LtjkgravaVvPX3JbPRmeuqDmgrp8PM9O9hqeSScVCDaQlTXJNLk1eNJkpuykr1GM4a0lZr3cwl8V4+kTa+RxIAGBtZW1lbWVtxdPz6Ebw8k0+q8AvgQ1gAAAAAPgrioqKm9RC6tWYPElmbcacnU+M0zybsLMlDHa//y/rbXmuWrFUv1jfz4IUgkshK+VRUtFue6m+H2QK2h/2uj3sZcHk0fSsf67OomRJlpOUk8abW6X9XqFMkgUVbxUxcpXiGsekcTwqp6Scs0IIdUZgiJryVOcRTkn7KWnMWSm73EzdZqPh8lLdptec5oZQZAotDA0qJajk2tIzRpsH5MnNlUuWFSlYC4CthvEpZ0lFfd8pxiCz2ML1OktxTKNuP77Xt3/+Rz3bdnqx63XZB0VJpUTlUltbqpTTJkCb71jfHV8ueMlZaRq12W61GQZ5Nn3cH5TadQheVhVoXls8rmb92erDYG2+4GOz/UwueZCWhpY6jTnUadNjVbjUfp1/6Nyk4qfncFmtPjLTpFqlNMk0WtZkriRXUlCxVrx277iWWZrzGVltYTlvGgAAaytrK2srayuetvVPF3W/wC+LDWAAAAAA+Cvy0mnYjKpJrHSKSULLOq1VGmn5/imUbs0nW/XR+ePbVz/5L+xrFBnN5TnJS5aZ1Pe93GobS8uj9oe9fvz4TikUXVxcaBs7Bc8KOStPScqu4JLsfJZeSlmH/V7jOCrlJJeri50sRk0p6TAedTseNI5Z+2mqlS4xKna9uu2g0Ed5MBUrMksyFbkFybKkLAvzryRr4apZkZRrRY9c2bNUYmuHmZVT0tGThqHTMETFMNQQ3l05J+3Ho96//1GHw61eXz1XSEcVS4pdbXspRclNJbY2mpLkrcJIdVafQqhtI0tRTknj8ahuuFDf7zR+uK7zGWOLid1kIdS331SrlFoV2dl72nYx5uqkeZJh0arDqdsqENZcrqY5jvY2Z1JzJZOb6pRGV1atQDo9vobWOVhrUWkagzS6a2yVSnVbw1dB9Clhd/kSjK9yeJlcFqj6AMDaytrK2srair81fEqBXxYbwAAAAADwV5RTUAydYrcK+vw8XJ6rYSQtbSiXVoStZ+FZTLjcdz3vbl3p1J6oBZUhmFxZpSS5FxW5FEwWOw3aKoWifTpqev9Wu3Gv59udtjEqTqMO4yhPqTYq9BqYl1yUStHxOOr2dq/jOKl4Vr/pFXpTSpOOx6P246GG1KnOs4t9r64fFLpOoTMpFHnIkuUW1pc6/zAn5ZLkniRLCjHX8FWmECdZUItdo4qbvNQWiSUXFRV5Nu33pthJXdep73ZyV6uqOmp/uFUIRV5Gpako2iBTVwN2CwrRZHNrxtKaRZortOobb4G5rMhL0ng8yPo7Dd2gy8udtttBKY8tyFUts8om97BUoK3fPmszG+eyibLMplzNE1wH1G7Lg71VH63f+uCSF1NxKbuUwjwL05e5hzJTCeuQWrVKyWvFUipS3SrQqbGltSqyuVxMvnxty9EEWlQCYG1lbWVtZW0FAPyVsQEMAAAAAH9l09hp2KbHvzn3HGyVI/LVzWd/Oq9kesjuDeMynaYZulxJqYxKmjR5qqGuJMWgOPTKSdpPR+1vRh3u7nTRd+pL1v7mWna40cZc0Uw5F41T0jRlHcajxuOk4zQpdEHW9ypT0vF40HE8akyjppKkrtNmMygOnSy0ENNcbqm2o/Qg89riMOfcQupaWxNCqXMD53l85q1aqraxNAtq+XkLgGuGexyLdFu03e7UDVuZRYUQVVq1Uh2tlzVNSWF16UKoFU8uk7mv2jOaYujqXD/PddZgqIF9zqOOxzvZZqPLiwu9evVcbz/8oBIkKyaLLhVT7bEpefHlXdFq7qBaKD2/qPt6LqCtfj+1LfXVt+ZPiBVJxeSltZE0Vw719jKH28FUgi0h9eSmyV3JpWz12kqtls7Cqpmm6ue0VUeZScFMIczzCSM/8ABYW1lbWVtZWwEAf2VsAAMAAADAX9lhH/XsxajHqojcVkmkzcPnWojpp1l265l0tWLnXzKn3bXRofukMe01pp0sDYpBUogqkrKZSggqXVT2SdfHUft9kY57TdfX8rtr9e4aYie5NKWsNCUdx0nTlJRy0fZiKx+z0uGg43RQ8SwLrn7bK2426jf9MidPbT6jm6v4qJRLDaplSjkrl1xbQwavx7mEt5J7aq0qTaVVYWmp8DmV62RPOo5Jt4cLDdud+m6nmqSazFobScua8igbtYTCXSfFrnuk0qa2m7RgrROkK5YoL0VesvJ01HS8VeiivvrytfbH9zqOk6zMVUi1Qsg91JaXPjeX1GojoT73XMlkXidCmsIqrNb6k3CqIJqfx03BWzi+qnAr5kpuSxfLEkxuphyCipmy16qmUlzqpFjqx6yYndpqzq+5Cq2loBBaWC09uC8AsLaytrK2srYCAH5+bAADAAAAwF9ZTqbDIWq7W1UqratTHhQd1aRyzkltaUH52KzCFhfey7/rPUurfMpymVLaa5z2iv1GVst0lhl02STvastHRSnlpMPhVtO0Vxr3KvujuhAVLCinUn9NWVPKsmDKY5Ry0pQnKbi2F502216xD7IYlgA+nE6+HWGWSlEpc1vOdkSryqHlzz43bSyra9Cuzb02nW5S8kk3t281DL2urj6T2aa2oQxBoQS5u0opmnxSsE6hVVCFGBVDrEVFpbbObGMEa4GORXUueSzy4sopy9OkdNzLzPXy2YWutp2s1CDdTS1QV60umoNorZ54mYrodXOinW7w8/d5aZG5vopLBVfb2GiPM2+zClvCP189tzl8rnMX5yDaXLLi6rIUfT7usDx26ZC5VL/pNLXSJC9BnmhRCYC1lbWVtZW1FQDw18YGMAAAAAD8Ava33XlI3TLnxyO9dULr54/RqbrlPLj+xMNrM0pJpuJJ7pOKRhUfJJmyTNmkYq7sdc6feVJQVr+JMu9k2iqZlMZJaZo0jUkpFZU6xE5B0nQ8SME0bKMurra6uOjlrf+jW52LeDrW08xFM1/Fs+2+Ohvb2K5TrS6ypZ2nn59/e575UfU7QeN0rQ8fari7272SWZGpVuOYesXeFIophDk+d3kpUnTF2NUAt7WWnCuiTFIIoc41LC4rUi5Z5XjQMaf6Wl1U6jolM2XLMpmidOopqRbIn53GKgzWuo2lNNcA+dnb7ffefj8NP3Q/Fb3JJD9VOrmdNz0NyyekVjjlHFbVT3bWLnM9Q1NnjVNdxwORAwDWVtZW1lbWVgDAL4EVAwAAAAB+Acd9VJqCuv4UGn+SffILSXrQsvDx52rlKku1U5KUJWUVT5r8qCLXpKCkouxJJU/ydFApk9yTgmXFWGSboE2/k3yrnIuOx6Q0JeVU5/S5XCEGbbadNpuo2LX2m3MKv8o0bR13rk/krGBrDlrnuXjz0/ipRaetL0BNeu+H964sU9Hx+F4fP7iiTMGDYjCN2XQ8FNkmSl6UcpLkCiEo59TaWdaqJbM6ZrDML90qoiwEhRAVQ1EpWdNxlB8nmYJePX+pqRTtp32rbirtPEznMyX9QbXReubifG7n5+UP9ib87L9zyj0H1fZgr8M1t8CsYvuquBTK/GbM8XU+q1JaXn51aCWZcqJFJQDWVtZW1lbWVgDAL4ENYAAAAAD4hdzd9nr+8qhTIvupoPpeBc4cap5lsA8rRR4+TQstW2WOKUueVMqoUqJykSYLSiUr51FlOsrTUcqTyjQp5EmljJKSzE6B89BJg3qZhSVkXZ9KrRdaEt0a6tr8HS0nYusEWnXy4OmU1q0bpaXyaA6/ZeeXS8tQR7mX5WmsHc04Xuv2plcXdu2RQXf7Saattp10GEd1ISzBtKekUoq62Knve1kwecoq2aS4RM21YEouT1k+JY2lqJjp4tlzvX75Sj9+KLob7+r9zE9B/erwHytIO73h7Sz8dAc/z+ZXUf0nPhOtzMh1L+OX1ZmJq8A/yBVdZ5VjpwonW72DLl+VWN3uB37AAbC2sraytrK2AgB+IWwAAwAAAMAvZH/T6fmLJAv3QtYH1gHl6aaz1o3ruXytdMQeVDfZqZpEJldR8aRSslSySkl1Tl1JKmmvMh3kaZSmg5SS3LPkZe6QqNO0RGtpZ1lGBtq981k1OdSSpNr9e32qSefjIb77v3DJtH7YXNHTZvfJtT/eqqSDjsei7C6zqGk/6uqiaNuZSk6yw15mpn4wpVyUclZRUdcPCtHkJauUFuB6bq0/633cs/rYS8mVbg7aPbvS1e5KUxk1+rH1g/S/6BxOlVd27/PgNURffUzC8ojHKtr8/A1Zv1NlvlZ+7x2ze8/nq6Iye/A6XqTjXeQHHABrK2sraytrKwDgF8IGMAAAAAD8Qtylu9tOz17kdsv9UHEVCp6Fmf9CtGuP3iqtK00kFXeN0yiPBwULKl4rapSSNI6yaZSlUUqTrORTNc29Foe26j3p5svL+9mr2nknyX+h9Wb1U20O7RMPm9P7x65XTdetfT/7KPeooqJjnpRTUpqOuju6Xj/b6nK71Viy/HCnXZCGYVApWeNUZCbF2KuU2pJSXucZek5KOcm9KHRRXderlKAg03Q4auh7DcNW0zi3CW1X6Kw0aTW78MEVOkXDZ48we3C26+vt917HV5+R5X7RTpsI7VHLV3Z61nXQ7Y98rq6vw09vIAAAaytrK2sraysA4GfFBjAAAAAA/IJuPnZ69qKcVxyttfITs0cqlR6wR26xe2mlLR0t3Uw5JfnhoJBdHjoVC/KSZXmU5VEqqc63Oz3bclhLbLkqInLZEoCuj8b89Ae71z3RHw5a/AvP834Y7afXfRBUazn/qtRjiUXDNip2nXIJmo5FJY06pFFxChq6KBWXHQ+SmfquUylZKSVFi3K5Sm4hter7GEJQiUGhuGKIMgVJQbKgLkhD3+uYo6Yl4r1/xqsJi6azc7W5HMns0ctk9957X1+T9ekv97Z7r3+6bv6pY9KpKsrWQffymTZ+sAGwtrK2sraytgIAfkFsAAMAAADAL6hk6eZjXCqVHtSarFs5fnKOoT3y+3mNkFZzAs8e5VklH2uljXUq1to4epJ5lnmqk/3WbTDPyo3O/7yMIFy1Nqyh8cPqmp8+LVsl2/PL3Bvm56v7nN3Vz2Yb3r+epwdkWSwKQer6KCkqbzYqOSrWKY61Ssm8tus8mmQbBQWlKSmGqBhMikGlFFkxWTAFiyrFlb0sr+nFFcwUQlAfomKIyl7arMDTbMB70f7ZRbJPBffra95O+bSncb77MW8k3P+c2f130+u9/MH8RDsd81nLzPrc1+9NJfNzDYC1lbWVtZW1FQDwS2IDGAAAAAB+Ydcfaki9jk8fBpb3Q+ef5meP0aPPs7S/dMm9SEr1+d3b65eHjTNXVTNLO8r5Kd3vtUz86TBUD57bzl7H3R6+9rrcxh4+oa8H9j14RWsh7fk5uLvMspZqsL6vEwHd5SlrKkVeJOVROkpD7GVuisHUbTfq+ijPNaiWW2v5GVR8VCrtnQxRxV1D7NT3G8WxU8jpNF9wVU30sDXk+fW+/24+iLWXy+9n513fapOZP3g/fHXVzO+/9r0NDr//ZpxmQF5/oEIJAGsraytrK2srAOCXxgYwAAAAAPzCSpY+vg969mI6q8RxnYe2elCQ83Cu4RJG2vkcu0/Hwy6p6MHMuvm7Z2FlWYLjJeydj2mptDk7nNMf71cRPQjg1+U1jzz+/mHb44Pw7rd1fPQ+S1lPaF+doloL51cthE7KRSW7ppKlNMpzUWedjnL1fVTXd7IYJQtyBZl16mORx1E5S7JeIXZSlOIwaAim/nCnKY0q5g/i9EenUK7S5FOA7w9D7UcGBC6zB+1TNUnnwfX9a3evzq1dY7u332H6+F7KiZ9nAKytrK2sraytAIBfGhvAAAAAAPArcP2h0+5ilIWHPf7swR8efncOXq2FyO6fnml4FoquHnP/hXxVgnS/NupBFvpYx0i3pc2mnyXfutc+cXWs7Wv/ZDWO6ZPlOo/c+yeeRbpXF3b/kTW6d4VQq5c8u8Y0qihp229UUpbto3YK6rpB6jay2Ct0g4au16buFkjWyy3IgmTRpfFW/eFOGu9knleH6o+/t490rpyDYne/9/DzuqN/uWbo4ZRCLc+9+iQsAfiq0ejq81Lc9eEdFUoAWFtZW1lbWVsBAL8GbAADAAAAwK+AF+nmY69nLw7zLfU3uxfwnm48VYvM9/b7UwA/3axyvt1WoeN5S8l1S8JPP8fpEfaJXNjOI+M5oH7kCdfBty39ErWEpX6/OuaRo3j8tofh9P0WmOur4qvKIG+tHd1qwGxeg2ofsy4vnmnMWRpdu26jzeaFuotL9buduq6XFVfORa5aveReFKIUNhe6Pd7p+u6dUkn1+Mzvn+jp/XP79IjKT5572zXwv/QTuG5leZo7eP7c94Ps0x8+vDPNYxkBgLWVtZW1lbUVAPDLYgMYAAAAAH4lbq97bS9G9X2rVFpaMS69IE/9Ks3O2kSe3U96JNR8PK1cB6Dnwa2vXvdTFT/Lqy2H9ylnVUGPPN8p+GyVMOZSsfNXe6wVpj9SwqN128ZVUZTPbTf/wkmPq+fOqk0tQ5RiCJpS0u14p8vta3nY6OLqM108fy0feuVgmrwerynKFZRLkRSUUpHUaxiuFPutxsO8KVHaa3qtGpvDajvfSPj0eftPv0XthtNn5v4MSF9aX7o/9kS23G5nHUVd4yh9pEIJAGsraytrK2srAOBXgw1gAAAAAPgVub3e6NWbg07BoK9G1a3bSZ5Xjix3mxNnO4XMp4D4frActA4lzR5WutR2lz8VfteWmN6qiu7P2Juf090fPtbvFS21/9QQdNU60tcPuH8OqzB5CblbpZGf7lNP49Ti0vSJQH59meZ2je2PRSaXq5hLnSu79PzyuV6/+aOG7UslGyQPkkKd+xe9vaSpi20AomdJrmHYqu8H3e199frt2L08qOayT5Yp2Vk70J/y+CbC+vMzX7t7b5IkqZyq2ny9KeF692PgBxcAaytrK2sraysA4FeEDWAAAAAA+BU53HUaD4O2FzXMvF+Zc9aucXYvfbTV0MBTTO2rBoynFpQue6Qd4eq57LFk87EKl/qEZqeU19ZtJe3xNooPbw3rM109z3yajz1P+94ShN8PoO3BYZ9Hsf4w919dU7v3KJdLFtQPOz17/UbD5ZUs9u3YW7tGM9XBhHOw7qvrbbIQ6+zD+fq1qYhnQfFqg+BhwBzOr4H/r37i1vMh712qVWDvqy999af9bdDdTeQHFwBrK2sraytrKwDgV4QNYAAAAAD4lfn4vtfFpSR5bdeodYXSKchczNU5Sx57ms33oOhmzf6yho2ftpqn577KoufXtnsJs7eqJ33iiH56Hp+ZPRLW2nxZ/jKr+YePfENn1Ur3vp5nQdbjjBq2l9peXCn0Gyn09YxbkO626rLZ3q7S3iOTqet7DZtt+/b8Hp/PU/TWutL1+PHa/+K7dz43cjXncvmDr059taFh905I0vt3Az+wAFhbWVtZW1lbAQC/MmwAAwAAAMCvzDSaPr7v9fL1HFKu5u/Z/aqZ0yzDU6vK+p9H59s9yu8ll3+J8zu7l9PNroeVT3PVlP/0EdljqfoqLJ1De/kpiP/Jw7v3cjWTLed3s3/h2qyv8jI/MEohqlhUMVMwU5lrrNrlLC24L2chvslCUNdvtd1eykJU8VQbYPq8rXBWLtXex3W9mR6f2fiXvM/3Ttcf7zt6HtnP19rXb7D04d2gNDKfEABrK2sraytrKwDg14YNYAAAAAD4FfrwznR5FbXZLo0KW9XPeUg9/+73Q0s7D6kfVLT4WfRa73/2+Hsv8S8Kp2N58CT/0hP52QxG9/v3t9WMQT9rnXj/Vc4ukJ+O5/x0gnSvIui8Oun+BThd39oN0yRFlVL/nHKRp6NKLvLiS5ZbiiuX9vhSv2cm9V2nrnOFuFUIvbwcl/fo/H0KOs1i9HZqtjQdXZ/uw2thqxaZp9vuX1p75A13u/+OPayKG49B11QoAWBtZW1lbWVtBQD8KrEBDAAAAAC/Um9/MH39d3ZWsyKbWyGuAmbpkdaL1iqaHkue59qnVZz8qXIduxdQ6hP3Wz2zPXqfdVS8bsV4HraezuheSG2r53ms3+Zjx/hYAc5q0t5Ps9Vr+cNHeye5NB5HlXyQFE/nZbXSyIsv1VvutUKrFJeXpGnKmsaiYJ0UYsuUQ73c9+cprt/vtpOwfl47m2M5z2301RGvv//wltaDcnX1z2c4PjgomT78uOUHFABrK2sraytrKwDgV4oNYAAAAAD4lTrsXe/fBr36LLTmhfeDV19Vp6xLdx6GivN/z6tZHgm2V3es3y3S2X0fxrtzeP7IrafHLg+3s8ecZ+u+vsvDJpTrsYj3Qnp3v3cctj6jU6XXeg7fai7i/cqo07W+9zo2v3aQl6zbmxtdXQ7abAZ1sVOwsHq+2qryPndXSkfJg4L1knpZqJVYtrSmPEXpp7aU6/R6rp7SKo+3h5+M+58XX7X6/Om3dXWH82D7w9uo4yHwAwqAtZW1lbWVtRUA8CvFBjAAAAAA/Iq9+yHr6qrXxWWU1PJjX8/7qy0Ul6/nbo92PttQ8/w7n9sorkJOnT/G7FTp4h5W2egjrSbNToHz+gXnzNw/1f6xBcSPzMmzpRJn/bp+ask4n4O7ZKX+HmypDlqfr7s/3iHz7HjVOkH6w+/N13hVveNWVIqUc5ZK0XbYaOi6eUph7Q6pOWQ/Bc0myYIpWNDQB6X8XNc3lzocjnJ3heVFw1nobL6eJ7iaIHi/teiDBqHrSqv1++EPw+kHz3/v2jf7O+n9W+cHEwBrK2sraytrKwDgV4wNYAAAAAD4lfvum0n/7j9uVre4rCbVS+g4t3w8Bc2ne9uqcse9PbbVNZmdfklhFTpryTLtXsWLPVaptGpzaWZyl4oXeSnLbWbhLDxfnnRVwRQsyM4qfeZvlqVqaA7la6tGb899+nU61toqspSyCvXnb57C7Ll6a76Pnf+nBftldfWzYpTcgvq+U4x2L1Y+f6X5LLyl164sSbrYXujN66/03fdHTUkKoUgq9Yh81UzT5tmIfromZsvcQq1e47Rh0DYl7LzN5Xzd/Owy/XTbUXlZ3oUfviv8QAJgbWVtZW1lbQUA/MqxAQwAAAAAv3LHQ9af/ulWX349zIVGktTC5tZ6cJlbZ2eB8XkV0qrloU6dD+vvQWZZJpObZL5u97hqgWm2qmN5OB9wCX7NT/noOmiew9OVT3VKPA+041JZZVbqvD+XpLCqalr3sXxsdmE4O85128/zUXzn1T8uk3lolUqmYEUy1xwFq7V+NNnSNvJ0vcpS5zM3fJwfE2OvZ1evdHd3rdu9y5Qky+26rbYH2tdn1WhnMxFXx63TnMRTD9BVsF/8FHivrv5yLfxeU0o3qW0ufPvnrPFIhRIA1lbWVtZW1lYAwK8dG8AAAAAA8Bvw4V1S7JKevZDmNNFWrQXtXri4Di9X3RdP1vMMV+0dba5waTME/V5ybEuFz+OVSktrxtZPc5mjt0pv71cSnUJlU7Z0r+3lebvNuUrHlWu4Linn8/st4fT9uX5noW07m9UYQn/kKR6co1o1U6vA8pLrFfH5NeYnm1/W7z3dXPoVJIuKYaPd9kq3tx9UNEpW7oX1c1C9rgDzh+/nIwdqiu2Vy+nyBC0B/nKo3tpwuj9+wjJ9eOf68C7zgwiAtZW1lbWVtRUA8BvABjAAAAAA/Ea8/V7q+qTN9vx2s1VhjH8qXT0Fsv6gdKm1PPTW6vH8gQ+/ssdbMp5VUK3u9ykPgu5Tn8WzG07PdarQsXvH50safu+4bD2Cz85G9K1f007NOB85sVNt1SlydqkUTdNRpeRWALWaA7muDNL5eZ3OKkiK6vut3K229VR5eG4PbtGqGsrPTsbX74/le987b1l5fhEe+9zUFznsXd/+eeIHEABrK2sraytrKwDgN4INYAAAAAD4DXn7fdSXv5tkYW56WCtk5uoi/1R5jX+i8GYOO1tQ7X7ve6tZeXZ2++nGh7frLBQ/m0W4fuhjZUHLb37Wv9K0nst3Pmfw7L4/dZL35/qtz0/3jv3esS5VXMtjXVaKxmlUKUlSkCtIKm0OoZ9Hv+v5gu34a1FTUN8Nte2mTu/p/Br3j+ns7fEHB3n2ZruVe3MM/ZHL4vJPXzjl7PrmnxM/eABYW1lbWVtZWwEAvyFsAAMAAADAb0iaTG+/7/Tmy1HSvU6Mn6w2kR4NYx9UuJxXw8zhpZ3d2877Xro+UdVTQ9glGPX7lTZ270j9rBrpLJ9t3z2brtdO1drswbPA1s7n7i0H6fOr+Gpo4/0rYcvxn3/TlkKj05FnTdOdchklZZmiyjJTMC/zHx9ef1+1mnR1fVSMUVNSm394Ou5TMZLpYaZuq/fG711bl7k/aDN61kLzkzsXJ9/8KWscmU0IgLWVtZW1lbUVAPBbwgYwAAAAAPzG7O+C3r/t9fKzSZLda5+4Zvp0CrmqTnE7dYGcxwaeTdaz++U29dnbXD5fZuitnt39vDLKH2uN+PjhLs0cV9VCtsz3qwF28TpXz1qi66UFs7Zqa+mnYPv+HD67l/ieh9T2aOg93xSWxyRN+aAp7ZU1KliQ3FVKUfEsKSieku3TdbBT7B5CUPCgYeh0HEubU3gqz3Lz832As8IlU/FTiH86mXYF7bGenOv36P7tdvYefvdN1u114QcOAGsraytrK2srAOA3hg1gAAAAAPgNuv4QFaPr+cv1LLpPzQW8f/s6kn1kVuBSxrJKrZenOQ92H7Z9/NRLzZVC5/U0y3EsIfm6TePqe3N7Sg+1LWf7XghdnRMoSSq6P3Nv3fKxVu48cnBLMK/T3MZ1MnzeMVNuVl/LTVM66m7/UbvdlYautqqs8wmlENYtPusMyFOvy6AQgixYC6kHuRe5J5n56nzPW1eevaWuFkjb6ka7/6584qNxXq1Uq7p82XB497bo/VsCagCsraytrK2srQCA3yI2gAEAAADgN+r9206xc11c/VSYaKv/VnNFi9n9KqZ1qdL669WYveWu99s43rvtQQtEO93HH6+cOhvl57a6LSiEqC5u1XdbhW6QhSgpKOWsnCcFCyplVMoHlXSUlSKZq5w17zxVdJ1VdfnDoN3Ozms+vvPKKy8ulUnXN+91dfVcMfaS+lZdFesxWg2ng4VaQdV+l1kLs7NCCNruriTr5GVqLSyXPpz1mN0ffV+X+/mp/abJVqfU3mt/7HqfNiPcTve5/uj68TsCagCsraytrK2srQCA3yo2gAEAAADgN+zH73qZTdpdnkJF+1S1kp39plNVy70Qd05oazq63NNX+bW1MPSsBeP6aV1yK8uDluKcdcvHszmB61KgUB8TJPOgGAftNpe6unyty4uXGjaXSgq6vr7R23fvtNl0+uz1K5Vy1P7uvY437zUd6vzAJFc2PzvbdcvJ+x0kl5uttby0daNMb9VOai0ygxRMh8Net3fX6vutuhgUwtCOPyrG0CqATlVK87XMOWmcDorBdbl7oRh2kpKKJslrsB0sLpsJtTNneTgvcr17YHZWTHZ/OuRyrTWH0i2gbud5d+P67pvMDxYA1lbWVtZW1lYAwG8YG8AAAAAA8Bv343e9vvxd1mbbioB0P5w8S19X9S3re4VaHTS3UpSreDmF1K2qZg6brbVaPGdLCC25SslLdU2YA1qb4952WC0cnecaqrV5lJksdOrjoOfP3uizV19qs3kuV68pm64/3Oi//Ndv9MMP3+vv//h7ffnVC+22UZ+9fK3p+r3e//CtPl6/02hJoxWFdt7R7Xym33zKwdvrtqthqhVFobWTNFNpMwi9FJXSntN6eTHt99fabi50cTEoWqcQN4qxkwVbqq6WkLu1sSzFVXJWzkmx67XdXmhMo8w6maJC6BRDX+cfztMWi5aZi/X5itRqsU7Ru9+rGFt9CpbH6V4qL93duv78zwd+oACAtZW1lbUVAPAbxwYwAAAAAPzGuUvffdPpj/9m0G4XVEqtWKqVJ2024Bw2B1tV35x+n1kwWQiyFlKXXM5aJJqVe/P7TtVFFkINbkMNqnMpyjlLrhbozhVRZTnGdUtMC1EmUykuFWm3faY3b36vq8vXMm11t5/09v07ffvDW/3w7qM+Xu9V1Ov99UHvrvfq4jN1YVDMO+3ic8VnvVKXdZP38lCD8FBOMwvlruI13A3RTvn8fDyteseshvF1CmJu11MytxYaB6V81M3te8U46PJiUIy2ZPg1EC6nL1oW3nVRXXclKWuc9hr6QcWjXEVB837BqmWl1K6tVNzbc5ZWuVSWc1oNXVwe56t5kfP7OYflknQ4uP7pf+ZH2mECAGsraytrK2srAOC3hg1gAAAAAHgCSnb94/8c9Yc/9hqGOdAMLaZ0eWnhZG7hdasmOgXHp/9aON22PK6pIfUchNaQVzp/rnngna++V1qDyJrRllbxVAPxel+Tcj1OedB2e6mvvv69dttXGsdO33z7Vn/685/14eaDun7QF199oX/zH57rx+9/0J+/+ZP+H//P/5f+47//t/q3n3+pFxcvNXQb5XxQ6Yvyh2/1w/vvVTwpuCS1c5iP38upAmsJ75cTrtfX54qgWmUlM5mHlgmbpKD9YS93aRi2srhRSfXec0lWMNV5hfNTzzMEQ6fNsJW7625/K/moU5/JuSLpfC6kyx8JlFdVSuc9QO9tLJw/zzQGfffnXoXulADA2sraytoKAHgS2AAGAAAAgCcipxpUf/7lqGHzsFXhnFCe2jG67H6ryXUWarUSZ37sefvL9nzroXiyFuSe7juH13U2oJ2Ca6tVPKs6mvYcUX33TG8+/4OGzQvd3Cb91//+D/rhx2sN217/5t//vb747DPtNjt1IeqPnz3Xl5891//nv/43/df//g/yfdK/+f3XenZxpRh2iqHoy2Gj2+Ne7z/+We5TPabllV2l1HDc5LIQ9bC156nFo9q1s9PZ1d8tqJSkm9t3GnaXsmPRt+/2evP6jS63O21kGoJJcfW++PxbkQVT1wW5jyp+275R5zXOgfT62vtpoKS03iBYDYD01ZxJPVJ85HKNx6gfvukIqAGAtZW1lbUVAPCExGef/fH/5DIAAAAAwNPgLt3dBvWbpK7Lqs0V51+tesXmIDm3iqG5zWH9c/H1/U+Pd8/Lc6yzaTdfhaMtxJ2LbCRJ9TnnGX2nsLXeXrzIlSTLkndKqdfHd1nffXenP3/zXm/fX+v152/0b/7tH/Xl5290eXGhoQvqY1Dfddrsttpc7HR3e6OPHz7ITdpcXigOvULo1A+9Qiy6uX2v4mmZ7becy2r2YmiVXa0z5eo86rXwVm91+t7pOepsxywLneL2Sh/uJo37Udthqz5G9X1UtLCE5OvQOVjQ/vBB1zffq/ihXd/QrqUvF3PuKmrzcdu9vQhTrWyyef/A7+8sLF+Px6Dv/7yVF+MHBwBYW1lbWVuBX71xPHIRgL8QG8AAAAAA8NS4aX/bqR+K+r6ch5Rz6DqHnTa3XVzNwmt3sKWV5boYyXQabWhLGHoKTH15TDDdC3RXoarpNFtPkqy2rSyl134f9P590u1d0XHM+sMffq+/+8PXev3imbZ9rxBqZOxmcjNZNO0uBw1D0Mfrj/pw81FFkiwql6x+iNpuOh32e43HQwuqdTr25bjsXmGXn/16cJ1WIbVCPfdSiopLrk45Rz3bXepqe6mLzUZdtNVrnFdByV2pHPTu/bdyH2UKpwqv+djmaqTlgNe/t6qy5YRWb7c/fP8Pd51++PO2tgcFALC2sraytgK/AWwAA385NoABAAAA4Ina33bqBmkYyilE1rryxpZAeWk52e6w3L5KbVe5dNOqmNaPX935YUDtq4Dba/XNUlETFeNOl7vXev3ySz17/kp3x4NCJ/2Hf/dHvX5+pSHUY3JzFTMVq3VDHoosZA3bqJSTfnz/Xj+++6j3Hz/q+uajQic9u9hqOo66u7tRLlMLx+uvU07b2lDWxpBtPmA5a0+5XIj75+ClzTJ05eJKWdoMO71+8UrPts80dF0N7VfB9tye09tjpaR3779VzmNrlGnL8Zw5C53t4U0/9aEw6fa614/fbPgBAQDWVtZW1lbgN4UNYOAvxwxgAAAAAHjC3n43yEvQ81dJXmr4uoSYNs/jM5nXGYJz2Dm3STzdd85pTy0T1e4/t560VXXMcqd2P7P1PMJTpGpmbRZipyE+0+tXX+nVyy/l6nS9v1EpRcMmqesOCpKKTLmYkkINqnNW0SiFotgX7a56KRRdX98qlUlJG11eB+22rg/XN8puKh5qq043ycvqhE/R8eoMltts3X9zmcS4mrLorZVlGZWP1/K40yZ+rS4W2dIWs7UONW+XpqioHkuMnbo4aLRWhdVae5r7p5NnXx/P6shsdeR2elev3/d6/8PADwYAsLaytrK2AgCeMDaAAQAAAOCJe/dDp5yDXn9eg+qHrRjt1DZyHjXYyprWd53nDEr1+26uZUShXLaE2g+D0+XPvtTmtHsGWQiSd+r7jS53V+pjr+NYZGbaXWykOCnFvcylnKWxSFlBRVKeJuVyVOxrFdTd/q3G6VqXl72++vqlLq+2GnadPh5vdDuNSkWSBQWLcvM6o899af9oq1Ikb+Gu+b1Taq09fQ6pV4+vYXWR/Kjp8F7Hw3tdbC6kMFcF1RmJtlyB0uZGRlmIirGr8wk9t9t/yr335/67aqfrLUnvfxh0/b7nBwIAWFtZW1lbAQBPHBvAAAAAAPA34OO7oDT1evNlWmYJ+lyh1ELqoLAUvcxz8doXqu0UVyH1HNOaySzUahoLq1c83Xf+eq14WcJwsygLQX0nDb3kZdLt7UHvP17r1eev9P54VB6kPoYaFof6dOZZZkfFkFTyqCmNOu7fqe/2evFi0B/+cKHt9lKpmHJ2vfzqC739JsmPR5mKTEHF5labp+tgyxnWYF6rNpY+n0oL8H25PvMXcxXWpOIHvfvwja4uX6iLpmChVWTNv1wyk9fBhgrWK4Repqji6bxKTKfrtZiLwFo6bu399NUsRZlUsunHb7c63EZ+EACAtZW1lbUVAPA3gA1gAAAAAPgbcXdj+vPY6/OvXNvt3FqyRbK2JJ4tcD5V7ZjNLSzrTL9Twc4crsZ63yWk9iXcdZ/nHfpZTc0ceLu7FEzROnUxyEKRQpb7UQpJP16/1+2fJr367KWeP99qNwRtOlMXXJ1P2vST3F0pT/J80Bdvdnr+7DPtdr2eXR6V3JTzRocpaExFKYZ6bjVdVrDa7tLlqodyqrOaM3Yv9XunFpZ+FhZbG+A4Xw8zKcSiUva6uflR19ffazP0ChrkqhVZLqttKFv4LJdCjLq6eq67w1uVcWo3zu9Jff4gb1VMXltUzpVkrbWl3E9dKeUaD1E/frdVGo0fAABgbWVtZW0FAPyNiM8+++P/yWUAAAAAgL8NJUvXH0yxM2229TazoBg7hRA0V9CEEBRCJ5kpxFjbSVqooXWY/zzffx1Qr2t87OzrOdidw99aCRVqNY516rudtptLdX3U5sJk26D//g//pP3RNeyeK256KWRJWV4Oct3JtFfxg1Iq+vHHjzoeRz27HHR12cmtKIVOJe6U4k4fD0dNdx81eFIXpBhNIQaFEBRDUAxRIczVSjVUD8EUQqeu6xRjpxjC8pj6vXB27iEEhbiqcHJTzkVXlxfqYpQUJI8q7iqeVUqNvoN1Mgvq+qjb22sdx6OKz1VgJqnOLAwhLK1EpTnsb3++1wr09rrXD3/eqmQCagBgbWVtZW0FfvvG8chFAP5CbAADAAAAwN+gu1sp56Crqxo817aRqyC5tKqis46H1oLX89vm/zu1oqyPK6VI7goWFOMc5p6qgE5tIYOCBXXdVtvthWI0WZcUOunP377T7W3WdnuhzcVGMUTJTaVkBSWZJ0kb/flPd/rP//lP+uabjxo2O+0uLnXIRR8m6f0o3UzS7e2tdPtRW2XFYIoWZOFU3TNXLs2tN63NMwwhtGDeVr/C6RrYHOxbe4wtt5XiSlNS7DrtNjuF0EseJLdW/VQkDwoxKlhQ3/cqJetwOCqX3Cqg6mzJsGwOxHYtW8VVMAVrbTBlcpnefj/o49uBDzoAsLaytrK2Ak8GG8DAX44W0AAAAADwN+rje9dh73rzubTbScnT2WzB2MJZqQaxxYtKLu3rubWl1daIFtqUPEmq1TTBg6QiM1cp53MK52C8jvwrcjeVklrVjclK1Ha41Jvnn+vm/Q/67p/+UTcfvtfF7kIXu602g2nTjxpCUZkm/eM/vNOHj1mvPrvUcHGlsUTtk+tmzPpw/CiLk7Z9VL/tZOMkz1lp6Q9Zg/LsRdayamvtIz2E2vax9X5cxfCyEFu47Tr1hrR2k6uUGhxLrvfvftTzq9cKYSdTV0PqFoqXIillZSsahqBXL77S3d1e/jEr+17SJFmU5mtoNdRfH5O3uY/7vemHb03jkcokAGBtZW1lbQUA/K1iAxgAAAAA/oaNR+lP/yS9eu16+doV2sw9qQatOU21VaWdphPW/7Zwerm7S17kc4CqWoHjXlrFj50F4LXtYlm1YnSldNQ4HjQMG8mi0pR0uD7I06RxOmo63OrGPirEQV1vCmGSpaQyufZ7l8Vez65eaNNvZSWqt0E7C7LOlM20M1cuLs+lBuRtluJcYZVTqq0nLdQ5gpKUi9Rac64GAJ7abrrUYvvT3EWvMXcwa7MEXcdx1O3trfruQl3XL/cfp0m3d3caj0dN06SuC8o+6e3bW41T1rANCmGQe5JbbXtZA/42IzLUuiR309sfTe9+IJwGANZW1lbWVgDA3zo2gAEAAAAAevfWtN+bPnvj2u6kWj1TaqtJk0KM98JqtYC3/sGsVtuYXK6yVOpo9fUSBy+319C3Fju5Skk6HO603T2TedC3f/5BH398p13s9NWrF4rBdTiOOqYaDOcSlCapJFfJWcFcnoryscitU1SnXem0sSgPRflwI6UkadWVsv3B5IohqJSirNLaYbpyqSF1aCVYLpcXb60o1b4vWWiB9RJSzzMDi4a+VmsdjntNOSnEomk86v379/rzN3/Wu3fvdTweVUqpYb6knEf1Q9azF4Mudr2szVCMoQbUNZjOcpeOB+n7b4MOez7HAMDaytrK2goAABvAAAAAAIDmsJf++R9Nrz8zvfm8xc9WK3hqS0q19ohaKnJcNZR1SbU4yZVzrmGt2qzDVs1jVmf5zebqpOJF5kWTm273t+q6a8V+q3/+p2+Vjkd9/dUb/eH3X2uzMY1p1DEVTUUac1KaJqWU9M//9Cfd3HzUh7cfdbXbKpReIdQwt5fLbNLN7Y1KGqWSW1BeA2a5q7SWle5FwWIbWVhnDbpLRS2YVpAry5c5jfW/QUFuLnOXzJaZjm4uhTqv8TjutT/sdXMz6fvv3+vbb7/Rj2/f6nA4ylsYPj9rCKaul8Yp6e5iUNeZNtugzSYoxjazMHR6+33W2x+cDy8AsLaytrK2AgCwYAMYAAAAAHDm7Y+umxvpzedBV8+szsBbVRQtf2jh9FKtZCZfmjZqCWvXDyzFz8LqMre9dJeUNR4P+mH8QWZbvf3xnS4vLvTms1d6fnGpoQ9y1daWuUijuyYVlZx13O91vLvV9Ycbvd3sFDRoO2wVrCh40Thda5yuZZqrlEqdNWiSl9JqplylFIUYW4AulRKWc/dWzaQ2t9AUJAUV1TmMS9XV6lqapJKzitd2lHf7f9aH9wf98MMH3d7eKuV6PMFCvSbBZBYVQ5QFaZxM5a6o603HlNUdizabqJJ6Xb91TSMBNQCwtrK2srYCAHCODWAAAAAAwAPj0fWnf3JdPTO9fuPabE1e1nMFrc4flJYKpjqjzxRjaNVN1TK/r/25tqWsVTzrqicpSF50OBx0c32tcRz1xRdfarfdqOSsKRcFd8mzLGd1JqUY5V706uq53m0v9OHDB717+0Eh9Hp2lWUlq+RRrr02m6IQJLOgUtRmEppKyS1gduV2biEE1Wqh1UXxGmJLc8PNWsFV21O2iqflOpxaVWZJxU3juNfbtz/qw/u9xrFex67rFEJQP/TquqgQQgvJQw35LSh0UuhqW8rjOOn2g6mMhQ8pALC2sraytgIA8Cg2gAEAAAAAn3Rz7bq5ll6+Knr52mXmshAUluKjOlevhtVz4KyljWOd7aclpA4hKMbY5h+aYghLdZBZUAidpKj9ftLQR0lZ0zTqIFNXXCElleNBypNKZxo3W40q6kLQ1cVOtze3urs9KOidxv1RZkldzHr5aqPtblDOSSqmLtZw2MwVoq0qi6yNLmxnFWoYXUPrOaSut9VWlDUsdp/rreqf6/nMMXa9fy6uVJLcTN2mV9/32gz19+12qxjr9bNQr6mXIgVTiJKsaP9x0vgh86EEANZW1lbWVgAAfhIbwAAAAACAf9H7d6YPH0yvXrtevHQllVrNM88vDFFzVc5ZpY7XPxcvy+y+UopyqY8v87zD1vqxlCRZ0ctXG6W00TTe6uOHH5U2W3VjVnr/UdPHa3malDe94hevlDeDxuyKFtWHTsc06ubjjdJ40IuXG736/Jn6rh6LKUjmtUIpzAn60mdT8lq9ZMFaIB2WqizJFGKUF5eXOXSfzztqHskotXPOuVYvWZ1jOBVXv+n1rL9U118otqqk3kx9jOqHqNhFDcNGIZhyGZXzpPc/3Oj9D/vlNQEArK2sraytAAD8FPvdf/o/WOUAAAAAAH+x2EnPXxQ9e1FbJ+ZSFEOQWZB7UYyddG92n+RtFl9Q8aLSAtcudkuILdWekNbC4lSkj+/2GvdJm36rYZLCzUHdmBQl7TtpfDaoe3GlKQeNt5M+XN9qmkbtdp1evb7Q85eD+v40YzGs+k5aqyHyFrjPrSctBJm8tdQ8VQy51/OJobaRtFWwbaEG8HXmoWrry/nxViuVpsn04a4olY1iv1Pso4JcvZtMrmAmt6IuRm22vW4+HPTDN9dKY+JDBwCsraytrK3A37yb649cBOAvxAYwAAAAAOB/7X9QBtfuYtT2clQXa3nOacbf+o61CKi2hTRN06g5DJ6rfErxJbgOLewuJShNRcd90v52Uj4mddm1kRTNNEZpH6XSR+XJVcb6+O026vJy0HbXK3au4tPSGjPGdmwuxRjrHz0rxto+c26pGUNXA3b3ZYahyZbKqmhBXVfvc6oemuc3tuKn9kJeXBaiDsesYzJ52Cp2G4XOFLwoFC19PW/u7nS8cx1vXSXzP9cBgLWVtZW1FcCMDWDg/4//n4INYAAAAADA/9b/sDTp4irr4jKpH2qbxzV3V865zvQzSV7D3KU9ZXuSuYVlbSEZW2VQkDwqZymVInNXX6RgpmSugxV5iArZ1HtUDEGxc4XoCqEei3uWhRp8933fjqmOIHS5iuclQJerzhhsPSfnmYP1SzvNW5TVuYya22zWKDuG2noypUkWgroYNE5ZJlNKrqJO1g1SjFJwWQupD3eT7m5Ndze+dPsEALC2sraytgI4YQMY+MsxAxgAAAAA8L/FXbq9jrq9jtpdup4/ly6upFq1I+Vc2py/2sIxWJTMZKrBca3iCVK77xxSm1Qrl9zkLqWW3gaXYjANZhrkkkzBomKZ5wQWuSe5Sq2Y8k4xRLlcIUaZTCUnzWmwtfaYXrwel51mE7q3wN1MsVVfldayMnatNeecKrvaeUqd9e1x0tB3CqFT1xXV0ylql0B3N0Xv3xfd3Uik0wAA1lbWVgAA/jWwAQwAAAAA+FezvzXtb6Wul66ema6eubreWkvINofQargbQqyVSbmmyy6vt1uoc/+KK8ZaKeTuGubgWJLcZXK1KFghuKx1oKz3iZLHpXqouNf2kaW+loVwNnvQ8zyXMOhUONUmGbqW39tL1/u0MLvksnrd0x3d23G2aiepKJg0JenmXdH1R1ea+MwAAFhbWVsBAPjXxQYwAAAAAOBfXZqk929d799Km53p8jLo8qqG17Xyx5ainNpCUqsiHZOX1koymrzY6puuYGFpa+ml1O+5VFooLHltOxlMnlvwPCfL7rIY1Hedcskq0ygvmsubpDqNcHnOpWpJkrzdblJQaK9ZW216C8HNatWUtD5maZqKbm6k2xvTYU81EgCAtZW1FQCAnw8bwAAAAACAn9VxLx33prc/SNuddHFpurg09cNpJp+710oizVlwDYO91NvMQguE69ch1q/Vvi7lFGLX/3qNm0No7TDnlpTLXRTMFEJoAbMphHr/h6y1oKzPG2XtJl+O09Yhd6gh9XQsurs13d5Ihz2fAwAAaytrKwAAfx32u//0f/DPowAAAAAAf3X9YNpdmHY7abOTLLQQWWphcQ2lQwjL7cWL5FrC5TnYzqXU+9jcXtJO4XFpt7dn8VJkwZbZiTlnuUsxxjbPUK2tZFXz7Va7ZLUKykupr2nWqpNMpZgOe2l/J93duqaR9xgAwNrK2grgX8vN9UcuAvAXogIYAAAAAPCLmEbXNLo+vq9fb7am7c602dTQuh9MwWypAHJXa1Gp9rUrtHaVMcZWfXT6N87mtlQ9zaG11OYJ+qnCaA686zdr9VLJdW6iZK31ZPvz/ApmmibXeDSNo+m4Nx0P/PtqAABrK2srAAC/PDaAAQAAAAC/CseDr4LeohClzTZoszH1vdQPrmEwxS5IrWXlki3Pvy/tIqWlbEll9efWVtJbm8niq9C7KBcpyJRLa4FppuLSNErj6BqP9ffjUcopro6egBoAwNrK2goAwK8DG8AAAAAAgF+lkqX9bdH+9vz22BV1ndT1pq6TYid1UQpRitEUoymEOldQ4dSecqkwcpO7qZQaSpfsKkXKSUq5KGdTmlwpSWly5cx7AQBgbWVtBQDgt4MNYAAAAADAb0pOrpz0M7aFpOIIAMDaytoKAMBvV+ASAAAAAAAAAAAAAMDTwAYwAAAAAAAAAAAAADwRbAADAAAAAAAAAAAAwBPBBjAAAAAAAAAAAAAAPBFsAAMAAAAAAAAAAADAE8EGMAAAAAAAAAAAAAA8EWwAAwAAAAAAAAAAAMATwQYwAAAAAAAAAAAAADwRbAADAAAAAAAAAAAAwBPBBjAAAAAAAAAAAAAAPBFsAAMAAAAAAAAAAADAE8EGMAAAAAAAAAAAAAA8EWwAAwAAAAAAAAAAAMATwQYwAAAAAAAAAAAAADwRbAADAAAAAAAAAAAAwBPBBjAAAAAAAAAAAAAAPBFsAAMAAAAAAAAAAADAE8EGMAAAAAAAAAAAAAA8EWwAAwAAAAAAAAAAAMATwQYwAAAAAAAAAAAAADwRbAADAAAAAAAAAAAAwBPBBjAAAAAAAAAAAAAAPBFsAAMAAAAAAAAAAADAE8EGMAAAAAAAAAAAAAA8EWwAAwAAAAAAAAAAAMATwQYwAAAAAAAAAAAAADwRbAADAAAAAAAAAAAAwBPBBjAAAAAAAAAAAAAAPBFsAAMAAAAAAAAAAADAE8EGMAAAAAAAAAAAAAA8EWwAAwAAAAAAAAAAAMATwQYwAAAAAAAAAAAAADwRbAADAAAAAAAAAAAAwBPBBjAAAAAAAAAAAAAAPBFsAAMAAAAAAAAAAADAE8EGMAAAAAAAAAAAAAA8EWwAAwAAAAAAAAAAAMATwQYwAAAAAAAAAAAAADwRbAADAAAAAAAAAAAAwBPBBjAAAAAAAAAAAAAAPBFsAAMAAAAAAAAAAADAE8EGMAAAAAAAAAAAAAA8EWwAAwAAAAAAAAAAAMATwQYwAAAAAAAAAAAAADwRbAADAAAAAAAAAAAAwBPBBjAAAAAAAAAAAAAAPBFsAAMAAAAAAAAAAADAE8EGMAAAAAAAAAAAAAA8EWwAAwAAAAAAAAAAAMATwQYwAAAAAAAAAAAAADwRbAADAAAAAAAAAAAAwBPBBjAAAAAAAAAAAAAAPBFsAAMAAAAAAAAAAADAE8EGMAAAAAAAAAAAAAA8EWwAAwAAAAAAAAAAAMATwQYwAAAAAAAAAAAAADwRbAADAAAAAAAAAAAAwBPBBjAAAAAAAAAAAAAAPBFsAAMAAAAAAAAAAADAE8EGMAAAAAAAAAAAAAA8EWwAAwAAAAAAAAAAAMATwQYwAAAAAAAAAAAAADwRbAADAAAAAAAAAAAAwBPBBjAAAAAAAAAAAAAAPBFsAAMAAAAAAAAAAADAE8EGMAAAAAAAAAAAAAA8EWwAAwAAAAAAAAAAAMATwQYwAAAAAAAAAAAAADwRbAADAAAAAAAAAAAAwBPBBjAAAAAAAAAAAAAAPBFsAAMAAAAAAAAAAADAE8EGMAAAAAAAAAAAAAA8EWwAAwAAAAAAAAAAAMATwQYwAAAAAAAAAAAAADwRbAADAAAAAAAAAAAAwBPBBjAAAAAAAAAAAAAAPBFsAAMAAAAAAAAAAADAE8EGMAAAAAAAAAAAAAA8EWwAAwAAAAAAAAAAAMATwQYwAAAAAAAAAAAAADwRbAADAAAAAAAAAAAAwBPBBjAAAAAAAAAAAAAAPBFsAAMAAAAAAAAAAADAE8EGMAAAAAAAAAAAAAA8EWwAAwAAAAAAAAAAAMATwQYwAAAAAAAAAAAAADwRbAADAAAAAAAAAAAAwBPBBjAAAAAAAAAAAAAAPBFsAAMAAAAAAAAAAADAE8EGMAAAAAAAAAAAAAA8EWwAAwAAAAAAAAAAAMATwQYwAAAAAAAAAAAAADwRbAADAAAAAAAAAAAAwBPBBjAAAAAAAAAAAAAAPBFsAAMAAAAAAAAAAADAE8EGMAAAAAAAAAAAAAA8EWwAAwAAAAAAAAAAAMATwQYwAAAAAAAAAAAAADwRbAADAAAAAAAAAAAAwBPBBjAAAAAAAAAAAAAAPBFsAAMAAAAAAAAAAADAE8EGMAAAAAAAAAAAAAA8EWwAAwAAAAAAAAAAAMATwQYwAAAAAAAAAAAAADwRbAADAAAAAAAAAAAAwBPBBjAAAAAAAAAAAAAAPBFsAAMAAAAAAAAAAADAE8EGMAAAAAAAAAAAAAA8EWwAAwAAAAAAAAAAAMATwQYwAAAAAAAAAAAAADwRbAADAAAAAAAAAAAAwBPBBjAAAAAAAAAAAAAAPBFsAAMAAAAAAAAAAADAE8EGMAAAAAAAAAAAAAA8EWwAAwAAAAAAAAAAAMATwQYwAAAAAAAAAAAAADwRbAADAAAAAAAAAAAAwBPBBjAAAAAAAAAAAAAAPBFsAAMAAAAAAAAAAADAE8EGMAAAAAAAAAAAAAA8EWwAAwAAAAAAAAAAAMATwQYwAAAAAAAAAAAAADwRbAADAAAAAAAAAAAAwBPBBjAAAAAAAAAAAAAAPBFsAAMAAAAAAAAAAADAE8EGMAAAAAAAAAAAAAA8EWwAAwAAAAAAAAAAAMATwQYwAAAAAAAAAAAAADwRbAADAAAAAAAAAAAAwBPBBjAAAAAAAAAAAAAAPBFsAAMAAAAAAAAAAADAE8EGMAAAAAAAAAAAAAA8EWwAAwAAAAAAAAAAAMATwQYwAAAAAAAAAAAAADwRbAADAAAAAAAAAAAAwBPBBjAAAAAAAAAAAAAAPBFsAAMAAAAAAAAAAADAE8EGMAAAAAAAAAAAAAA8EWwAAwAAAAAAAAAAAMATwQYwAAAAAAAAAAAAADwRbAADAAAAAAAAAAAAwBPBBjAAAAAAAAAAAAAAPBFsAAMAAAAAAAAAAADAE8EGMAAAAAAAAAAAAAA8EWwAAwAAAAAAAAAAAMATwQYwAAAAAAAAAAAAADwRbAADAAAAAAAAAAAAwBPBBjAAAAAAAAAAAAAAPBFsAAMAAAAAAAAAAADAE8EGMAAAAAAAAAAAAAA8EWwAAwAAAAAAAAAAAMATwQYwAAAAAAAAAAAAADwRbAADAAAAAAAAAAAAwBPBBjAAAAAAAAAAAAAAPBFsAAMAAAAAAAAAAADAE8EGMAAAAAAAAAAAAAA8EWwAAwAAAAAAAAAAAMATwQYwAAAAAAAAAAAAADwRbAADAAAAAAAAAAAAwBPBBjAAAAAAAAAAAAAAPBFsAAMAAAAAAAAAAADAE8EGMAAAAAAAAAAAAAA8EWwAAwAAAAAAAAAAAMATwQYwAADA/4+9u/+N67wPRP+dGUq0JZOOfePYEtl1bDcWpdSNrVpStHFtVJIvusgNIAHFBpAD62Z3nWwB5X+4/0P1yzbF5iZICgQoIF90e3exkdwbw6mv5TZ2k1Si6ys7Lki/xI1sk6IsifNyfyCfwzNnzpDDN4kcfT5BYJGcGQ6fOd/zvHyfFwAAAACAPiEBDAAAAAAAANAnJIABAAAAAAAA+oQEMAAAAAAAAECfkAAGAAAAAAAA6BMSwAAAAAAAAAB9QgIYAAAAAAAAoE9IAAMAAAAAAAD0CQlgAAAAAAAAgD4hAQwAAAAAAADQJySAAQAAAAAAAPqEBDAAAAAAAABAn5AABgAAAAAAAOgTEsAAAAAAAAAAfUICGAAAAAAAAKBPSAADAAAAAAAA9AkJYAAAAAAAAIA+IQEMAAAAAAAA0CckgAEAAAAAAAD6hAQwAAAAAAAAQJ+QAAYAAAAAAADoExLAAAAAAAAAAH1CAhgAAAAAAACgT0gAAwAAAAAAAPQJCWAAAAAAAACAPiEBDAAAAAAAANAnJIABAAAAAAAA+oQEMAAAAAAAAECfkAAGAAAAAAAA6BMSwAAAAAAAAAB9QgIYAAAAAAAAoE9IAAMAAAAAAAD0CQlgAAAAAAAAgD4hAQwAAAAAAADQJySAAQAAAAAAAPqEBDAAAAAAAABAn5AABgAAAAAAAOgTEsAAAAAAAAAAfUICGAAAAAAAAKBPSAADAAAAAAAA9AkJYAAAAAAAAIA+IQEMAAAAAAAA0CckgAEAAAAAAAD6hAQwAAAAAAAAQJ+QAAYAAAAAAADoExLAAAAAAAAAAH1CAhgAAAAAAACgT0gAAwAAAAAAAPQJCWAAAAAAAACAPiEBDAAAAAAAANAnJIABAAAAAAAA+oQEMAAAAAAAAECfkAAGAAAAAAAA6BMSwAAAAAAAAAB9QgIYAAAAAAAAoE9IAAMAAAAAAAD0CQlgAAAAAAAAgD4hAQwAAAAAAADQJySAAQAAAAAAAPqEBDAAAAAAAABAn5AABgAAAAAAAOgTEsAAAAAAAAAAfUICGAAAAAAAAKBPSAADAAAAAAAA9AkJYAAAAAAAAIA+IQEMAAAAAAAA0CckgAEAAAAAAAD6hAQwAAAAAAAAQJ+QAAYAAAAAAADoExLAAAAAAAAAAH1CAhgAAAAAAACgT0gAAwAAAAAAAPQJCWAAAAAAAACAPiEBDAAAAAAAANAnJIABAAAAAAAA+oQEMAAAAAAAAECfkAAGAAAAAAAA6BMSwAAAAAAAAAB9QgIYAAAAAAAAoE9IAAMAAAAAAAD0CQlgAAAAAAAAgD4hAQwAAAAAAADQJySAAQAAAAAAAPqEBDAAAAAAAABAn5AABgAAAAAAAOgTEsAAAAAAAAAAfUICGAAAAAAAAKBPSAADAAAAAAAA9AkJYAAAAAAAAIA+IQEMAAAAAAAA0CckgAEAAAAAAAD6hAQwAAAAAAAAQJ+QAAYAAAAAAADoExLAAAAAAAAAAH1CAhgAAAAAAACgT0gAAwAAAAAAAPQJCWAAAAAAAACAPiEBDAAAAAAAANAnJIABAAAAAAAA+oQEMAAAAAAAAECfkAAGAAAAAAAA6BMSwAAAAAAAAAB9QgIYAAAAAAAAoE9IAAMAAAAAAAD0CQlgAAAAAAAAgD4hAQwAAAAAAADQJySAAQAAAAAAAPqEBDAAAAAAAABAn5AABgAAAAAAAOgTEsAAAAAAAAAAfUICGAAAAAAAAKBPSAADAAAAAAAA9AkJYAAAAAAAAIA+IQEMAAAAAAAA0CckgAEAAAAAAAD6hAQwAAAAAAAAQJ+QAAYAAAAAAADoExLAAAAAAAAAAH1CAhgAAAAAAACgT0gAAwAAAAAAAPQJCWAAAAAAAACAPiEBDAAAAAAAANAnJIABAAAAAAAA+oQEMAAAAAAAAECfkAAGAAAAAAAA6BMSwAAAAAAAAAB9QgIYAAAAAAAAoE9IAAMAAAAAAAD0CQlgAAAAAAAAgD4hAQwAAAAAAADQJySAAQAAAAAAAPqEBDAAAAAAAABAnxhQBAAAAKyVq1evRr0+G61WS2H0oFKpxMDAlrjtttsUBgAAAGtCAhgAAIA1cfXq1Zidva4glqHVamVlJgkMAADAWrAFNAAAAGuiXp9VCMoOAACAm0wCGAAAgDVh22dlBwAAwM0nAQwAAAAAAADQJySAAQAAAAAAAPqEBDAAAAAby+Fn4jsnn4nDq32dR4/Gt4qvU/a9No/FsedOxreOPpb73qH4xsnn4tijhUcefS6+88whnxcAAAAbyoAiAAAAYCM7/MzJ2HNX959fm/hZ/Pnzr8VjR5+LJ0YHO36+5+TJ2LPE99JrlHshfnhhR3zniefiWHw3Tr8+l/x9YvvF+LMfveADAgAAYEORAAYAAGBDO/ujU3G28L0s2fvR+Sxx+9rz3422FO6jR+NbT2yPi6d+tPD8su8tophUHn3iZHznifTVnvjOyT0RcS0mXppLDAMAAMDNJgEMAADAhlBc6Tu3SreQXH30aHzridEYjI/i/Knv9pDEvatkBfBHy3tjH51fWOl7+Jn4zu6I81kC+VB84+RDPjwAAAA2DAlgAAAANoS00ndu1e2VXJI1Yu5s3q/E6ODcds1/1nW75jmHnzkZD838LP781PNdf/6tmfZtn9sS0KNfie+c3BMTExERw3HsuZOx/a1T8cOO3zERV3x0AAAAbCASwAAAAGwgj8Xn7xmMyKdVDz8T39l9V8S1iXjp1PPRLfVb3K752kzuuQvfjYmXvhtTkX/5k7Enzsef/ehUnJ1PNN/z4cK5wqMxFae/eyoOP/NcHJuZe1/DR5+L7e+fij8/eyi+cfIeHxsAAAAbhgQwAAAAG8ej98c9gxER2+Kh556L4VcvxvaUwB0cjSdOnownOp40v0107gzgw8+cjIWNmT+aX03cvl3z4OhX4jsnvxIfXTgVf7bYXtJ3pbN+I+KuuQTz6GhExMn4zu653z/jkwMAAGCDkAAGAABgw3js8/dEXLsWMRgRMRijT+yI86dOxQ/nV+Zuf+tU/PBs7t+/PRrfemJ7TL0+//zcKuBrS2Rlr00srPL9znMfxkvf7bK6OH8GcAdnAAMAALCxSAADAACwQRyKL45GfDhxJUZHIy5+97sRz5yMHYcj4rf3xz2DH8XFszG/Sjj9e+HZ2VbOp14orAC+K/acPBlza3g7V+vevX0wrn34Tmny97XcquJyL8QPT73gowMAAGDDkAAGAABgQ3js6ENx10cX44fTO+I78987+6NTEfFYHHtuNGLiZ3E25lYJD350MYq7Np/90ako38m5cwvos+9/FHt2z20BHfFRnP9R15OF49hzX4nc0cId0kpiAAAA2AgkgAEAANgQ7t5+Jc7/6IWIw8+0ff+xo4/HaEzES8+/FnOrhAfjowu5VbfXZuJS4bUWksGv5c73za/W/dHi5/7GXXHsuZOx/a2fxUxEfHThVPyw5PHtK40BAADg5pMABgAAYEM4+6MfdXxv7kzfK3H+1Nz5vIef2RN3XZuIl1Iy9n/ZHoNtmzofim+c3BPbJn4Wf/7r++NbT4zGlZS8ffRofOuJe+LDl74bp1+PiMPPxHcenGk7+/exo4/PrfYdfSjipVPxw9cfi2MPRty1+2R8Z3f5+17qrGEAAAC4kSSAAQAA2JgOPzOf/P3R3Grew8/Enrs+ypLB5U+ZTxA//1pEvBavfv65eOLBo/HY2efjtdefj4tfPBl79h2Nx15/Pl47+6M4f9/JeOK5oxHffT7ufuZk7Nk2ES+VvL4VwAAAAGwWEsAAAABsTGcXtmmeWwkcMfHSd9vO+T18310RV96bS9gefib23HUtJl5aSOC+9vzF+OLJPbHv6GPx2vOvxdkfnY8dJ/fEFw9HvHZ2/ozhZ07GvqOPxZ93PUPYCmAAAAA2DwlgAAAANrZHj8a++eTv6dfnVt3uuSv98KM4n871PVt2rm/+3N+yr/PnBXdnBTAAAACbRWXnw19pKQYAAABWa3p6SiGswtDQsEIAAIAuLutvQM+qigAAAAAAAACgP0gAAwAAAAAAAPQJCWAAAAAAAACAPiEBDAAAwJqoVCoKQdkBAABwk0kAAwAAsCYGBrYoBGUHAADAze5jtpQBAAAAa2DwttsiIqJen41WS2+zF5VKJQYGtsTgbbeFEgMAAGAtDCgCAAAA1srgbbfFYNymIAAAAOAmmU8At9r+AwAAAAAAAMDmMxC25QIAAAAAAADoC84ABgAAAAAAAOgTA923fZYaBgAAAAAAANhMBiJaUr0AAAAAAAAAfWBg4QhgaWAAAAAAAACAzWyg0agrhSW0Wq2IaEVrBTnySiUiohKVuX+gfAEAAAAAAGDdDFy/dlUpLKHVasW2bdtj6+Bty0o0tlqtuH7taly5MiNBqXwBAAAAAABg3Q0ogsWl5OTgbbcv+7mVSiV7niSl8gUAAAAAAID1VlUES9s6eNtNfb7yVb4AAAAAAADQCyuAe7DalaVWpipfAAAAAACAfrZ/23A8uPX2GJC36Um91Yq3rn8a565MrflrSwADAAAAAAAAK7Z/23A8PLhNQSzDQKWSldlaJ4FtAb0GHnrwAYWgfAEAAAAAAG5JD269XSFsoLKTAF5Cq9Va9Oe///uPxMGDX46njxxe1esoX+ULAAAAAACwGdn2eWOVnQTwKjz04APx+4/8XnzwwW/i3ns/FwcPHlAoyhcAAAAAAABuGgngFZpLSH45PvjgN/GTM2fjF7/8VTz04IPx+7//iMJRvgAAAAAAAHBTDCiC5bv33s/F00cOZ8nJiIhf/OKXERHx+4/8XtvXKF8AAAAAAAC4UTZtAnhoaCimp6dvyu++Y/v2mJmZyZKTycWLb0VExPbt25TdLVy+AMDmbFseOXIkRkZG1uT1Jicn48yZMxu6zbURHTt2LIaGhmJycjLOnj2rQNbguu7Gtbn+RkZGYmRkJC5cuKC8uameffbZGB4e7vj+1NRUnD17NiYnJyMiYvfu3XH48OHSx42Pj8e5c+cUJgAAbBKbKgE8MjIS+/fvzwbmbtbA2sW33o6Lb73d8f2ZmZlNsTL1xIkTMTU1FT/4wQ825Pvb7OULAOttaGiodCC3F1NTUxIRJfJtzLVqtx45ciROnz6tcHu8pvMJ+HR9j4+PZ4kJenfs2LElr+dz585J5qyjfCJtbGwsTp8+7d67DuMD6rTersXh4eE4d+5cx/003SvS9/ft25clhYt15NjYmHvGCtpn3a7Rsnu0+g4AgLW0aRLAQ0NDcezYsbZG9MjISBw7dkxnepkmJydjZGQknn322Q2bBAYAyh0+fDh27969qte4cOGC1ZUFqUxPnTq1Jq938uTJNU0o97NisvL73/9+nDhxInbv3h27d+/e0BMXN2q/abFrb2pqKiLmEjoRIaGzTveT/CrK4eFh/dY1lMYB0vVsZWpvysqoLOFYNvHm3LlzbeMxlN97T5w40fH9srjPX8PFx0oCAwCwVjZNAjgNyuVnqqcB0NHR0bhw4YJPs0dnzpzJVlhIAgPA5jE0NJQlxFY6QDgyMhK7d++Oc+fOSUSwIdr4aRVft+1Jh4eHY//+/TE9Pa3N34Nedgf4wQ9+EM8++6wk8DqZmprquKaHh4ezey+rqwdT4uzChQvZLmGuYzbKvbfYRkuTbory9dnIyMiKd3YBAIBuNtUK4Ij2Garj4+Oxe/fu2Llz57oOBrVarahUKqt6/kYzNTWVbU+UTwKngeW8ycnJdZ2F2o/lCwDraTXnox4+fNggIxvGzp07IyLi7NmzHdfm5ORkjI+Px+HDh7MET9pKl9WTBF57u3fvjqGhoWyXBffb1Y8BjI6OZv3XycnJ7OuzZ8/GhQsXslWXdlxgM7XRimMs7hUAAKyHgc32hvOzJ7vNpFxLlUolrl27GrfddvuKX+PataurSnCutWPHjnXMRk9J4LQSKA0EJWkropQgHhsbW5OVw/1YvgCwUQwNDVnlS19I7dCRkZG28yrptJwkgiTw2ilu+1xMAk9OTirfZSjbIvfcuXPZxO80CTy/6pKNcV8BAAA2hgFFsLQrM5cjImJw8LZlJRpbrVZcu3Y1rsxc3lAJyjQAMT4+HhFzKyny20Hnt4QcGhqK/fv3Z4/JJ4bXalC538oXAG62tCJqcnIyzpw5IwnMppcSwJIQay+fBLbN9soUk7+pz5SSwGNjY85dX6aU/E1J87GxsewaPXfuXOzfv79t29x3331XoXWRkuOHDx8uPYs2P6Fmeno6xsbGOl7DCmsAADaj6vbtMXDvPVG9Y9v819ui/sG/RkREa+ZKzH7wm77++yWAe1CpVOLKzOWYuTy9oudupORk2kp7amoqG9yZmJjoOBM4/Sx19PLbQnc7o035AsDNlY7GSNIKqtOnT0sCr1BxcDy1pfLlaaX18tujaatcCd0bb3h4uGNl5fT0tM9iFffdfPI3KSaBWV6ZprJLCeALFy7EiRMnYt++fVl55q/Zffv2xdDQkFXWJVLfvyyJmx8XiJg7ZmtsbKw0Cew6XrqcT58+vaLV6OfOnYvx8XG7WwAArIHq9u2x9aH7Y+uD90d1+/aOn2998PPZv5szM1H/4MO4+osL0ZyZ6buykADu0UqTjJshOTk9PR1nzpzpSAIXpVVE+/fvX/MBon4uXwBYb0NDQ1k9XjQ8PBwnTpyIU6dOKahlOnbsWIyMjMS5c+eypMKJEydiamoqzp49G5OTk1nyZ3Jy0tm0yyhXycaby2q+tdEt+ZsvZwnJ5StLoOUn2aREW76c9+/fbxX7Iv39XpO3Fy5cUH6rKOeVTgZbzXMBAJiTEr+3PbIn+15K8DZnrkTz8pXs+wP3fjZbHbz1wbn/9mMieMMmgIeGhuLYsWPZ4Fqvzzly5MiabnVYqVSi1Wpl/46I7OulnrfY1xuxs1KWBE5nVQ0NDa3LjN9bpXwBYD2lrTC7sWpn9e2k1NaMmEuqO29y5W38VH7j4+Ntx4vAZrJU8tekkJVL99eRkZHYvXt3TExMZPeKycnJjmTZ5ORkTE5OxrFjx2JsbEwCEwAAbjFb7v1cbD/yZNv36h98GJfP/LT08dff+nVERNxx5Km5LaK3b88Swdffeieu/uJ8X5TLhk0ADw8Px/DwcIyNjbUlgEdHR7MOXdoaKnX+du/enZ0DtJazJ/NJyvT1cp+/GXRLAp87d25dVwncKuULAOshbacb0b5d5okTJyIi4vTp07YUXKEzZ87E8PBwVn7T09Px/e9/v639OTExEWfPnpVwWEZ7M//vycnJGBkZkVBfR4tdn0slMYkVlZvk7+qlY4eK5dytn5+SwGmiDp3XbFnZFFdM59sURRcuXLBKFQCADWfrg5+PbQcfX5PXmksE3x8R0RdJ4A2bAE4DbWl7uHfffTd2794d+/btyx6TzqVJnZCUpFyPQc5iknI5z9tMFlsJvJ6Dc7dK+QLAWhsdHY2IzkRvOofOYO3q2kXF8iv7WvJ3ec6ePRuHDx+Offv2xenTp7PJm+Pj41mZnzt3Lqanp2NiYiJL7JSdSUlvuiXFJMuWT/L3xpZv6n+mcYH9+/fH2NhY17Pth4eHncteMDIyEocPHy5tE6QxlFSPpXGA4pjKyMhIjI2NlR4VBQAAN1O35O9Kt3JOSWAJ4HU2NTUVIyMjMTQ0FBcuXIidO3d2dAgnJyfjwoULMTQ0tO6rB26VZONiSeC0ylr5AsDGMDQ0VLrK16pfNqoLFy7E2NhYtr1rWrWePys1/++UTJMAXhkrfNdOSqR1k0/+poRZup4lJHsv37RFfPH85LQ6df/+/XHs2LH4wQ9+0NY3NaGhXEqeF5O36QitfLmlsZfi0REjIyNx7NgxhdnDNbySyXf54xHcKwAAlmfq+f8ew0f/Xcf3Z9/6lyWfe/2td2Lg3ns6vv/py//QF2WzoRPAr776ahw+fDiOHTsWp0+fjrNnz8b4+HjW6c6fD3zkyJHse/TWCey2tVN+ACN1RFISOCXbndcGABtDcYAcNoMzZ87EiRMnsuNeepmwkBI9totensnJya5lNjw8vK5HvfSToaGhRRNg+eTv/v37Y//+/Vm5nzhxIk6dOqUQl5AS5q+++mrpzgppd4CRkZHs//v37++4hiXQetOtnJTfyqQkeVkCfSn79++P3bt3d13ZDgBAd82ZmbYkcHNmJi7/5MWeVgBff+vXUf/gw9h28PEsETxz5sWY/eA3fVE2GzoBnF8dcOTIkThz5kzb4FBKUOa3KbLaZelOXtrOeTmDPfkkcJrBrmMCADdHLxO5FntuahOwIJ032a191G1VTtnjUxmzeJs0bQV9+PDhJbcVTZMSXbvLNz4+vugZwBLAvVnsnlvc9jlNbDh9+nSWFLItce9lvNS2+vn+7Pj4eNsEh/HxcQUJAAC3mJQE3vrQ8rdubs7MxJWX/z4G7r0n6h98uOKtozeigY3+Bk+fPh2HDx+O3bt3x4kTJ2JycjIb/Dl27Fjbub/OWurNmTNnYnR0tOctsiYnJ7OZ1fmVwADAjTU9PZ0dkbGapI0VlOXtneHh4a4r/MpW9OTbot1ek+7ykz3379+/6Gr2tNuP9v7y7dy5s2u7X/J3be4dZddlus8Wd07avXt37Ny507bQq7hv5h9z4cIFfVMAACCaMzMrPre3OTMT19+a6bsyGdgMb/Ls2bPx7rvvZgNEycjISFy4cCHGx8cNsC3D9PT0sjvJZWcCAwA3XjrzcHh4uOdjGdJ5iinZYLC8vL05PT1dmhBL506m7UcjOiciFss7/1gWb2MeO3Ys9u/fH0NDQx3terv9rN5KdwugXdm9tiz5m1b67t69Oyv7s2fPxujoaNafnZyclPwtuc+m++dyn8Pqy32p79nZonfFs8LLxquK7TeTcQAAWA8Dm+WNppm9+ca081FunOnpaUlgANggUiKs18TO8PDwiiaA3Wq6JWzTeZ779++PCxcuZO2hqakp7aE1aGOePn06jh07liXMUgI9PyBut5/erWaFv90ByhUTYmkS8tTUVBw+fDibkFNMkqWt5fPJoLNnz7oXL6KYPOtWp9G7iYmJiIg4efJk1/tw/t/5yQvFtgdL3z+Hh4fbrtGybcm7HeXhHgwAwFqqDO94pLXZ3vSzzz4bEWHA7SbIr8L4/ve/LwEPADdZL6tGup1fS+/SkST5MtUWXds2ZjqPNn9Np9XrVlMvz1Lbk5cp2+achetzdHQ0JiYm2u6lqW+UkjbT09MxPT3d9ri0Y0PxuSx9n12qXjt79qyk5DKu4bLEebF90O1xERLAKy3nsnLrNmHEPQIA2Oy+cdd9CmEVfvjR+2v6epsyAQwAADfasWPHYmhoKCYnJyXK1lFabWkgfG3KsVfKm8103bpeAQBg45EAXh0JYAAAAAAAAGDDkABenbVOAA8oUgAAAABgo9q9e3eMjY3F5ORk29EQ6RiJoaGhOHfuXNsOAfv374+RkZGO5wAA3AokgAEAAACADevw4cMREVlCN52vvH///rbzw9MxHSMjI7F///6IiCw5DABwK6kqAgAAAABgI1ruufYREVNTU9m/h4eHV/QaAACbWW1w6N7/QzEAAAAAABvN9evXY3p6OgYHB2N8fDzGx8ezn/3rv/5rDA4Oxttvvx3/+I//GNevX8+ek7z66qvZimEAYP38/u13KIRV+MXVy2v6epXhHY+0FCsAAAAAAACwEt+46z6FsAo//Oj9NX09W0ADAAAAAAAA9AkJYAAAAAAAAIA+IQEMAAAAAAAA0CckgAEANpEDBw7Es88+G6OjoxER8fWvfz0OHDiw5r/jP/2n/xRjY2MKHAAAAAA2mcrwjkdaN/tNHDp0KO677774y7/8y54ef/To0YiIeP7550t/fvz48bj77ru7Pn9mZiZ+8pOfxMTERF9+qIcOHYrh4eGIiGxwuMzExERWhuk5zz//fBw9ejTuuuuuRcuo+Bl8/etfj1//+tfxyiuviCoA6LE9s1g9HRHRaDTi5z//eezYsWPJxyaXLl3K2lSjo6Nx6NCheOONN7I6uqzdtVTbqdvr94PR0dF4+umnY/v27R1tpEOHDsUXvvCF+Pjjj+Oee+6JiIjz58/Hu+++G0899VRs2bKlp89P+6jd2NhYHDx4MF5++eUYHx+PsbGxeOqpp+LNN9+MF154oee46bdrMd+W37NnT0+PPX/+fGmZHT9+PK5cudK1v1QWA++8807X8h8bG4u9e/fGiy++2NY/yPchlO/K76fdyref6rsdO3Z0vR8eOHAgdu3aFS+88EI8/vjjpfXdUn34VLe9//778YUvfCF++tOfxvj4eHb9LnbPnp2dbXv8ZnP8+PGIiK73w+L1VdY2KH5eU1NT8cILL3Qtu/R5jIyMxN69e6NWq/VFfXij77/p8UNDQ12vweW0F7U3AICb7Rt33acQVuGHH72/pq83cKP/gMU6XydPnuxoUN93331dO9DFx6cOdKPRiFdffbW08Zs6P7eCNHBZHJTJd+iSe+65J37961/HoUOHss5FSvKWDa799re/jT179sS3v/3t+OlPfyoyAWAFug0eJl//+tezOj3JD5RPTEysySSsfkyi9WpiYiLOnz8fu3btil/84hfx2GOPxdTUVPzpn/5pNJvN+OlPfxpjY2Nx/vz5bILd+Ph4xyDtUhMUb3VpUD0l1++888740pe+FOPj4/HFL36x52TNxMREnDp1qq/L6oUXXsjuC8X47pYoLEsQ3H333W39pW4JgomJiXj55ZfjiSeeiJmZmSXvJd2SG4cOHYr7779/w0+0Xe/yXe399MCBA10Taptx0kOaXPzyyy/H448/HhGx6DVWvK5Scuzll19e9LqamZmJRqMRL7zwQszMzGT3l+T69eulCbY0IWWz3Ut7GR/p1sZ4+OGHY3h4OPbt2xf79u2LiPYk+Pj4eOzduze75qenp9tiojimcunSpfjxj3/cdTJJSji7/3bef48ePRqDg4Px61//Og4ePBiXL18uvc57bS8CANzqttz7ubj93+6L5tR0XD77YsfPt335D2LrQw/09FrXL74dV/7ff9jU5XHDE8BlA2ZrvQI4ImL79u1x/PjxrHGeOnbnz5/v24u7uILlm9/8Zrz77rsxOjpa2hnMDzIMDg7G1q1b48EHH4wzZ85kqzEOHjwYP//5zzs64e+//378l//yX+L48eO2hwSAFdqzZ8+iK00ajUb8+te/zurrfFIgtYci5iZy7du3LxsgLA4Q5wd5k9Q2SM/p9xVSyzUzM5Ml2bV1Vie/IrLYLk3/3rFjRxw5ciRLcEmwL99iCYKUgBkeHo5vfvObbSve84r3iqtXr0ZExG233ZZ9Dik5kfoE6fvbtm2L733ve7d0+UYsJIl+/vOfx8GDBzvKemZmJl5++eXYu3dvvP322zE2NpY9Jk3Uzd9/NnvsR0R2XQwODsajjz4aEQtJ4Pz94Wtf+1qWJEt13nvvvdcxTrDYisj8/eX48ePZc7du3RpHjhyJI0eOlNZvm0l+J6/Fxky2b9/eFu9Hjx6NDz/8MD7zmc+01ekpfi9fvtz2+Keffjpee+217DVTQvSTTz4p/Z1PPvlkbN++va1t02g04le/+pX7byEBnsZurl27lsXHoUOH4qtf/WppW2s57UUAgFvJ0P/2v0btzuGO71e33R6feeZP2ttMn0zF9H/7n1lSd+jfHYnZyffi6i/+aa7P8MD9MfjFXXH11ddj9oPf9EX5DNyMX9qtw5bvrOW3eOo2Czr/+GKDe2ZmJq5cuRJPPvlktq3WRx991LWz0g8mJibie9/7Xtuq30OHDnV0EPMDxhFzA25XrlyJ3/3d343bbruto2Ocvj5//nz88z//c7z//vuxa9euthn+ZpwCwPKl9ktKpOQTsR988EHHAG9aZVMmDbRHLKxg6XUL6KS4yicZHR2NJ598sq8/i+3bt8cTTzzRlgj44he/GE8++WRcuXJlyedv27atp8fdiorbjadrPV2Pm20L4c1samoqSzaU7QrU7TMp7jyQf2yExHw3165di5dffjmbRJJWViYfffRRfO9732sr35GRkdi1a9em/rvzydv8tfHKK6/E5ORkPP3007Fnz574yU9+En/5l3/ZcX0dP348BgcH46//+q+7JsGL/f8DBw7E5z//+dI6smwS+maV6vbFJnIUt8subrH95ptvZkcZ5CfeRETb/WHbtm3ZJJDF1Gq17P3kf3cad3j77bfjgQcecEPI3Tf37NnTcQ2n1et/9Ed/FGNjY22xs9z2IgDArWL6v/3PiFhY+duanc2+d8fhJ6M6PBSf/t2rfZPQXa6bkgAu2y5sqRXAiw14FhOayd///d/H008/HX/yJ38Sn/nMZ+Kll166ZT7YwcHB+Pa3v52t4imuAI6IuO++++LnP/953HvvvfHBBx/ET37yk3jyySezFb/5s9lSGU9MTMTExETW+Xj44Yez3wcArExaKTY2NhY7d+6M6enp0sG84paCRWk13koNDQ11bVdtthVSyzUzM5NtAb2Ubmd8ln0+/XpO7UqkayutUh8eHo6///u/j0OHDsWBAwfattns5ciYpc4E3YzKzqROK/zLyjKVQURvK8Ty3nvvvfj85z/f8bh0NEzeQw89FLfffnv88R//cbz33nsdyZz0ufSyMvFWKd/UR8pPrB0dHY2ZmZmOx+3YsSOGh4fjq1/9arz55puxffv2jnvxZjnjM7/l84EDB0rrrEuXLsX777+frfgtPj/dX4tlsNj19cknn0StVovR0dG44447OvqyS52hutGv3aI0uaBsS+vikVfp+kor+FOSsdlsxszMTAwNDcXY2Fj2WocOHYp7772356OeGo1Gljg+cOBAfO1rX4tarZbVf0uV/a10fzh+/HgMDAzEzMxM1+fMzs7G4OBgfPOb38xef7ntRQCAW8kdh+cWLEyd/pvY9uU/yFb+1t//Tfa9wd8bK90Sut/d8ARwr9s1pY5hGjBbasCzbGvndKbb3r1744033si2Ne5no6Ojcf/998fWrVu7btOYn+1/9OjRtsGK4iBFfjVwsYzTZzM6Ohr1er2vV1cDwHq4++6740//9E+zXU7ydfDJkyc7Bvx7XQG8Ev20QmolylYAd1NM6KZB448++shAbBdpRd/WrVvb2vSpX5ASFq+88sotfcZy2tEn6fUMyscff3zJMyKLJicnY9euXW3J93Q0zOTkZPa41H+6fv16RER87nOfi+eff74j8Z6S+rd6+eb7m0utAE6Pv+uuu2Jqaio++OCDLElcr9fj4sWL8corr2S7MGyG/lY+Rl9//fVFH5vK88CBA23PT0cRvfzyy7Fz587S6yqfPJuZmWnbqjjt/pW/jyz2+W2Ga7co9dvLtrTOTzIYGxuLbdu2xaVLl+LFF1+MJ598Mh599NH427/9245z1/fu3RsXL16MXbt2Ra1Wy7YyX0pxBXBauX3o0KE4efJkXL16tXSCxK14fyibwLFU/fb4448vu70IAHCrqWzdGnf++6PRmp2NmTMvxuwHv4k7Dj8Zd/77o1H/4MOIWFglXN12+0Jb9u7PxG2P7G4fHzoyl1BuXvl0068evuEJ4LKtiHsZyLl06VL87Gc/y1ao3nnnnW3bGOUHkfKrUbdv3x61Wi3uu+++vr/I0zaP09PTUa/XY+/evVnHoNFoRLPZ7FhJMTs7Gx9//HHW4bl27Vo24zU/C3psbCwuX768aAK/2AG14gUAlm7f/NVf/VXb1pVl2zbn69/FJsTdfffd8Tu/8ztRrVbbVrAsdgbwzMxMvP766/Hoo4923U4ytSX6eXCxuAJ469at8eCDD/aUcBkZGYkrV65ErVZrW0VFe3I83y4sbjOcHpe2he2nVb2rKbted9nZtm1bTE1NdV2dntr9+QmiExMT8cYbb8SuXbticnIy7rjjjnjkkUfil7/8ZVv57927Nz755JO4884748UXX4yHH364604Bm+lzW6/yzetlBfDY2Fj85je/iTvvvDP+6Z/+KT7++OPYtWtX/Pa3v40dO3ZERGS7Lm2Ge0u345u63XeLKxwjInbu3JklcPfu3Rvvv/9+3Hfffdk2+9u2bcsSbml747RV8cMPPxyf/exnF939q9v255tFMVG5mLGxsSx+I+ZWkKatn/PX5szMTLz44ovxla98Jf7lX/4l7rjjjvjwww/jS1/6UkREfPazn43PfOYzsWfPnrZke2offO9738vu4+n+MDs7G2fOnInLly93nIF7q99/16u9CABwq6rd/ZmIiKhsGcgSuMmW0R1Rf/83MfvBb2L29N9k33cG8DopbutWHMgsbuf2yiuvxCuvvJLNnL58+XLWgYmYSyAfOHAgvv71r8fPfvazbDXq2NhY3H///fHSSy/FY489FocOHYp33323by/yiYmJ+MEPfpANqF25ciXef//9ePfdd2Pv3r1x/fr1qNfr8fzzz8fXv/71mJmZyVYBDwwMxDe/+c1455134uLFi7F3797YsWNH/Mmf/EmWPD9//nxpsv7AgQPxyCOPxEsvvWTAEwB6tG3bthgdHW3b/i/fJkpJ29QuGh8fbzvrLT+R7vjx43HlypVVrY4sDuimM+pSG+NWWNn6u7/7u7F9+/Z48MEHs+0rr127tuhzRkdHY9euXfHGG29ERMSXvvQl7aFC+7SXREV6XNkWnHlL9Rv6yR133BG1Wm3JSQijo6PZlqKNRiNeffXVjmRAt3O8X3nllWy74bJJHqOjo3H9+vWYnJzM+l/pjPGizbaK8kaUb3Gb3rLteWdnZ9vKd/v27VGv1+Odd96JJ554Iv7wD/8wRkdHs3vMRpf67kkvk75HRkZi+/bt8bWvfS3eeOONuP/++7OV04ODg/Huu+/GfffdF1NTU22fR97ly5cjIrKzVRe7D6eE3Wa1nC2ti9dXxNxq/nwyMn9d/vjHP44DBw7EHXfckZ0zu3fv3rj33nsjIhZdyVu836dJ5O6/7feHfPuqW/2Wb3ctt71oAhUAcKspbu2ctoRebMvnLfd+Lipbt/R92dzwBHCaEXz16tX49NNPo16vZ6sBUiLx5ZdfLm20jo2NxZUrV2JiYiJGRka6dh4HBub+rIMHD8Y777wTr7/+ely9ejUOHjwYMzMzMTg4GA8//HAcOnQoXnjhhb5tIKcB4fvvvz/Onz8fn3zySRw8eDC++tWvRq1Wa+uY1Ov1uHbtWuzZsydmZmbib//2b+PgwYOxbdu2mJmZiXfeead0oCd9nrOzs3HkyJHYuXPnpp1JDQA3ShrUPnPmTIyPj2crmFIdWlzRcfz48RgaGoqPP/44RkdH2wb+0r/TcRnFAcC0NXQ6h6+4VfFSCbf0mPyK4X4aYEyDqtu3b49r167FzMxMvPzyy3H58uV4+umn48MPP4zh4eHYs2dPNBqNeO+999qem8ozfVYpmWYr6AXdBrvz12/EwirzsoTxrbIFdPE+ce3atSUnFPSaqFhKrVbruA9MTEzEX/3VX/XlMTrrXb6XL1/u2A0pbW+eT979zd/8TVv5pom84+Pjceedd2bHGW3GFX6HDh2Kbdu2ZeVw/PjxeP/999v6i2nV5Pnz5+Pdd9+Np556Kt58880YHx+P48ePxzvvvNO2dXbx80gJ81QnXbp0qS1x+eKLL3Z87kNDQ9lKzc28Crjb/TA/GaN4fS1Xio+nnnoqJiYm4s4774x//dd/zT7TNC5TnOSf3xJ5s5wBfKPuD8VJNIvVb8ttLwIA3GrKtnVO0lnAERGt2Xp8+uprcf3tdyIiorLt9ohqNZrTl/u6fG54Arg4IzidCxMxN6D4P/7H/ygdUMwPXpZJg3Y7duyIer2ebRuVGsbj4+Oxc+fO+J3f+Z1oNBpx++23x7Vr1/p6dmTatqjRaGSdhGvXrsW/+Tf/pvQsn/zA8B/90R9lWz/9+Mc/juPHj8fx48fbkvV79+6NZrPZdn7Q8ePH4+TJk8s+gwwAbiU7d+7MBhZTAvKdd96JiYmJ0oHSVP8ePXo0q2PzA4Zl59KlpFt+kDitzjl69GhbfV2WcCtu0duv8iuW0rmTEZGt1vnnf/7n0vP9UvkWv58+m29/+9ur2u6xn5StGL1Vrq+VOnr0aNx1112l2+Mudj/Zu3dv6ZbvEdFxvnVKvF26dClOnTrV1pbvlly64447srM+u8WT8o0YGhrquk12t88jIuKBBx7Iti9O/a0PP/wwdu3alcXSZnHgwIEYHR1te88vvvhiPP300239ynz//vjx4/Hmm2/GCy+8kPX/X3jhhbZVlunz2LlzZ7aF8fnz5+P48eOxbdu27P6SVmROTExk12VaOZvu2+l6L9u+ezP09Rc7EmKxWNy6dWvpFtDdPse9e/fGe++9l+0UlurLdH3efffdHWcR589ojohNcQbwjbz/rld7EQDgVtSanY0rf/eraF35NG7b92hc+6c3YuDez8bAjvvi0797NSrbbo/bHv299jbxg/dHa3Y2Swj3qxueAC7ODE3nwqQZvvmO8qVLlyIishnB+c7j5ORk7NmzJ3t8WjHw+c9/Pi5evFg6AzI/SzIN2PWbNJDz9ttvxx//8R/HL3/5y3jllVfiwIED2ZZaqeOdzljLP/fOO++MDz/8MLZv3x4PPPBA1nHMDzyns6v++q//uqNjmU8iW/0CAJ1GR0fjvvvuyyZjPfnkk22T1lZa9+cHudPAeUrqFKWk8VNPPdXWRsq/XkT0ZVupF+nMw5QYfvzxxzvKfHBwMJ5//vnSQfZ8+e7du7frBEaW12+4Va7HfPKhl4TqPffcExcvXsz6RIttQXrXXXdlCdzz5893XJv5Nn9+R4Hk8uXLXbf03ixbQK9n+UYsrPJdqh4o2zL6gQceiPfeey+eeuqpuH79etbfSv2rfOJ0o8fuo48+Glu2bGnr36c++0MPPVTaV8xffxFz59V++9vfji1btsTMzExMTk7GV77ylay/n+quVOf9xV/8RduuFhMTE23bJU9MTLTVi+n3bcb7da8rgMsstgV08XW+8IUvZBO+0wTz9PlcunQppqam4tKlS/HjH/940et9s5wBvN73h153xIiI+PDDD6NWq61ZexEAoN/dtu/RqN05HNv+7cKEvG1P/du4Nv5m2+PuOPxkVIeH4tO/e7Xvy6QyvOORlksDAAAAAAAAWIlv3HXfDf19W+79XLbqt2w177Yv/0FsfeiBaF75ND79u1dj8PfGsuTv7Ae/aXvs1gfuj8Ev7oqrr77e8bMb5Ycfvb+mrycBDAAAAAAAAKzYjU4A95u1TgBXFSkAAAAAAABAf5AABgAAAAAAAOgTEsAAAAAAAAAAfUICGAAAAAAAAKBPSAADAAAAAAAA9AkJYAAAAAAAAIA+IQEMAAAAAAAA0CckgAEAAAAAAIAVq7daCmEDlZ0EMAAAAAAAALBib13/VCFsoLIbUKwAAAAAAADASp27MhUREQ9uvT0GKhUF0oN6qxVvXf80K7u1VBne8Yg12QAAAAAAAAB9wBbQAAAAAAAAAH2i8i/vvNWKiKhWq9FqtaJVctBwJbdUu9VqZV9XKpVotVrRbDajUqlm3282m1Gr1aLZbGaPT69bqVSyr9OrtuZfN/8+2h/bjFYrolpJ72HhvX3w4W99igDr4J6d97fd56vV6vz9Pt2bF+qB9LPifT7/+PSzVDdUq9Xs60ql2lbHpOe1Wq2o1GpZvZB+nv6ff1yxvmo2W21fp/qlUqlEo9Foe+/VWjUajUb2uEajkdVj7d8b6KgL02PK6sj0/srq1bLyqs3/rflyS/++e+j2iFioU/N/d7d6u6xcWq1WVKqVaDVzP2ul2nihXo6IyL/zVv7rSiWi1YpWpLq8Uvj7W/PXx0KdfemTy6Xvee7rVpf6vxWtXBkWn5u/JhfKtdFRHsXPJd9WSf/Ofybpcelzr1Qqc++jWo1qpRKN+cfV5t9zio/i78v/rrK2VPpePn7yZVD2OVer1ajX622/L//Y4uuXXYON+e9VK5VozpdxrVabi41mMyqFz6DRbEatI/5bPcZ/9BD/c9dgWfznr4vlxX+z9/iv9hr/taXjv1qM/2q0eoz/gfn4b2TlXG37G/NlnX9/xb8/tcnzvyP/e2u1Wtvfu7r2f2XZ7f/O+I/u8d9aOv6rhb8vCvet3uN/4d5RLcR/ivH876gW4r+15vEfHWVWm4//ynz8V7rEf1S7x38xjpu5+O8Wx/l7bXW+bzZ3X2xFtVaNZmM59X+zM/5jNfHfLNRlnWVey+I/lhH/jSXiv1Va/7fWoP6vltzjmkvGf7XtNbvH/0D3+K/k32d1GfFfWVb8t6LSNf6r+Wuo1criuyP+56+7/D23UYj/nur/Rnn9X6tWo75I/V+tzcd/oxnV2lL1f3WZ8V/trf6vFOO/smT9n9rGK43/5bT/o1v7v1aM/8ra1v/puphvuK5p/d9cafu/1SX+q0u2/1NdWK3O3ZdqtYHs/tRZ/6e2QyMiKquq/1sLf9xcgz4X/1nbPMXnKur/SrW60FnIPzb3e6Pw3Eq1Gq35ayx7XyuJ/x7a/73U/ykg5+rG6urq//k+WqVaEv+z9bb7zXLb/83855bef6021x8oi+NGY+Fem3te+m/2Ocx/dvl+RfY6uc+nWdb+L9T/1fQ35a6LrC2YXjN99q1W9vpt8b8u7f/5dngx/lvL6f/Hsvv/c/GW2lqNJdr/layeqkRrifivlMR/2bhBs1D/Nzvb/41m1GrVkvhvlcR/q6T+XyiTaizW/m916f+3fx75eKvOt9fWPv6by+7/N7OfV7PPoNlsLdL/b2ZNs7Xs/+c/x6Xr/0p5/7/Zyn7W0XYrbf83yvv/bfHfyL12Wf0fG7f/v07jf/n+f6PZjIFaLWuHltf/+d+R+oqVaLaaUasuVv9X2vv/lZK/LSrRilbbddRb/7+6gv5/e7t26fG/xer/hbbK4vFfWST+q0vU//nrtNpz/Z//LLP3mo26ttr6ZPV6PWq1hfGGpeL/V7/6VTzyyCNtsTFQ7MhlHeX5izAVdllB5W+QZX9Q/gIqNuRTxZ3e/ECtFs3CRZD/MJrNZtQG5jqsc5XVwkXzB3/wBzI1AGvoH/7hH+YaivONnoHs/tvZ6Ezfy1eYqU7I1wvFyr04MFZsWGaVZa4TnDoubQOJufeQr8vyr5t/P/k6LDVW6vV623tKjdN8hTnX2FgYUMkGw0saLvV6PQYGBtrq0q5/3/zX+U5Z+n5ZmRf/m29oFcul2IjKfncr2gbM57rPCwOPlfkO9Vw/qpX73lyDpNJqzbWlWpW29HDZ0R7pe2V1e769kU8CF+v/gS0D0ag32hqrxYZ86qTmr4liQ3rLli1tDe+yDl/Z86vVajTmO5HN+URdo9mMRrMZWwYGSj+f/Oec/7vyP89/zvnnFD/P1AbLX9/56754nebbbqnDWZt/bCOfXEh/U+FnSb3RiIFaLbasa/xXsgGvSqt7fCw//ivrEP/Njs5dR/xXK1GfrcfAli1zjfQe43+gVot6R/zPRrVaa+vwFK+nbuVS7DimeMl3bG9W+788/ru3//P1T1n8N+cnlRaviXwCYjnxHyXxXyzvZrOZvbd80ri1DvHfmh+gTZMD0vNqXeK/2WpFpRnRbDUjKu0xUjaIU/xZNlC0VP0/PyCZlV+tGo16L/Ffy5KnxUGLzRP/ja71/+wa1P/N+YH3/Gdcm59ksNnjP5+kzff/ayWPaTWbURkYiPp8WbT9PfWFgcJ0nS+7/m8txG6aVJHqyzTAVatWo15S/zcbc22Tpev/2griP3qr/yvF+K911P+d8V9dm/hfSf1frUQlKqXX05rEf5qIUq20/XdN4z/Wuv0fXdr/9UL9X2tLPCyUy0A0GvVC/Dey62g18Z/VPakccnVc5OrLWEX938wlgfNjhKlN2nb95SaFNBqNufZqqz15khKMrTVs/3ev/7dERL3Q56ytrv6vVhYm6s5f07WBlbf/y+r/fBJ3yfjfsiUauaRTKzcJuJJNRJl7nWajEc35a6Is/lOCuNf4zyeay67z9B4q+fq/tT71fytNEFyT/n9z2f3/1NbK1yfd7ouNXBJ9+fHfLKn/K6uo/5sl8d/q2v6vVirz9/FWl/Z/dEzky88PmXuN9gmLzWZjHeK/0db+77X/X+2I/9aS/f+B2trF/0L/v7mM+r886Vytzd2T8xPmqivp/2+69v+NH/9L/15oJ8+1A8rr/2ZhEnU1Gs1G1Kq1uX5hr+3/xnz8V3KT6ipzbaDUH+mt/V9bRf9/S9YWWnz8b6n2/9asX7F4/MeK+v+d8R891/9ZfZpr/6fkbyN9BtHKxjib8/e4zvZ/efwXJ0ZU276Yv+BToeQz2gMDA1mhp1ki7R9QofGVW+GRz5Snf6eLvJZmgBRmLywE09y/t27ZMn+hVLPfVXGINMC6Svf51BBcmH1fzRot6Z7fbDZjdna2rbKr1Wod9/6yGVr5+36j0YjaQG1hpm+1Upr06JhVmatr0v/bBjK6rYbN/R35RlZHRzRXcRdnouVXNuRn8hUfm39M/r2mv7u4wiH/viq5mXjF183/e6m6seN584259L9sZW9uNeHCDOu5jna0reRpn5Vbtvo3dR7z9X9qc7S61v9zg0Bbtm5ta6x3S4RnyetcQy79jmq12vb8/GedrutiIz41LrNkS+6zSJ3rWrUas/V6R/nmG6j1er3rSu384Gm+sVZswOWvk/y1UZwtnK2IzP39qcOZ/p7U+UurevOzxVPDMp/QKo//yjLiv9Zb/DdbbZ3O/O/ZdPE/sDCI0mv81+fjv9pWvp2di1TW+eulrCPdLebz1/XatP+bK2r/9xT/rblO21LxXy387fnrP8Vpr/Ff7SH+8+VWX9f4b2QD47XcY2N+wkC+79S2OjT9/bnkbPp78p9f8XMvq0uK8V/NtQFqAwsrKJvNZsxen81WRa6q/l+H+G9usvq/Ov8Z92v8F/v/WVIg93Wr1Yot8/3/gcXq/2r3+F+y/p9va+avj2qlMjeQmYv/gUL9nyY81Gd7if/mDaz/Gx31/1rG/3Lb/7Vi/DeWiP/6KuO/Nrejz1zCppW1K9as/m+uZ/w3C+2rsvq/URL/jY7Vv2sd/5HqwPzqy/kEcT77kq3+WWH9n18F3MzFf9uKrEK9H/n/5uK/Uq1mX69l+7+9/p9dIv5nl1//NxcG37NrOh//1eW1/4vxnyUwU6Ij/3mWxn89agMDc5M3qgttgGq2Ir4ZrWYz6rOzCyt2S+r/5jLq/8i9145B9PlJcdGt/p+/B6x1+z/yq9JXFf/NFfT/K7m2VmPj1f/Nxer/2grb/+XxvxDuxf5/LFL/D6xD/NdW2f7v3LmsrP2/2v5/Wf2fkoHF3aK61/8Di/f/W824PjvbNomvs/1f7zH+B+ZGozZr/39dxv8qWdsz/b97/b9I/DcbHRPwloz/KMT//Eri5bX/G6uM/4Eexv8qaxD/1TXq/1fn47+xZP1frH+L7f9arv6PqES1WolatZaNvS4Z/7n7flZG6WJLN6iybeYajUZ2YeYv0uJWPcULLX/xFDPzqcCLBRYRWWHOXURzN8j6fMM4v/w/3TgBWJ/kb75STfVBapimmUv5Crs4i22xe39+1WZxpmJaRVSrVaPV6GxolG3PkSrtfMMr3xAsS36m/xcr+7aBjMJAVHHGZPp/t1W4ZQ2j/O8ubgeTr8Dzq2/KPpuy7VTKthAqe2xbo3R+BW8r0rbOlbb3uLC16fzOHa1Wtg1M2wZ3rfb3t1BPL1X/N0vq/1ZUa7Vo1OvZoFuxgddte6H0usUZlWVbzBQfk78O82XXnN+6LA085bfiyTfo8u2oslm6xQZv/vfkO+b595C/tvOfbVljsvi+0/VTHIRLSeDG/N9VyyWLi7MVO+O/uYz4by4R/wurdrL4z3USyhINmyn+m13iP62QKG6718gl8Oa2eqx17TgU4zs/m7c467TYedr47f+5WcONRr1jFnX3+G+ua/znn5/finf94n9hwK2+RPzX8vFf7S3+07VbXMnXW/w3o1Evif/6cuv/zlUNK47/+uLx31xW/DduWv2f363h5sZ/fV3iv7pE/OfrpHrhdy4W/42VxH+9fdV1+m8tF5fN+ZX3zbZrvZqtzFuf+G+usP6v9VD/11cZ/723/5vLjf/aGsZ/LhG0ZvV/tZJNrFle/De6xP/C4GjaXnCp9n9v8V9bs/o/cvGf2i1p0LIs/ivLrP+jEP+tZnNhF45c/FezScHVtoRvljCef17qjKxv/V/LttPvjP9m25bdK4r/5sI26Wvd/m/OT25Jidv8St7y+J+7RtO9MpVFs/CeqrVaNLv0/2O+P1ddRv2f31q6LdEwfw2klVOtG9z+r9zk/n+6psriv5U7nqi5Ydr/zWW1/xtt7f/GMtr/rRvY/q9kW/GvrP6vLhL/jdL2f3ON4r/eqGcrQvP10uL1f2Px/n/M1f/1Rcf/Bnps/9f7pv+/HvFfy+r/5jq0/5ud8d8sxH8s7NKzvv3/ajYxbvX9/+YN7v83e27/FyeyzS10Tc9Nx+us7fhftfiB5AMm/4L5DyzfISm7mIpL4otbTXSbldDWOWzbZqA638artg0ydxvMBmD1miVnrxYbFYsljIsDQcVzHYqdiOJMtOx5ubOHihVz2dYaxTqluBVisbIuNiry9VZesQOe//3FOrNse5pio7HYOMrPXMw3yhYavrGwLUhhJmaaFd7WYGk1O7YVKvvcqpXq/IzA1sIq4OLnmT6L9NNiOaefVubfXxQb3Cut/yvZrPNig7E463KurTLQ1tApO7OlOCs0S+4WtoMpXqdpZVDqWKcVQm3neKSBi3Sma1o9EdHRaE2Nz/T/jm2iCjMki9dr/vrrtr1M/hzFZn6bntwKilpu28tqbiXUDYv/+diuVMvjP78Vz+aL/2ZbYm5hcG/uWJP8AHltfpVnWlW+MDjc7Lju08zV/D1jYGAg+5vSzPP8+0vP6dYh25jt/877Vln8Z2VYmHGezVBfMv4bbef/dov//N/XtqJmvmzqNyD+8/ecWrf4b7aW/DuKgxnFwYtu8d+8wfX/2sZ/c1PU/7P1+sL9uOf437L6+K/duPhvlnxdnV8xmr9mqj3Ef7reBworTlda/2dnWOYST9Vc/d9qtaJe74z/ta3/a0vX/7Xe6v/O+K+uOP5XVf/nzptM5+hm9f9axH+1JP4b7Wdo3rz4r3WJ/2aP7f+F8zCr1dp8W7eW/X8u/mvzZV+Pen02SwKvtv7Pr8KMLvEf+XJcRf1fKR55U+y35BLQWcI3V/9XVlT/99b+b6//64X4r2WJi7Q158DAlpXHf23t2v/d6v+2ZPqi8Z9LKjRbsdhZP9kK40L8t50NvJz+f24r75QUq1YWtkItnk29nu3/KOxWcWP7/7n6v9a9/Z/Kvl6vZ3XVDWn/Vxer/6vr2v5f6P9X17X/3x7/zWxB2nLr/+r8/aHRSJPs6h0Tdort/9p8omht4r+afS7FyQRrVf/XV9P+j+oS9X/1Fhz/y7VFq9X5tu7c/6vVWmxZtP0/F1e19FnHYvFf64z/anudVBwjXP/+f7XH+K8tEv/VNY7/tW3/p50zirsZth3Nl/2+ZcZ/4TOa71dVOi7asoOMi9vN5Gd+zD1nYTuC/CyM/AyK/EyN7HULbzz/vM6ZIc1s++c0GA7A+ig7S7bYyMpXgMVGdr6iTN8rbkMxt53FQqWdr4Tn/r1wzmBx+5eyRkS383LzA6dlnYFiA7Hj3KLC35dfOVFMsqYGZ7HhWXaGRLfZa/lO18L7yL2XZufWNsWt6Sq5tbnN3Oy3jnJL/f8oO3spsi2hU6K3FWkl8MJWbQsNlUp2Rk9+++dig614NuGS9X+z/ZySfMO+2DArO2Ol+DcXO7zFWXP5FSjF52ZniMy/zmzu/JjiLOr81oll2xHlt6gpxlF+Zml6rRQnZTNJU6ehWMap87hlYKC9wTrfBksdteK2es0bEv8LWzambWSLnbDi+XEbOv6rxfivlsZ/tST+8yvMyuK/uI1b2Wzs/KB78SynYqdn7dr/1RW1/5cV/63F47+6SPw3e4r/Wvtqv0Xiv9hRzJ8fVV2n+K/l4r9RiP9mt/ivtg8eDxTivzgDunRQvyT+F1Zvdk46yq887jn+q9VF6v9lxn9t8fivFQbZFo//6k2r/wdyK6V6j//6MuK/eZPjvzNW02qy/NZ2Zf/uiP/qwuSh/ESnnuv/WjU38Ji7TnuJ//nz3ten/m+0nTNdWv/Pb3HcarWiPtu9/l/L+F9O/Z/Osc4+w1zSPD+ouGbxX1b/VyttiZM1qf8bN779n5+8kpIGc+XUmE8mLHxvLev/Rv5zmW/YN3MrgSspsTSfiMvuDcus/7PXzB1F0upS/8f812lFcBTq/2qxH7OG7f/O+n+2bdA2v/J3VfHfaGaTF3pq/y8z/tMZPVmidtH4ry5MKstPssi/Xv6+W1L/pxXZ1WXW/2l18sLf1GzbLvdGtv8jtw3rjY//1N+OaNTrPbf/W4vGf6vH+r+xdP3fXKz+r/fQ/q+3xXlzfmJmL+3/G9n/b4//alv7v9f6v5mbUJGSsO3xX+1o/9dX0f8vi//qfCwtTFpZff2fX91fK23/13tv/7cWq/9vRvw3C+3/xs2J//l4TuM2jfn6v75o+7/eY/1f64z/VrNth7a5tvhK2/+NFfb/m20TtFcW/80e47+54v5/e/yn+r+6ZP1fKdx/qtW0i0hzfoy8Ot8XqM5/b35MvNlb/FcqlbL4r3TcJIo3l/TBFrfuyS8rLjt4O39WQP4DGRgYWJiVlFt9kv8daQl8tVopnCMY2cHKtoAGWD/FLU3yFXV+5lW+oZOel5/tlGa65Svr4vkYbdsN52cbdjmXpOy8i+IMp+JqgbJBqmJjL98hLzak8lt9FF+77GyJ/Gu0nUmZ68znyytflxYbQilZnhvvaJM1lueTuNl/c9vzlH2+WQ9xrpnRPnMsDWhE7uzf+SdkM0ijkjLCWed0oUzzj4+s/s83wquL1v/VttVs+bLIf07Ztkb1em4rvUrp+SDdtnUpzhxNn3Wx45w6TvkBpoHcY8tmxhY/z26D62Wd1fz5MMWyKdt+sdjRyf/9+bitlpx52Jbcnv/e2sT/lpXHf5fO+2aL/1oh/pu5+M/OqE0d5i7xX5wlnf8b8p3sNEhWbM8X//6b1f5fdvy3eov/2Xq97X2UnQ+8FvFfXJGQHltfx/iv5+I/XSvFLeHa4r9WbVsFXIzbsjPP8tdx8bPLl1G90YhGo5kln/Ir7KK1xvX/Gsd/8wbFf20N6v9Gl/ivLRr/zY7zoG5c/LeWEf/NjvivpoHS3DWer6fyn1+1Nn+2Z60ajcbi8b9k/d9sdawczcd/lMR/vv5PW0Df9Pp/oPf6fzXxv5z6v1oW/9WF1bjFSQn9Wv8vHv/VbBLsYu3/uRUgxWRBs0v9v3AedGoLrDT+82f/5mN1LhnYXv9XV1H/V+d/R2P+bNq0mjEK8Z9WrVbn/9ve/m8uJDML2yquX/0/kA2yr3n819Yv/iP/8yXjv5ndIxv1RrZtdP4s3lbu7Oay+j/feV1u/R9t8V/tWG3cNf5r6xP/cRP6/23t/+ri7f/mfNK8kdtKfXX1/8ANaP8PdLRxu03C697/b617/797/C+3/q+2Jdfz9/P8ivti+389+v+rqv9T+z/aj8dadfu/stHq/4FC/V+7efFfmKTfvf4vtP+jfbeUYvz/9re/jce//ET8xX/9Pxfivzn3348//iT2ffkP47t/8b1sJXGtEP8ff/xJHDj4ZDzw0O545Ev7YvyNf24r8+npmdj/5Sfiu3/xX9e8/19fsv1fXdf+f/f4by27/l+4jy0cBZbVw/PtwGaj0XYG8HLiv1KpxEAxcPL/TQ8uzjIpZvTnfkn7TMP83uzpD9+yZUtbx3ag5EDl/IHcxe3v5i7QSq4tYAkwwI1IAucbLfnKpThDKn/fLztTI79dVrcZtPmtNFq5QYZi5VmsbNPWKQtbq0TbCsr2MyVy267kzhzLNwzyMxOLsx6LlXi15D3mK+B0VkT6fvp3vn4rno1R1sHqlqBPA+/RSjMxOxuwxYZ0WwI3W8A7Pys8LeFNK3tbkVsDXFnoqBTPAG7mP8/OwbL0t9R6qv8rhfq/2tEQy7dHFrav6ZxxmX8fZR3h/GzC4my/9H6yhnZhEL54XsliZ66Uyb9+cTZ2t3OWin9LPj5T+y0fq+Vbf5dv49PMraJYm/hvlsR/tT3+m+Xxn/+clx//rd7iv7qG8d8sxn8lW0UzUKstlG0u/pu5iQSLxX+3n+U7kAvX7EDp9dUtnlbX/o9ltf/XN/7bt3mq5AY6lo7/hfP7Fov/jk74/N+VkrLrHf/pGqotFv+zjWwQvZct24rXQT7GusZ/K7JEQKtwtvDS9X815sYmm4vW/8uO/9l6DGwZyOrB/AqKtFotPxt+8fivrLj+b65D/d9b/Fc64qt7/Pfa/29Gq1VZ4/gfyFoTi8V/ftVv/qiCSnNuAKs5v+q8UW9EpVYe/0vW/9W51XbVDVv/N0q3wJtLkK28/l91/PdY/3ccKdGaS2w1YyH5nsZ71iz+b1b9v2T7v1kS/81sgLl7/LdfA+XxX2u7ZvMJitXW/9nK35Q8SNd5SfxXVlj/p/5GPv5bJe835rc0TInE6vz9qFatZtsZt/L9l9y53mvR/u+s/xu5FT/1tkHb1P5bUfzXVtH+rzeylfXd4j+WFf+1aMxvKdo2uFyI/3RdNHOrZRd2qFqk/V9S/1fy77OwEi+tPG4t1f5vrH38R2HFcxYnzfXt/3f8bH6SX3n7v5ZNvk59jUpp/FdW0f6PZdb/jUL8twrt/2ZW/y8cf9FYZvu/skT9X1nH+F9p/Z/fJraWjV3N/Y65ZFD+GK617P+3YmH3tqXr/3r3+j87W3h+h4/S9n9jGfFfzxYnlNf/sTH7/zcw/ueOImvOJzZjkfq/lt0+F3ZVmJ9cNB/D165dixP/4Vvx/118Kx75vS9miclqtRqffvpp/Ifn/nP2s6jMrTquFCZnXr16Nf7zn34nvvXcf4z/+B9OxN/+Py/Gsyf+Y/z3//v/iuGhoXj2f38uLl68GI/83hc7zlHurf9fW1H/P78CuOzs9JXFf62H9n9jWe3/VqE+bR+PKI7htrLjcXuN/+L18/8PABykm4wsloElAAAAAElFTkSuQmCC;" parent="1" vertex="1">
          <mxGeometry x="-1100" y="-40" width="1920" height="1048" as="geometry" />
        </mxCell>
        <mxCell id="sYSXW_4PjbRX8zPGR2Nb-2" value="&lt;font color=&quot;#ffffff&quot;&gt;&lt;b&gt;取消&lt;/b&gt;&lt;/font&gt;" style="rounded=0;whiteSpace=wrap;html=1;fillColor=#333333;strokeColor=#A199A6;" parent="1" vertex="1">
          <mxGeometry x="230" y="280" width="50" height="25" as="geometry" />
        </mxCell>
        <mxCell id="sYSXW_4PjbRX8zPGR2Nb-3" value="&lt;font color=&quot;#ffffff&quot;&gt;&lt;b&gt;语音&lt;/b&gt;&lt;/font&gt;" style="rounded=0;whiteSpace=wrap;html=1;fillColor=#3399FF;strokeColor=#A199A6;" parent="1" vertex="1">
          <mxGeometry x="290" y="280" width="50" height="25" as="geometry" />
        </mxCell>
        <mxCell id="sYSXW_4PjbRX8zPGR2Nb-4" value="&lt;font color=&quot;#ffffff&quot;&gt;&lt;b&gt;GMB视频&lt;/b&gt;&lt;/font&gt;" style="rounded=0;whiteSpace=wrap;html=1;fillColor=#3399FF;strokeColor=#A199A6;" parent="1" vertex="1">
          <mxGeometry x="350" y="280" width="70" height="25" as="geometry" />
        </mxCell>
        <mxCell id="sYSXW_4PjbRX8zPGR2Nb-5" value="&lt;font color=&quot;#ffffff&quot;&gt;&lt;b&gt;GMG视频&lt;/b&gt;&lt;/font&gt;" style="rounded=0;whiteSpace=wrap;html=1;fillColor=#3399FF;strokeColor=#A199A6;" parent="1" vertex="1">
          <mxGeometry x="430" y="280" width="70" height="25" as="geometry" />
        </mxCell>
      </root>
    </mxGraphModel>
  </diagram>
</mxfile>
